<?xml version="1.0" standalone="no"?>
<!DOCTYPE svg PUBLIC "-//W3C//DTD SVG 20010904//EN"
 "http://www.w3.org/TR/2001/REC-SVG-20010904/DTD/svg10.dtd">
<svg version="1.0" xmlns="http://www.w3.org/2000/svg"
 width="209.000000pt" height="241.000000pt" viewBox="0 0 209.000000 241.000000"
 preserveAspectRatio="xMidYMid meet">
<metadata>
Created by potrace 1.10, written by Peter Selinger 2001-2011
</metadata>
<g transform="translate(0.000000,241.000000) scale(0.100000,-0.100000)"
fill="#000000" stroke="none">
<path d="M1242 2261 c-289 -347 -382 -927 -281 -1765 10 -88 17 -162 15 -164
-5 -4 -280 231 -357 305 l-46 44 -43 -51 -43 -52 34 -33 c19 -18 144 -128 278
-244 l243 -211 72 61 c217 187 486 424 486 429 -1 3 -20 26 -43 51 l-43 46
-193 -168 c-106 -93 -197 -169 -201 -169 -8 0 -23 109 -45 325 -20 193 -20
675 0 815 40 283 123 505 250 669 28 36 54 71 58 77 4 7 -15 29 -43 53 l-49
41 -49 -59z m84 -9 l22 -27 -50 -65 c-89 -117 -197 -364 -221 -505 -3 -17 -10
-52 -16 -80 -22 -105 -24 -139 -28 -440 -3 -239 -1 -346 11 -465 26 -243 38
-320 56 -342 15 -19 19 -19 42 -7 14 8 93 72 174 144 212 186 190 172 220 144
13 -12 23 -26 22 -30 -2 -4 -82 -76 -178 -159 -96 -84 -204 -178 -238 -209
-106 -93 -93 -91 -170 -24 -37 33 -151 132 -254 222 -104 90 -188 166 -188
170 0 3 9 17 20 31 14 19 23 22 33 15 8 -5 92 -77 187 -160 95 -82 179 -154
187 -158 8 -5 20 -3 30 4 18 15 15 73 -16 354 -25 222 -23 682 3 845 36 222
85 388 156 530 38 76 153 240 167 239 5 0 18 -12 29 -27z"/>
</g>
</svg>
