<?xml version="1.0" standalone="no"?>
<!DOCTYPE svg PUBLIC "-//W3C//DTD SVG 20010904//EN"
 "http://www.w3.org/TR/2001/REC-SVG-20010904/DTD/svg10.dtd">
<svg version="1.0" xmlns="http://www.w3.org/2000/svg"
 width="168.000000pt" height="168.000000pt" viewBox="0 0 168.000000 168.000000"
 preserveAspectRatio="xMidYMid meet">
<metadata>
Created by potrace 1.10, written by Peter Selinger 2001-2011
</metadata>
<g transform="translate(0.000000,168.000000) scale(0.100000,-0.100000)"
fill="#000000" stroke="none">
<path d="M430 1570 c-190 -15 -296 -114 -320 -300 -12 -99 -12 -775 0 -864 27
-183 125 -276 312 -296 117 -12 714 -13 830 0 195 20 295 115 317 301 13 105
13 757 1 856 -12 96 -43 164 -95 212 -64 59 -114 80 -208 90 -103 10 -709 11
-837 1z m890 -30 c25 -8 49 -13 53 -12 16 4 95 -61 120 -99 25 -37 24 -52 -1
-27 -9 9 -12 9 -12 0 0 -7 5 -12 10 -12 6 0 10 -8 10 -17 0 -15 2 -16 10 -3 9
13 11 13 20 0 5 -8 7 -28 4 -45 -4 -23 -3 -26 5 -15 8 12 11 6 11 -25 0 -22 3
-230 6 -462 3 -246 1 -423 -4 -423 -5 0 -7 -12 -4 -26 4 -20 2 -25 -8 -19 -9
5 -11 4 -6 -4 5 -7 5 -24 1 -39 -5 -21 -8 -23 -16 -11 -8 10 -9 8 -4 -8 3 -13
2 -23 -3 -23 -5 0 -12 -9 -15 -21 -4 -14 -10 -18 -19 -13 -7 4 -10 3 -5 -1 9
-10 -31 -55 -49 -55 -7 0 -14 -5 -16 -10 -2 -6 -23 -18 -48 -28 -40 -15 -98
-17 -505 -19 -425 -2 -465 0 -519 17 -32 10 -65 28 -73 39 -8 12 -18 19 -23
16 -4 -3 -20 10 -34 27 -15 18 -30 38 -36 44 -18 23 -39 85 -33 99 3 9 1 21
-5 28 -13 16 -15 726 -2 837 6 47 12 95 13 108 1 12 6 22 10 22 5 0 5 6 1 13
-6 10 -4 10 7 0 20 -19 33 -16 14 3 -14 14 -14 19 -2 37 18 28 39 34 31 10 -5
-14 -4 -15 4 -3 7 9 7 18 1 26 -14 17 14 37 30 21 10 -9 11 -9 6 4 -7 18 36
55 65 58 8 0 47 7 85 14 99 19 860 16 925 -3z"/>
<path d="M278 1499 c-10 -10 -14 -19 -10 -19 5 0 17 9 27 20 10 11 14 20 9 19
-5 0 -17 -9 -26 -20z"/>
<path d="M1385 1500 c10 -11 22 -20 27 -20 4 0 -1 9 -12 20 -11 11 -23 20 -27
20 -3 0 2 -9 12 -20z"/>
<path d="M1384 1465 c8 -8 18 -15 22 -15 3 0 1 7 -6 15 -7 8 -17 15 -22 15 -5
0 -3 -7 6 -15z"/>
<path d="M1438 1463 c7 -3 16 -2 19 1 4 3 -2 6 -13 5 -11 0 -14 -3 -6 -6z"/>
<path d="M260 1450 c-9 -6 -10 -10 -3 -10 6 0 15 5 18 10 8 12 4 12 -15 0z"/>
<path d="M185 1390 c3 -5 8 -10 11 -10 2 0 4 5 4 10 0 6 -5 10 -11 10 -5 0 -7
-4 -4 -10z"/>
<path d="M1460 1381 c0 -5 5 -13 10 -16 6 -3 10 -2 10 4 0 5 -4 13 -10 16 -5
3 -10 2 -10 -4z"/>
<path d="M367 1187 c2 -4 -5 -16 -18 -25 -21 -18 -22 -21 -21 -307 1 -195 -3
-294 -10 -302 -8 -10 -7 -12 6 -7 9 3 19 16 21 28 3 11 4 144 3 294 -2 149 -2
272 -1 272 0 0 68 -68 150 -151 l150 -150 -148 -149 c-81 -81 -152 -150 -158
-151 -7 -3 -7 -9 -1 -19 8 -13 74 -15 481 -17 259 -1 483 -4 497 -8 22 -5 23
-4 9 10 -14 13 -76 15 -499 15 -450 0 -481 1 -458 16 14 9 86 77 161 151 l135
134 61 -60 c69 -67 105 -80 155 -57 35 17 478 456 460 456 -6 0 -17 7 -25 15
-13 12 -88 15 -485 17 -259 2 -468 -1 -465 -5z m86 -14 c-13 -2 -35 -2 -50 0
-16 2 -5 4 22 4 28 0 40 -2 28 -4z m270 0 c-46 -2 -120 -2 -165 0 -46 1 -9 3
82 3 91 0 128 -2 83 -3z m340 0 c-35 -2 -91 -2 -125 0 -35 2 -7 3 62 3 69 0
97 -1 63 -3z m225 0 c-10 -2 -28 -2 -40 0 -13 2 -5 4 17 4 22 1 32 -1 23 -4z
m-186 -229 c-119 -119 -226 -220 -239 -225 -13 -5 -33 -5 -45 0 -13 5 -120
106 -239 225 l-217 216 478 0 478 0 -216 -216z"/>
<path d="M448 1113 c6 -2 9 -10 6 -15 -4 -7 -2 -8 5 -4 13 9 5 26 -12 25 -9 0
-8 -2 1 -6z"/>
<path d="M536 1023 c-6 -14 -5 -15 5 -6 7 7 10 15 7 18 -3 3 -9 -2 -12 -12z"/>
<path d="M1040 956 c0 -2 8 -10 18 -17 15 -13 16 -12 3 4 -13 16 -21 21 -21
13z"/>
<path d="M615 940 c-3 -6 1 -7 9 -4 18 7 21 14 7 14 -6 0 -13 -4 -16 -10z"/>
<path d="M679 868 c11 -15 41 -15 41 -1 0 3 -6 3 -14 0 -7 -3 -20 0 -27 6 -11
10 -11 9 0 -5z"/>
<path d="M880 790 c-8 -5 -10 -10 -5 -10 6 0 17 5 25 10 8 5 11 10 5 10 -5 0
-17 -5 -25 -10z"/>
<path d="M775 779 c-3 -4 2 -6 10 -5 21 3 28 13 10 13 -9 0 -18 -4 -20 -8z"/>
<path d="M1338 1183 c7 -3 16 -2 19 1 4 3 -2 6 -13 5 -11 0 -14 -3 -6 -6z"/>
<path d="M1337 1125 c-4 -8 -5 -143 -4 -300 1 -157 1 -285 -1 -285 -2 0 -68
66 -148 147 -96 99 -147 144 -154 137 -15 -15 269 -294 301 -294 l24 0 0 305
c0 168 -3 305 -6 305 -4 0 -9 -7 -12 -15z"/>
<path d="M410 1006 c0 -2 8 -10 18 -17 15 -13 16 -12 3 4 -13 16 -21 21 -21
13z"/>
<path d="M1235 980 c-3 -5 -1 -10 4 -10 6 0 11 5 11 10 0 6 -2 10 -4 10 -3 0
-8 -4 -11 -10z"/>
<path d="M1170 915 c-13 -16 -6 -35 13 -34 9 0 9 2 0 6 -7 2 -13 9 -13 15 0 6
7 8 14 5 10 -4 13 -1 9 9 -6 17 -8 17 -23 -1z"/>
<path d="M510 900 c0 -5 5 -10 11 -10 5 0 7 5 4 10 -3 6 -8 10 -11 10 -2 0 -4
-4 -4 -10z"/>
<path d="M1090 876 c0 -2 8 -10 18 -17 15 -13 16 -12 3 4 -13 16 -21 21 -21
13z"/>
<path d="M560 861 c0 -6 4 -13 10 -16 6 -3 7 1 4 9 -7 18 -14 21 -14 7z"/>
<path d="M1099 813 c-13 -16 -12 -17 4 -4 9 7 17 15 17 17 0 8 -8 3 -21 -13z"/>
<path d="M1186 773 c-6 -14 -5 -15 5 -6 7 7 10 15 7 18 -3 3 -9 -2 -12 -12z"/>
<path d="M1150 756 c0 -2 8 -10 18 -17 15 -13 16 -12 3 4 -13 16 -21 21 -21
13z"/>
<path d="M610 747 c0 -2 6 -10 14 -16 11 -9 16 -9 22 1 4 7 4 10 -1 6 -4 -4
-14 -3 -22 3 -7 6 -13 9 -13 6z"/>
<path d="M1049 733 c-13 -16 -12 -17 4 -4 9 7 17 15 17 17 0 8 -8 3 -21 -13z"/>
<path d="M141 704 c0 -11 3 -14 6 -6 3 7 2 16 -1 19 -3 4 -6 -2 -5 -13z"/>
<path d="M1240 710 c-8 -5 -10 -10 -5 -10 6 0 17 5 25 10 8 5 11 10 5 10 -5 0
-17 -5 -25 -10z"/>
<path d="M1532 665 c0 -16 2 -22 5 -12 2 9 2 23 0 30 -3 6 -5 -1 -5 -18z"/>
<path d="M729 663 c-13 -16 -12 -17 4 -4 9 7 17 15 17 17 0 8 -8 3 -21 -13z"/>
<path d="M1132 657 c-8 -10 -6 -13 11 -14 12 0 16 1 9 4 -6 3 -10 9 -6 14 8
14 -2 11 -14 -4z"/>
<path d="M142 615 c0 -16 2 -22 5 -12 2 9 2 23 0 30 -3 6 -5 -1 -5 -18z"/>
<path d="M453 575 c0 -6 6 -12 12 -12 6 0 12 6 12 12 0 6 -6 12 -12 12 -6 0
-12 -6 -12 -12z"/>
<path d="M1338 513 c7 -3 16 -2 19 1 4 3 -2 6 -13 5 -11 0 -14 -3 -6 -6z"/>
<path d="M141 494 c0 -11 3 -14 6 -6 3 7 2 16 -1 19 -3 4 -6 -2 -5 -13z"/>
<path d="M320 496 c0 -2 9 -6 20 -9 11 -3 18 -1 14 4 -5 9 -34 13 -34 5z"/>
<path d="M907 483 c18 -2 50 -2 70 0 21 2 7 4 -32 4 -38 0 -55 -2 -38 -4z"/>
<path d="M1288 483 c7 -3 16 -2 19 1 4 3 -2 6 -13 5 -11 0 -14 -3 -6 -6z"/>
<path d="M160 313 c0 -5 10 -18 23 -29 l22 -19 -20 25 c-11 14 -21 27 -22 29
-2 2 -3 0 -3 -6z"/>
<path d="M220 245 c14 -17 13 -18 -4 -11 -19 7 -19 6 -1 -14 20 -22 30 -27 19
-9 -3 6 -2 14 4 18 7 4 3 12 -11 20 -21 13 -21 13 -7 -4z"/>
<path d="M1444 220 c0 -13 4 -16 10 -10 7 7 7 13 0 20 -6 6 -10 3 -10 -10z"/>
<path d="M290 190 c0 -5 5 -10 11 -10 5 0 7 5 4 10 -3 6 -8 10 -11 10 -2 0 -4
-4 -4 -10z"/>
<path d="M368 153 c7 -3 16 -2 19 1 4 3 -2 6 -13 5 -11 0 -14 -3 -6 -6z"/>
<path d="M395 140 c-3 -6 1 -7 9 -4 18 7 21 14 7 14 -6 0 -13 -4 -16 -10z"/>
<path d="M1198 138 c5 -5 16 -8 23 -6 8 3 3 7 -10 11 -17 4 -21 3 -13 -5z"/>
<path d="M1250 146 c0 -2 9 -6 20 -9 11 -3 18 -1 14 4 -5 9 -34 13 -34 5z"/>
<path d="M458 133 c7 -3 16 -2 19 1 4 3 -2 6 -13 5 -11 0 -14 -3 -6 -6z"/>
<path d="M738 133 c12 -2 32 -2 45 0 12 2 2 4 -23 4 -25 0 -35 -2 -22 -4z"/>
<path d="M1489 1497 c14 -15 25 -27 26 -27 0 0 1 9 1 19 0 11 -4 17 -9 14 -4
-2 -16 1 -25 8 -9 8 -6 1 7 -14z"/>
<path d="M80 1371 c0 -6 4 -13 10 -16 6 -3 7 1 4 9 -7 18 -14 21 -14 7z"/>
<path d="M1591 1324 c0 -11 3 -14 6 -6 3 7 2 16 -1 19 -3 4 -6 -2 -5 -13z"/>
<path d="M1581 354 c0 -11 3 -14 6 -6 3 7 2 16 -1 19 -3 4 -6 -2 -5 -13z"/>
<path d="M240 130 c0 -5 5 -10 11 -10 5 0 7 5 4 10 -3 6 -8 10 -11 10 -2 0 -4
-4 -4 -10z"/>
<path d="M313 95 c0 -7 6 -11 14 -8 7 3 13 6 13 8 0 2 -6 5 -13 8 -8 3 -14 -1
-14 -8z"/>
<path d="M1355 101 c-6 -11 13 -26 22 -17 4 3 1 6 -6 6 -7 0 -9 5 -6 10 3 6 4
10 1 10 -3 0 -7 -4 -11 -9z"/>
</g>
</svg>
