<?xml version="1.0" standalone="no"?>
<!DOCTYPE svg PUBLIC "-//W3C//DTD SVG 20010904//EN"
 "http://www.w3.org/TR/2001/REC-SVG-20010904/DTD/svg10.dtd">
<svg version="1.0" xmlns="http://www.w3.org/2000/svg"
 width="300.000000pt" height="346.000000pt" viewBox="0 0 300.000000 346.000000"
 preserveAspectRatio="xMidYMid meet">
<metadata>
Created by potrace 1.10, written by Peter Selinger 2001-2011
</metadata>
<g transform="translate(0.000000,346.000000) scale(0.100000,-0.100000)"
fill="#000000" stroke="none">
<path d="M1355 3320 c-242 -38 -463 -154 -631 -332 -132 -139 -212 -286 -260
-476 -20 -79 -24 -119 -24 -248 0 -168 13 -254 57 -362 29 -75 597 -1216 748
-1502 53 -102 106 -196 118 -209 68 -74 192 -78 265 -10 52 49 836 1599 893
1764 l34 100 0 215 0 215 -34 100 c-64 191 -146 320 -289 456 -147 140 -321
233 -511 275 -83 19 -287 26 -366 14z m350 -46 c128 -24 267 -82 380 -158 58
-39 237 -211 262 -251 102 -166 140 -251 168 -378 25 -112 17 -425 -13 -512
-33 -97 -41 -114 -337 -705 -374 -747 -521 -1029 -553 -1063 -36 -38 -95 -53
-152 -38 -78 21 -77 20 -283 421 -239 469 -631 1258 -654 1319 -41 110 -52
179 -54 336 -1 169 9 239 53 363 67 192 198 367 357 480 36 25 68 49 71 52 3
3 50 26 105 52 214 100 418 125 650 82z"/>
<path d="M1385 2785 c-172 -38 -327 -176 -390 -349 -26 -70 -27 -84 -23 -198
4 -120 5 -125 46 -210 57 -117 137 -198 257 -259 l88 -44 136 0 136 0 87 43
c218 106 345 340 310 569 -41 261 -285 467 -547 462 -22 0 -67 -7 -100 -14z
m255 -37 c166 -50 310 -197 352 -357 84 -323 -160 -641 -492 -641 -293 0 -532
259 -506 548 12 131 69 246 165 335 58 54 175 114 248 127 56 10 183 3 233
-12z"/>
</g>
</svg>
