<?xml version="1.0" standalone="no"?>
<!DOCTYPE svg PUBLIC "-//W3C//DTD SVG 20010904//EN"
 "http://www.w3.org/TR/2001/REC-SVG-20010904/DTD/svg10.dtd">
<svg version="1.0" xmlns="http://www.w3.org/2000/svg"
 width="168.000000pt" height="168.000000pt" viewBox="0 0 168.000000 168.000000"
 preserveAspectRatio="xMidYMid meet">
<metadata>
Created by potrace 1.10, written by Peter Selinger 2001-2011
</metadata>
<g transform="translate(0.000000,168.000000) scale(0.100000,-0.100000)"
fill="#000000" stroke="none">
<path d="M627 1651 c-216 -59 -402 -201 -510 -392 -75 -132 -99 -218 -104
-381 -4 -106 -1 -154 11 -212 72 -323 304 -557 632 -640 81 -21 277 -21 364
-1 323 76 559 312 635 635 22 97 20 288 -5 386 -62 242 -220 436 -447 548 -88
44 -211 77 -277 74 -47 -1 -48 -2 -12 -5 24 -3 35 -7 27 -12 -6 -4 11 -8 39
-8 28 0 56 -5 63 -12 9 -10 8 -11 -8 -6 -16 5 -17 5 -5 -3 10 -8 18 -8 27 0 9
7 20 6 39 -7 15 -9 23 -12 19 -6 -6 11 62 -23 79 -39 5 -5 15 -6 22 -3 8 3 14
0 14 -7 0 -6 4 -9 9 -6 4 3 17 -1 27 -9 18 -15 18 -15 -1 -9 -16 5 -17 4 -5
-4 8 -6 18 -8 22 -6 4 3 8 0 8 -6 0 -6 4 -9 9 -6 9 6 28 -12 31 -29 1 -5 4
-12 7 -15 4 -3 3 1 -2 9 -5 9 -3 12 6 9 8 -3 13 -10 12 -16 -2 -7 5 -9 15 -5
9 3 14 3 10 -1 -4 -5 12 -25 36 -45 23 -20 40 -43 38 -50 -3 -9 0 -11 8 -6 9
5 11 1 6 -16 -3 -13 -3 -18 0 -11 5 10 10 9 25 -4 10 -9 19 -23 19 -29 0 -7 7
-16 16 -19 8 -3 13 -10 10 -15 -4 -5 0 -11 6 -14 10 -3 10 -10 -1 -28 -13 -22
-13 -23 2 -10 10 7 18 11 18 7 1 -3 2 -9 3 -13 1 -5 9 -22 19 -39 9 -17 13
-34 10 -38 -4 -3 -1 -6 6 -6 7 0 10 -4 6 -9 -3 -5 0 -13 6 -16 6 -4 8 -19 5
-34 -4 -15 -3 -21 2 -13 11 17 35 -105 28 -144 -5 -23 -4 -25 3 -9 7 14 10 -6
10 -70 0 -49 -4 -82 -7 -73 -4 10 -8 -9 -8 -41 0 -33 -6 -72 -11 -88 -6 -15
-15 -37 -19 -48 -4 -11 -8 -22 -9 -25 0 -3 -11 -27 -23 -54 -12 -27 -22 -53
-22 -58 0 -5 -4 -6 -10 -3 -5 3 -7 0 -5 -7 3 -8 -4 -23 -15 -35 -11 -12 -20
-25 -20 -29 0 -14 -48 -62 -55 -56 -5 4 -6 2 -2 -3 3 -6 -17 -33 -46 -60 -28
-28 -48 -45 -45 -40 4 6 -3 12 -15 12 -16 2 -18 0 -8 -6 15 -9 7 -31 -11 -31
-6 0 -19 -10 -29 -22 -11 -11 -19 -18 -19 -14 0 4 -10 -2 -22 -13 -11 -11 -25
-18 -30 -15 -4 3 -8 0 -8 -5 0 -6 -3 -10 -7 -9 -5 1 -22 -5 -39 -15 -17 -9
-34 -13 -38 -10 -3 4 -6 2 -6 -4 0 -5 -6 -10 -12 -11 -7 0 -33 -8 -58 -17 -25
-10 -68 -18 -96 -19 -29 0 -47 -4 -40 -8 6 -4 -25 -8 -69 -8 -84 0 -254 28
-236 40 6 3 -4 6 -22 6 -28 0 -167 59 -167 71 0 2 5 1 10 -2 6 -3 10 -1 10 5
0 7 -8 9 -20 5 -12 -4 -20 -2 -20 5 0 6 -4 8 -10 5 -5 -3 -10 -3 -10 2 0 4
-18 19 -40 32 -21 14 -37 28 -34 33 3 4 -1 8 -8 8 -14 0 -73 58 -73 72 0 4 -3
7 -6 6 -8 -4 -59 57 -59 71 0 6 -4 11 -9 11 -5 0 -7 10 -4 23 3 16 2 18 -5 8
-8 -11 -11 -11 -18 0 -4 7 -3 14 4 17 7 2 12 9 12 15 0 8 -3 8 -12 -1 -8 -8
-17 1 -36 41 -13 29 -25 57 -26 62 -2 6 -8 23 -15 40 -23 56 -40 180 -37 270
3 102 22 187 37 164 5 -8 9 -9 9 -4 0 6 -5 16 -11 22 -13 13 8 83 25 83 5 0 7
3 3 6 -3 4 1 21 10 38 10 17 18 33 18 36 4 23 18 50 26 50 5 0 8 6 7 13 -2 6
3 11 11 9 9 -2 11 3 7 13 -3 9 -2 13 4 10 6 -3 10 1 10 10 0 10 5 13 12 9 7
-4 8 -3 4 5 -9 14 12 43 26 35 5 -3 12 3 15 15 3 11 10 18 16 14 5 -3 7 -1 4
5 -4 5 6 21 22 35 17 14 27 28 23 32 -4 5 1 5 10 2 11 -4 17 -2 15 6 -1 7 7
12 18 12 11 0 21 8 23 18 2 9 8 15 13 12 5 -4 9 -1 9 4 0 6 3 10 8 8 4 -1 8 2
9 7 3 18 33 27 54 15 12 -6 19 -7 15 -1 -7 11 5 22 57 51 21 12 35 16 32 10
-4 -6 4 -3 19 6 19 13 30 14 39 7 9 -8 17 -8 27 0 12 8 11 8 -5 3 -14 -4 -17
-3 -10 4 6 6 24 12 40 14 17 2 37 6 45 10 8 3 31 8 50 10 23 2 16 4 -20 5 -30
0 -85 -7 -123 -17z m-152 -81 c-3 -5 -12 -10 -18 -10 -7 0 -6 4 3 10 19 12 23
12 15 0z"/>
<path d="M855 1349 c-4 -6 -5 -12 -2 -15 2 -3 7 2 10 11 7 17 1 20 -8 4z"/>
<path d="M688 1343 c7 -3 16 -2 19 1 4 3 -2 6 -13 5 -11 0 -14 -3 -6 -6z"/>
<path d="M712 1338 c-5 -5 -22 -10 -39 -11 -17 -1 -30 -3 -29 -5 2 -1 -9 -15
-23 -31 -19 -21 -29 -26 -39 -19 -9 8 -11 7 -6 -7 5 -11 3 -16 -3 -12 -5 3 -9
-3 -8 -16 1 -12 -4 -35 -12 -50 -20 -40 -22 -56 -22 -171 -1 -114 2 -147 10
-161 3 -5 12 -32 19 -60 8 -27 22 -65 32 -83 10 -18 15 -38 12 -44 -5 -7 -2
-8 6 -3 10 6 12 4 7 -7 -3 -9 3 -25 14 -37 11 -12 17 -26 13 -33 -5 -7 -3 -8
6 -3 10 6 12 4 6 -11 -4 -10 -4 -15 -1 -12 7 7 59 -47 66 -68 2 -6 25 -29 51
-52 26 -22 44 -43 40 -47 -4 -4 0 -5 8 -3 8 2 15 -4 15 -12 0 -8 6 -14 12 -13
6 2 33 -7 59 -19 33 -14 71 -21 123 -22 40 -1 69 0 62 2 -7 2 -6 8 4 18 8 9
20 12 26 8 7 -4 9 -3 6 3 -7 11 46 66 56 58 4 -3 3 0 -2 7 -7 7 -6 18 0 31 7
13 8 17 1 13 -6 -3 -13 3 -17 14 -3 11 -10 20 -15 20 -5 0 -34 24 -64 53 -55
53 -61 57 -73 57 -4 0 2 7 13 16 17 14 18 15 0 6 -12 -6 -28 -5 -46 4 -23 12
-31 12 -55 0 -20 -10 -34 -12 -46 -5 -15 8 -17 6 -12 -8 6 -16 4 -16 -15 1
-12 11 -22 25 -22 32 0 7 -6 19 -13 26 -21 20 -69 125 -71 152 0 13 -4 22 -7
20 -4 -2 -9 15 -13 39 -3 23 -8 51 -12 63 -4 15 1 23 20 32 19 8 26 8 30 -1 2
-7 5 -4 5 7 1 15 4 16 16 6 13 -11 14 -10 10 2 -3 8 1 21 10 28 10 8 15 32 16
74 1 54 3 57 9 26 5 -22 6 -9 3 36 -3 44 -1 79 6 93 8 14 8 21 1 21 -5 0 -10
6 -10 14 0 8 -9 21 -20 29 -11 8 -18 16 -16 18 3 3 -13 5 -34 5 -22 1 -43 -3
-48 -8z m87 -27 c11 -7 13 -32 7 -133 -8 -135 -14 -149 -72 -168 -18 -6 -36
-20 -39 -30 -19 -59 109 -364 161 -384 8 -3 28 1 44 9 53 27 72 20 169 -66 50
-44 91 -85 91 -91 0 -5 -9 -22 -20 -38 -45 -63 -154 -79 -241 -35 -72 36 -114
72 -175 149 -209 264 -239 671 -59 773 41 23 108 30 134 14z"/>
<path d="M810 1346 c0 -2 8 -10 18 -17 15 -13 16 -12 3 4 -13 16 -21 21 -21
13z"/>
<path d="M136 1218 c3 -5 10 -6 15 -3 13 9 11 12 -6 12 -8 0 -12 -4 -9 -9z"/>
<path d="M776 777 c3 -10 9 -15 12 -12 3 3 0 11 -7 18 -10 9 -11 8 -5 -6z"/>
<path d="M52 660 c0 -14 2 -19 5 -12 2 6 2 18 0 25 -3 6 -5 1 -5 -13z"/>
<path d="M90 543 c0 -6 8 -17 18 -24 16 -13 16 -13 2 6 -8 11 -16 22 -17 24
-2 2 -3 0 -3 -6z"/>
<path d="M120 491 c0 -6 4 -13 10 -16 6 -3 7 1 4 9 -7 18 -14 21 -14 7z"/>
<path d="M806 367 c3 -10 9 -15 12 -12 3 3 0 11 -7 18 -10 9 -11 8 -5 -6z"/>
<path d="M837 339 c7 -7 15 -10 18 -7 3 3 -2 9 -12 12 -14 6 -15 5 -6 -5z"/>
<path d="M717 49 c7 -7 15 -10 18 -7 3 3 -2 9 -12 12 -14 6 -15 5 -6 -5z"/>
</g>
</svg>
