<?xml version="1.0" standalone="no"?>
<!DOCTYPE svg PUBLIC "-//W3C//DTD SVG 20010904//EN"
 "http://www.w3.org/TR/2001/REC-SVG-20010904/DTD/svg10.dtd">
<svg version="1.0" xmlns="http://www.w3.org/2000/svg"
 width="225.000000pt" height="225.000000pt" viewBox="0 0 225.000000 225.000000"
 preserveAspectRatio="xMidYMid meet">
<metadata>
Created by potrace 1.10, written by Peter Selinger 2001-2011
</metadata>
<g transform="translate(0.000000,225.000000) scale(0.100000,-0.100000)"
fill="#000000" stroke="none">
<path d="M1473 1481 c-159 -7 -124 8 -303 -128 -71 -55 -87 -63 -125 -63 -29
0 -62 -10 -101 -30 -52 -28 -67 -31 -168 -34 -215 -6 -302 -45 -534 -239 -92
-76 -169 -143 -170 -148 -7 -18 16 -8 59 26 24 19 51 35 59 35 9 0 80 43 159
96 222 147 352 204 470 204 52 0 62 -3 72 -22 35 -69 74 -118 92 -118 16 0 19
-5 14 -30 -8 -38 10 -40 61 -5 20 14 42 25 47 25 19 0 68 -57 56 -64 -12 -8
-15 -56 -3 -56 4 0 13 14 19 30 12 32 62 60 105 60 16 0 19 3 11 11 -9 9 -20
9 -44 0 -27 -9 -34 -8 -45 7 -17 22 -17 32 -1 32 38 0 157 179 157 236 0 31
-13 30 -58 -5 -45 -36 -133 -81 -144 -75 -20 13 0 34 90 98 124 87 206 127
269 129 26 0 177 -3 335 -8 262 -7 289 -7 313 9 14 9 23 21 20 26 -6 10 -456
11 -712 1z m-94 -35 c-7 -6 -193 -131 -209 -140 -20 -12 -6 1 55 51 72 58 125
93 143 93 8 0 13 -2 11 -4z m-245 -182 c-17 -24 -16 -26 8 -50 l25 -25 76 39
c42 22 77 38 77 35 0 -3 -14 -30 -31 -59 -39 -69 -105 -127 -128 -113 -12 8
-29 4 -70 -18 l-54 -28 -42 40 c-23 22 -52 57 -65 79 -25 41 -25 40 30 70 14
8 51 17 82 21 32 4 65 13 75 21 28 21 35 16 17 -12z m-605 -119 c-9 -9 -181
-115 -186 -115 -14 0 87 73 131 95 48 24 65 30 55 20z m631 -91 c0 -9 -5 -14
-12 -12 -18 6 -21 28 -4 28 9 0 16 -7 16 -16z"/>
</g>
</svg>
