<?xml version="1.0" standalone="no"?>
<!DOCTYPE svg PUBLIC "-//W3C//DTD SVG 20010904//EN"
 "http://www.w3.org/TR/2001/REC-SVG-20010904/DTD/svg10.dtd">
<svg version="1.0" xmlns="http://www.w3.org/2000/svg"
 width="300.000000pt" height="168.000000pt" viewBox="0 0 300.000000 168.000000"
 preserveAspectRatio="xMidYMid meet">
<metadata>
Created by potrace 1.10, written by Peter Selinger 2001-2011
</metadata>
<g transform="translate(0.000000,168.000000) scale(0.100000,-0.100000)"
fill="#000000" stroke="none">
<path d="M33 1670 c2 -8 0 -23 -5 -32 -5 -10 -6 -18 -4 -18 13 0 24 37 15 51
-9 12 -10 12 -6 -1z"/>
<path d="M162 1618 c1 -100 2 -97 -36 -94 -27 3 -33 0 -28 -12 4 -11 2 -13 -8
-7 -9 5 -11 4 -6 -3 4 -7 3 -12 -3 -12 -6 0 -13 -11 -17 -25 -3 -14 -11 -25
-18 -25 -7 0 -7 -3 -1 -8 6 -4 18 -17 28 -28 15 -18 16 -26 6 -48 -7 -14 -16
-26 -21 -26 -11 0 -10 17 2 25 12 7 13 25 3 25 -5 0 -13 -11 -20 -25 -6 -15
-7 -25 -1 -25 5 0 6 -9 3 -20 -4 -14 -2 -20 8 -20 8 0 20 -7 27 -15 7 -8 21
-15 31 -15 11 0 19 -3 19 -7 0 -5 16 -8 35 -8 19 0 35 3 35 8 0 4 7 7 15 7 8
0 15 5 15 10 0 6 5 10 11 10 17 0 36 24 31 40 -4 12 -2 12 8 3 9 -8 10 -16 3
-25 -5 -7 -9 -28 -9 -45 1 -18 -3 -33 -9 -33 -5 0 -4 -5 3 -12 7 -7 12 -17 12
-22 0 -6 -4 -4 -10 4 -10 17 -15 14 -25 -19 -5 -17 -4 -22 5 -16 10 6 11 1 5
-21 -4 -16 -7 -44 -6 -62 1 -21 -4 -34 -14 -38 -22 -9 -30 2 -16 20 8 9 8 16
2 20 -12 8 -25 -30 -16 -45 4 -6 18 -8 31 -5 22 6 34 -7 17 -17 -5 -2 -3 -2 4
-1 21 5 26 -17 7 -32 -18 -14 -18 -15 6 -10 14 3 19 3 13 0 -7 -3 -13 -15 -13
-26 0 -11 5 -18 12 -16 18 6 19 79 3 98 -19 21 -29 67 -16 74 7 5 11 -2 11
-18 0 -14 5 -28 11 -32 8 -5 9 6 4 35 -4 27 -3 41 4 41 6 0 11 4 11 9 0 5 -9
7 -20 4 -25 -7 -25 2 0 34 13 17 17 30 11 37 -11 13 -12 84 -1 91 4 2 15 -4
25 -15 10 -11 24 -20 32 -20 7 0 13 -4 13 -10 0 -5 0 -12 0 -15 0 -3 -3 -4 -7
-2 -5 1 -7 5 -5 10 1 4 -2 7 -8 7 -5 0 -10 -7 -10 -16 0 -8 -4 -12 -10 -9 -5
3 -10 -3 -10 -15 0 -17 3 -19 19 -10 11 5 29 10 40 10 14 0 21 6 21 19 0 11 5
23 10 26 19 12 10 22 -21 23 -41 1 -73 23 -93 67 -61 127 133 227 211 109 37
-57 12 -145 -48 -166 -19 -7 -31 -19 -35 -36 -3 -15 -9 -34 -14 -43 -16 -30
-5 -54 21 -51 23 3 23 3 7 -14 -14 -14 -20 -15 -32 -4 -9 7 -17 10 -17 6 -1
-3 -2 -9 -3 -13 -1 -5 -7 -17 -13 -28 -15 -27 -28 -13 -13 15 11 20 10 21 -9
15 -12 -4 -21 -2 -21 4 0 6 7 11 15 11 9 0 12 6 9 15 -4 8 -1 15 5 15 6 0 11
-4 11 -10 0 -5 5 -10 10 -10 6 0 10 7 10 15 0 16 -36 20 -56 7 -13 -8 -12
-131 1 -152 6 -10 4 -12 -8 -7 -10 3 -17 5 -17 2 0 -7 31 -35 39 -35 14 0 5
71 -10 81 -10 6 -5 9 19 9 25 0 32 4 32 19 0 11 5 23 10 26 7 4 8 -3 4 -22 -4
-15 -11 -29 -16 -31 -4 -2 -8 -13 -8 -24 0 -14 5 -18 16 -14 9 3 19 6 22 6 4
0 0 5 -8 10 -11 7 -7 10 19 10 28 0 33 3 28 20 -4 17 0 20 23 20 51 0 48 -27
-5 -46 -22 -7 -29 -16 -28 -32 3 -26 -23 -30 -30 -4 -4 16 -5 16 -6 0 -1 -21
-17 -24 -24 -5 -3 6 -6 3 -6 -8 -1 -18 6 -20 69 -21 67 -1 70 0 70 22 0 17 5
22 20 19 15 -3 19 1 17 15 -4 25 -17 38 -17 17 0 -10 -5 -17 -11 -17 -6 0 -8
7 -5 16 3 9 6 18 6 20 0 2 6 4 13 4 7 0 13 9 13 20 0 13 -4 16 -10 10 -16 -16
-26 -12 -26 11 0 12 7 27 15 33 21 16 -6 52 -32 41 -10 -5 -26 -7 -37 -6 -11
2 -16 -2 -12 -8 4 -6 18 -11 32 -11 19 0 24 -5 24 -25 0 -19 -5 -25 -22 -25
-30 0 -52 -15 -44 -28 3 -6 1 -14 -5 -18 -6 -3 -15 0 -20 7 -12 19 -11 32 1
24 6 -4 9 -1 8 7 -2 8 4 12 15 10 25 -4 22 34 -5 53 l-23 15 23 6 c12 4 22 12
22 20 0 7 12 14 28 16 20 2 28 9 31 28 3 23 4 24 12 5 6 -17 8 -15 8 10 l1 30
13 -25 c7 -14 19 -25 27 -25 8 -1 14 -6 12 -13 -1 -7 3 -12 9 -12 5 0 7 -4 4
-10 -3 -5 -1 -10 5 -10 6 0 9 12 8 28 -2 21 1 27 17 28 36 2 40 4 22 15 -9 6
-15 14 -12 19 3 5 1 11 -5 15 -22 14 -8 23 20 14 17 -6 30 -15 30 -20 0 -5 5
-9 12 -9 6 0 1 11 -12 25 -28 30 -9 34 20 5 19 -19 40 -26 40 -14 0 4 -8 13
-17 21 -16 13 -16 14 10 8 29 -6 33 0 17 25 -6 10 -10 11 -10 3 0 -7 -4 -13
-10 -13 -5 0 -10 11 -10 24 0 30 -15 41 -55 38 -28 -3 -29 -2 -13 14 16 16 18
16 42 0 22 -14 26 -14 26 -2 0 36 -69 47 -100 16 -35 -35 -26 -49 33 -52 38
-2 52 -7 52 -18 0 -11 -13 -15 -50 -16 l-50 -1 2 -41 c2 -39 0 -42 -23 -42
l-26 0 4 89 c3 101 16 125 73 135 50 10 85 -2 85 -28 0 -11 9 -34 19 -50 17
-25 20 -26 24 -10 3 11 5 3 6 -18 0 -20 7 -38 14 -41 8 -3 3 -11 -13 -25 l-25
-21 23 -1 c12 0 22 -6 22 -14 0 -14 -4 -14 -75 -3 -5 1 -11 -15 -13 -35 -2
-21 -8 -38 -14 -38 -6 0 -8 13 -6 30 3 17 -1 35 -8 41 -9 8 -11 5 -7 -10 3
-11 -2 -30 -11 -43 -15 -20 -16 -21 -16 -3 0 14 -3 16 -11 8 -6 -6 -11 -31
-11 -57 0 -25 -4 -46 -10 -46 -6 0 -8 7 -4 15 3 8 1 15 -3 15 -5 0 -12 -6 -14
-12 -4 -10 -6 -10 -6 -1 -1 6 4 15 9 18 6 3 10 11 10 17 0 7 -5 6 -14 -1 -11
-9 -16 -9 -22 0 -4 7 -3 14 4 17 6 2 8 10 5 18 -5 13 -9 12 -24 -5 -22 -24
-25 -43 -5 -35 18 7 28 -34 11 -44 -10 -6 -10 -9 1 -20 12 -11 14 -10 14 3 0
8 5 15 11 15 7 0 9 -10 5 -25 -5 -18 -2 -25 9 -25 8 0 15 -7 15 -15 0 -8 -5
-15 -11 -15 -5 0 -7 -4 -4 -10 6 -9 -8 -14 -27 -11 -12 2 -9 -17 3 -25 8 -4 7
-9 -2 -15 -11 -7 -10 -9 4 -10 30 -3 35 -4 43 -11 4 -5 -23 -8 -60 -8 -63 0
-67 -1 -61 -20 5 -15 2 -20 -12 -20 -15 0 -15 -2 -4 -9 8 -5 16 -19 18 -30 2
-17 -2 -21 -22 -21 -15 0 -25 6 -25 14 0 9 -7 12 -18 9 -15 -4 -19 1 -20 27
-1 27 2 31 19 27 11 -3 19 0 19 8 0 9 -16 13 -52 13 -29 0 -60 3 -68 6 -12 5
-15 -3 -14 -47 0 -29 3 -58 7 -63 3 -6 2 -16 -3 -23 -4 -8 -4 -27 0 -42 5 -17
5 -31 -1 -35 -5 -3 -6 -11 -2 -17 4 -7 8 -16 9 -22 0 -5 2 -16 2 -22 1 -7 6
-13 11 -13 10 0 8 231 -3 248 -9 15 23 16 44 2 10 -7 12 -12 4 -17 -13 -10
-16 -130 -3 -138 5 -4 9 -11 9 -16 0 -6 -4 -7 -10 -4 -5 3 -10 2 -10 -4 0 -6
14 -14 31 -18 30 -8 38 -30 9 -26 -8 2 -6 -2 6 -8 18 -9 21 -19 20 -80 -1 -38
2 -69 7 -69 8 0 11 32 8 106 -1 45 1 52 20 57 12 3 18 10 14 17 -4 6 -13 9
-21 6 -9 -3 -14 1 -15 12 0 10 -3 12 -6 5 -7 -19 -31 -16 -43 6 -13 25 -13 64
0 56 6 -3 10 -1 10 4 0 6 6 11 13 11 8 0 12 -11 11 -29 -2 -28 -1 -28 33 -21
45 11 55 21 14 15 -25 -3 -31 0 -31 16 0 10 0 22 0 26 0 4 10 7 23 7 14 0 22
-6 21 -17 -2 -20 -2 -20 30 -6 13 6 27 21 30 33 5 19 4 20 -8 4 -25 -34 -37
-21 -32 33 4 50 16 80 16 43 1 -18 1 -18 11 -1 12 21 29 22 29 1 0 -8 -4 -12
-10 -9 -5 3 -10 2 -10 -4 0 -5 9 -13 20 -16 22 -7 28 -25 8 -25 -6 0 -8 -3 -5
-6 8 -8 37 14 37 27 0 5 -7 9 -15 9 -8 0 -15 7 -15 15 0 24 40 18 50 -7 5 -13
9 -17 9 -10 1 7 15 12 36 12 21 0 35 -5 35 -12 0 -10 3 -9 9 1 7 11 9 11 13 0
4 -12 7 -12 21 0 10 7 17 10 17 6 0 -4 6 -2 14 4 10 8 16 9 21 1 10 -16 38
-12 31 5 -3 10 1 15 13 15 10 0 21 -7 25 -15 3 -8 2 -15 -3 -15 -5 0 -7 -27
-6 -61 2 -64 -10 -84 -32 -54 -7 11 -13 14 -13 7 0 -16 -58 -45 -76 -38 -9 3
-12 1 -9 -4 3 -6 2 -10 -4 -10 -14 0 -18 29 -10 80 4 25 3 49 -2 55 -6 5 -9 2
-9 -8 0 -9 -4 -17 -9 -17 -5 0 -17 -3 -26 -6 -13 -5 -15 -1 -10 25 6 33 1 39
-18 18 -15 -16 -21 -40 -7 -32 5 3 10 -3 10 -14 0 -16 5 -18 29 -15 26 4 28 3
23 -21 -3 -20 -7 -23 -18 -14 -10 8 -14 8 -14 0 0 -6 -4 -11 -10 -11 -5 0 -7
7 -4 15 4 10 0 15 -11 15 -16 0 -16 -2 -1 -25 12 -19 13 -25 3 -25 -7 0 -13
-9 -14 -20 -1 -13 4 -20 16 -20 12 0 17 7 17 23 -1 16 5 22 19 22 13 0 21 -8
23 -22 2 -13 -2 -23 -8 -23 -17 0 -70 -39 -70 -51 0 -6 5 -7 11 -4 6 4 5 -2
-3 -14 -7 -12 -23 -21 -35 -21 -35 0 -36 -17 0 -23 17 -2 34 0 35 5 2 5 15 22
29 38 14 17 20 30 14 30 -6 0 -11 5 -11 10 0 6 11 8 25 4 14 -3 25 -2 25 3 0
11 76 53 96 53 8 0 14 -7 14 -15 0 -8 -8 -15 -18 -15 -26 0 -108 -54 -128 -85
-13 -20 -14 -29 -5 -38 8 -8 11 -7 11 7 0 17 36 55 53 56 16 0 6 -19 -13 -25
-21 -7 -28 -49 -10 -60 6 -3 10 -19 10 -36 0 -16 5 -29 10 -29 6 0 10 -7 10
-15 0 -19 -16 -20 -23 -1 -6 15 -47 29 -47 15 0 -5 -4 -9 -10 -9 -6 0 -8 21
-6 50 3 28 1 50 -3 50 -8 0 -30 -74 -32 -115 -3 -45 12 -135 22 -135 5 0 9 -7
9 -15 0 -12 13 -15 63 -13 51 1 54 2 17 5 -63 5 -82 14 -50 23 25 8 25 8 -5
11 -16 1 2 5 40 9 l70 6 -70 3 c-38 1 -64 5 -57 8 6 2 12 10 12 15 0 6 -3 8
-7 5 -11 -11 -33 14 -32 37 0 21 0 21 11 -1 11 -23 48 -32 48 -13 0 14 47 12
54 -2 4 -7 4 -2 2 11 -5 23 -4 23 12 8 15 -15 15 -18 1 -33 -14 -13 -18 -13
-30 -1 -12 11 -17 12 -27 1 -14 -15 -16 -28 -3 -20 12 8 93 -8 91 -17 -1 -5
11 -22 26 -38 34 -36 23 -38 -18 -4 -19 16 -41 25 -61 24 -31 -1 -31 -1 6 -9
21 -4 46 -15 55 -25 16 -17 16 -17 -2 -11 -19 7 -19 6 -1 -14 10 -11 13 -20 8
-20 -6 0 -16 7 -23 15 -14 17 -85 21 -95 5 -14 -23 62 -89 86 -75 5 4 9 2 9
-3 0 -11 47 -29 70 -27 8 1 29 3 46 3 20 1 31 7 31 17 0 8 -7 15 -14 15 -8 0
-12 4 -9 9 3 5 -1 14 -9 21 -8 7 -13 16 -10 20 3 5 1 11 -5 15 -6 4 -8 10 -5
14 2 5 -5 17 -18 27 -18 16 -19 16 -8 2 16 -22 -1 -24 -19 -3 -7 8 -9 15 -5
15 5 0 0 9 -9 19 -11 12 -15 27 -12 38 4 14 -2 25 -23 40 -22 17 -27 28 -24
47 4 17 1 26 -7 26 -9 0 -10 11 -6 38 4 20 8 55 10 78 3 46 13 67 27 58 5 -3
18 0 27 8 16 12 16 11 2 -6 -8 -10 -13 -31 -12 -47 2 -16 -1 -29 -7 -29 -6 0
-12 6 -12 13 -1 6 -5 -4 -9 -23 -5 -19 -12 -46 -16 -59 -5 -17 -4 -22 4 -17 6
4 14 23 18 42 5 25 11 34 21 30 8 -3 17 -6 19 -6 2 0 5 -15 5 -32 l1 -33 7 30
c5 20 3 36 -6 46 -15 18 -18 69 -4 69 5 0 8 -14 7 -31 0 -20 4 -34 14 -37 12
-4 13 -2 3 9 -14 18 -11 71 6 77 6 2 11 13 11 25 -1 22 -1 22 -15 3 -14 -19
-15 -19 -15 7 0 25 2 26 48 24 l47 -3 1 47 c2 48 27 104 51 113 24 10 43 -6
43 -34 0 -32 -14 -47 -26 -28 -4 6 -2 14 4 16 16 5 5 22 -14 22 -8 0 -13 -4
-10 -9 4 -5 0 -11 -6 -14 -10 -3 -10 -7 1 -20 17 -22 47 -22 59 -1 5 9 14 14
21 10 22 -14 -16 -36 -61 -36 -37 0 -44 -3 -44 -19 0 -18 6 -19 48 -15 44 5
48 4 48 -15 0 -19 -21 -28 -54 -22 -24 5 -56 -11 -56 -27 0 -10 -3 -13 -8 -6
-4 6 -17 13 -28 16 -18 5 -23 0 -29 -26 -11 -45 -13 -246 -3 -252 4 -3 8 -15
8 -26 0 -12 8 -30 17 -40 19 -22 28 -58 13 -58 -9 0 -14 14 -12 32 1 3 -5 12
-13 18 -8 7 -15 22 -15 34 0 12 -6 28 -12 34 -7 7 -13 18 -14 25 0 7 -2 23 -3
37 -1 20 -3 22 -11 10 -8 -12 -10 -12 -11 5 -1 16 -2 15 -8 -5 -10 -35 -2 -59
25 -77 14 -9 24 -25 24 -39 0 -30 -17 -31 -23 -2 -4 22 -4 22 -6 2 -1 -14 14
-33 46 -58 25 -20 40 -36 33 -36 -9 0 -10 -3 -1 -14 9 -11 9 -15 -1 -18 -8 -3
-6 -7 5 -11 9 -3 17 -2 17 3 0 6 5 10 11 10 6 0 9 -9 6 -20 -4 -17 0 -20 31
-19 l37 1 -30 8 c-30 8 -30 8 8 9 37 1 48 -11 25 -26 -7 -4 -25 -6 -40 -4 -20
2 -28 -2 -28 -13 0 -10 9 -16 24 -16 13 0 33 -3 43 -6 15 -5 15 -4 3 5 -9 7
-10 11 -3 11 6 0 15 -4 18 -10 3 -5 14 -10 23 -10 14 1 13 4 -5 19 -13 11 -23
22 -23 26 0 4 6 2 14 -4 8 -6 20 -10 27 -9 9 2 13 -4 11 -14 -2 -10 2 -18 8
-18 5 0 10 5 10 11 0 5 5 7 11 3 6 -3 15 0 20 7 7 11 9 10 9 -3 0 -24 65 -25
88 -1 16 16 17 16 20 0 7 -35 22 -15 22 27 0 37 -5 48 -30 69 -17 14 -30 28
-30 31 0 14 21 4 45 -21 l26 -28 -11 29 c-14 39 1 52 31 26 22 -19 22 -20 4
-18 -11 2 -19 -2 -18 -9 1 -6 3 -36 4 -67 1 -31 6 -56 10 -56 5 0 8 27 6 60
-3 56 1 65 26 61 29 -4 -57 79 -110 108 -13 6 -23 19 -23 28 0 11 3 13 13 5
10 -9 12 9 9 89 -4 88 -3 99 12 93 9 -3 16 -1 16 5 0 6 -7 11 -15 11 -27 0
-16 34 21 63 44 36 39 45 -9 15 l-36 -23 -1 -100 c-1 -92 -2 -98 -16 -80 -14
19 -15 17 -12 -30 2 -27 8 -56 12 -64 7 -11 5 -13 -9 -7 -18 7 -18 6 0 -14 14
-15 15 -20 4 -20 -11 0 -11 -2 1 -10 8 -5 11 -10 6 -10 -5 0 -3 -7 4 -15 14
-17 0 -21 -16 -5 -16 16 -43 1 -39 -21 4 -20 -9 -26 -20 -9 -3 6 -2 10 4 10 5
0 8 9 6 20 -3 15 1 20 13 18 13 -2 17 4 15 27 -1 17 -3 101 -4 188 -1 106 -5
155 -12 148 -9 -9 -10 -54 -4 -239 2 -51 -2 -60 -17 -44 -4 4 -13 7 -19 7 -8
0 -13 36 -14 118 -1 114 1 123 30 118 4 0 7 4 7 9 0 6 -5 10 -11 10 -5 0 -7 5
-4 10 3 6 1 10 -4 10 -6 0 -11 -7 -11 -15 0 -9 -9 -15 -25 -15 -15 0 -25 -6
-25 -14 0 -7 -7 -19 -15 -26 -17 -14 -20 -50 -5 -50 5 0 7 7 4 15 -4 8 -1 15
4 15 6 0 13 -24 15 -52 3 -46 4 -44 5 19 1 39 6 74 11 78 6 3 8 -31 6 -87 -2
-51 1 -100 5 -109 12 -21 1 -32 -16 -18 -8 7 -11 21 -8 34 4 15 0 24 -10 28
-10 4 -13 13 -9 24 3 10 3 15 -2 11 -17 -16 -13 -63 6 -84 l20 -21 -23 -7
c-13 -3 -25 -6 -28 -6 -12 0 -2 201 10 215 10 12 10 15 -3 15 -8 0 -17 7 -21
15 -6 17 9 21 19 5 3 -5 12 -10 18 -9 9 0 8 2 -1 6 -6 2 -10 9 -6 14 7 12 -37
11 -56 -1 -13 -8 -12 -10 3 -10 15 0 17 -13 17 -125 l0 -125 26 -10 c21 -9 29
-7 40 7 12 17 13 17 14 1 0 -14 4 -16 25 -8 29 11 41 -2 20 -23 -12 -12 -12
-17 -1 -26 14 -12 10 -64 -5 -55 -5 3 -7 9 -4 14 3 5 0 12 -7 17 -7 4 -18 17
-24 28 -7 12 -22 20 -37 20 -29 1 -56 20 -67 50 -8 19 -9 19 -9 -3 -1 -12 6
-25 14 -28 8 -4 15 -11 15 -16 0 -6 -7 -8 -15 -4 -8 3 -15 1 -15 -4 0 -5 23
-10 52 -12 32 -2 53 -8 56 -16 3 -11 0 -12 -16 -3 -34 18 -39 12 -7 -7 17 -11
36 -26 43 -34 19 -23 -4 -34 -27 -14 -12 11 -34 15 -67 14 -38 -1 -41 -2 -14
-5 63 -6 80 -13 80 -31 0 -19 30 -57 52 -65 7 -2 10 -8 5 -12 -4 -5 -19 2 -34
16 -21 19 -25 20 -20 6 5 -13 3 -17 -5 -15 -8 3 -13 21 -13 44 l0 39 -50 2
c-41 1 -45 0 -19 -6 60 -15 73 -35 24 -37 -27 -1 -28 0 -12 12 15 12 12 13
-25 14 -42 0 -53 14 -28 33 6 4 5 10 -3 15 -7 5 16 7 50 6 l63 -3 -55 10 c-56
10 -72 21 -63 48 4 14 3 14 -6 1 -14 -20 -22 -9 -26 41 -2 24 -6 61 -9 82 -3
31 -1 37 15 37 10 0 19 5 19 11 0 6 -9 8 -21 4 -20 -7 -21 -5 -13 36 4 24 7
54 6 67 -1 12 2 22 7 22 21 0 41 -13 41 -27 0 -9 -6 -13 -14 -10 -10 4 -13 1
-9 -9 3 -7 9 -14 15 -14 5 0 7 -4 4 -8 -2 -4 4 -13 15 -20 11 -7 19 -8 19 -2
0 5 -5 10 -11 10 -8 0 -7 6 2 17 10 11 10 14 2 9 -10 -5 -13 3 -13 29 0 38 3
40 63 49 28 3 37 1 37 -10 0 -8 9 -14 23 -13 14 1 16 3 6 6 -10 2 -16 15 -16
33 0 22 3 27 12 20 7 -6 21 -7 30 -3 15 5 17 3 12 -12 -6 -14 -5 -16 7 -6 8 6
20 10 27 9 7 -2 13 2 14 9 0 16 15 29 16 15 1 -7 2 -17 3 -22 0 -6 7 -14 14
-19 10 -6 10 -10 -3 -21 -17 -14 -21 -65 -4 -55 6 4 8 13 5 21 -3 9 24 38 75
80 l80 67 -28 18 c-34 23 -44 24 -37 4 4 -10 2 -13 -8 -10 -9 4 -14 16 -12 30
2 22 -1 24 -22 19 -20 -5 -24 -2 -24 15 0 12 6 21 15 21 8 0 15 -4 15 -10 0
-5 7 -7 16 -3 9 3 20 0 24 -7 4 -7 16 -9 29 -5 21 6 29 25 11 25 -5 0 -10 -5
-10 -12 0 -6 -2 -9 -5 -6 -9 8 6 38 16 32 5 -3 9 7 9 23 0 15 5 35 11 43 7 10
9 -25 7 -118 -2 -72 0 -132 5 -132 8 0 10 14 7 48 -1 12 4 22 10 22 7 0 10 -8
7 -20 -3 -11 -1 -20 4 -20 5 0 9 7 9 16 0 8 5 12 10 9 14 -9 13 -48 -2 -43 -6
2 -27 -11 -47 -29 -71 -65 -83 -74 -89 -69 -5 6 31 41 58 56 8 5 12 12 8 16
-4 4 -29 -11 -55 -32 -30 -24 -42 -40 -33 -42 12 -2 14 -20 12 -95 -2 -56 -8
-95 -15 -99 -13 -8 58 -77 79 -78 19 0 27 -29 31 -114 5 -76 4 -79 -16 -73
-13 3 -21 0 -21 -8 0 -7 11 -15 25 -17 20 -4 25 -1 25 15 0 15 3 17 14 8 11
-9 12 -2 8 40 -4 42 -1 53 17 70 36 34 26 149 -13 149 -5 0 -2 -8 7 -18 19
-21 23 -62 6 -62 -6 0 -8 8 -5 18 4 11 -1 25 -12 35 -16 15 -18 31 -15 133 2
67 8 123 14 130 13 16 1 18 -20 5 -11 -7 -14 -34 -12 -126 2 -92 0 -116 -10
-113 -10 3 -13 27 -10 92 2 62 0 86 -8 82 -6 -4 -11 -37 -11 -77 0 -40 -4 -68
-9 -65 -5 4 -7 31 -5 63 2 31 -1 63 -6 72 -6 11 -9 -8 -10 -60 0 -66 3 -78 23
-97 13 -12 28 -22 34 -22 6 0 13 -7 17 -15 3 -8 12 -15 21 -15 8 0 15 -4 15
-10 0 -15 -16 -12 -30 5 -7 8 -18 15 -24 15 -7 0 -25 14 -42 31 -27 28 -29 36
-29 106 l0 75 60 46 c33 25 63 51 67 56 15 23 19 -24 4 -53 -11 -21 -16 -54
-14 -113 l1 -83 6 87 c4 48 12 93 19 100 6 6 12 31 12 55 0 24 3 43 8 43 4 0
5 -25 4 -55 -2 -30 -8 -55 -13 -55 -5 0 -9 -25 -9 -56 0 -34 4 -53 10 -49 5 3
8 24 6 45 -2 23 2 47 10 57 19 26 19 123 -1 123 -8 0 -15 4 -15 10 0 5 8 7 18
3 15 -6 15 -4 -2 15 -20 23 -31 98 -15 108 5 3 8 0 7 -8 -2 -7 4 -12 14 -10
12 2 16 -2 12 -13 -3 -8 -1 -15 5 -15 6 0 11 11 11 25 0 15 -6 25 -14 25 -42
0 -65 88 -28 109 14 8 15 12 5 22 -7 7 -13 26 -13 43 0 23 -3 27 -12 18 -15
-15 -32 -16 -23 -2 3 5 31 22 62 36 44 21 64 25 100 20 58 -8 64 -12 57 -40
-4 -19 -1 -25 20 -30 18 -4 26 -13 26 -29 0 -16 -3 -18 -9 -9 -6 10 -10 9 -14
-7 -3 -12 1 -28 9 -36 8 -8 14 -27 13 -42 -2 -45 13 -153 22 -159 4 -2 6 -11
2 -20 -4 -11 -9 -12 -19 -3 -8 6 -11 16 -7 22 3 5 1 7 -4 4 -7 -5 -10 22 -8
81 1 60 -2 94 -12 109 -7 13 -11 34 -7 46 8 36 -41 75 -91 71 -44 -4 -58 -14
-53 -40 2 -15 14 -20 51 -22 27 -2 55 2 63 9 11 9 14 8 14 -5 0 -10 -4 -15 -9
-12 -5 3 -12 -1 -15 -10 -9 -23 -8 -27 8 -21 8 3 17 -1 20 -9 9 -24 7 -27 -8
-15 -11 10 -15 8 -19 -6 -4 -14 -5 -13 -6 5 -1 19 -7 22 -42 22 -71 0 -105
-36 -58 -61 21 -11 87 -8 120 5 19 8 35 -22 20 -37 -5 -5 -36 -11 -69 -14 -59
-6 -61 -6 -60 -34 1 -16 5 -29 10 -29 4 0 3 -9 -4 -20 -10 -15 -10 -22 0 -32
7 -7 12 -37 12 -69 0 -38 5 -61 15 -69 21 -17 21 -181 0 -213 -19 -30 -15
-144 5 -157 9 -6 17 -5 21 2 15 24 27 -6 24 -62 -2 -33 1 -63 6 -66 5 -3 9 32
9 79 0 76 2 85 18 81 10 -3 42 16 85 51 37 30 67 54 68 53 7 -25 6 -45 -2 -54
-7 -8 -6 -14 1 -19 12 -8 -15 -45 -33 -45 -6 0 -2 9 7 19 12 13 14 21 6 26 -8
5 -8 11 1 21 33 39 -39 -7 -99 -64 -13 -12 -28 -20 -33 -17 -5 4 -8 -12 -7
-37 1 -37 2 -38 5 -10 6 49 23 38 23 -14 0 -40 -2 -45 -15 -34 -12 10 -15 10
-15 -3 0 -15 28 -32 38 -22 3 3 4 30 3 61 -2 47 2 61 20 80 26 28 48 33 28 7
-11 -16 -11 -16 1 -5 8 7 15 18 15 24 0 6 5 13 12 15 14 5 11 -20 -5 -39 -6
-8 -9 -18 -5 -22 4 -4 -5 -5 -20 -2 l-27 5 0 -65 c0 -40 4 -63 10 -59 5 3 8
28 7 56 -2 27 0 52 5 55 4 3 8 -3 8 -13 0 -15 2 -14 16 5 8 12 20 22 25 22 6
0 1 -12 -11 -27 -13 -17 -19 -35 -16 -49 4 -13 1 -26 -4 -29 -11 -7 -4 -25 10
-25 5 0 10 24 12 53 3 44 6 52 23 52 12 0 19 -6 17 -14 -1 -7 2 -19 9 -27 6
-8 8 -25 5 -39 -4 -14 -2 -25 4 -25 5 0 10 15 10 33 0 33 31 72 46 59 4 -4 4
-2 0 5 -3 6 -2 14 4 18 6 4 8 11 5 16 -3 5 0 6 8 3 22 -8 16 -34 -15 -55 -19
-14 -28 -29 -28 -48 l0 -27 131 3 c112 2 135 6 159 23 40 28 51 24 15 -5 -16
-14 -25 -25 -19 -25 23 0 80 25 99 43 13 13 15 18 5 15 -11 -4 -16 3 -17 26
-1 17 -4 44 -5 61 -2 23 1 30 17 33 15 2 17 1 6 -6 -9 -6 -10 -12 -3 -16 13
-8 31 23 25 41 -3 7 9 13 29 16 l33 4 -31 1 c-22 2 -33 8 -37 22 -5 18 -1 20
40 16 43 -5 45 -4 39 20 -5 18 -2 24 10 24 10 0 14 -5 10 -15 -3 -8 -1 -15 5
-15 19 0 21 32 6 78 l-16 47 0 -42 c-1 -31 -5 -43 -16 -43 -8 0 -15 -9 -15
-19 0 -14 -6 -19 -20 -18 -18 1 -18 3 6 28 18 19 27 41 30 77 4 48 3 53 -33
89 -44 44 -75 63 -102 63 -11 0 -22 6 -24 13 -4 9 -6 9 -6 0 -1 -7 -8 -10 -16
-7 -22 9 -18 -9 5 -29 26 -22 48 -23 30 -2 -10 12 -9 15 5 15 13 0 16 -6 11
-24 -4 -17 -1 -26 10 -30 13 -5 15 -1 10 19 -4 14 -2 25 4 25 10 0 13 -19 12
-73 0 -15 4 -25 9 -22 5 3 6 -1 3 -9 -3 -9 -1 -16 5 -16 6 0 11 -13 11 -30 0
-38 -17 -39 -23 -3 -3 16 -5 3 -4 -28 0 -30 -3 -60 -6 -66 -4 -6 -1 -13 5 -16
10 -3 10 -7 1 -19 -10 -11 -10 -17 -1 -26 9 -9 7 -12 -8 -12 -20 0 -30 29 -14
40 10 7 0 70 -10 70 -5 0 -7 -12 -6 -27 2 -16 1 -32 -2 -37 -8 -14 -9 -55 -1
-51 3 2 6 -18 5 -45 0 -28 -4 -50 -10 -50 -7 0 -6 -3 1 -8 12 -8 12 -36 0 -48
-7 -8 -11 10 -7 36 1 11 -4 9 -22 -6 -12 -12 -34 -27 -48 -34 -22 -12 -23 -11
-13 2 19 22 6 28 -56 26 l-56 -1 60 -7 c65 -7 68 -7 -57 -14 -16 -1 -33 -7
-39 -13 -6 -6 -18 -9 -26 -6 -11 5 -11 9 3 24 10 11 12 19 6 19 -7 0 -12 5
-12 10 0 6 7 10 16 10 8 0 13 -4 10 -9 -4 -5 0 -12 6 -14 10 -4 10 -6 1 -6 -7
-1 -13 -6 -13 -12 0 -8 4 -8 14 0 19 16 27 63 13 80 -7 8 -11 17 -9 20 2 3 -5
8 -15 10 -10 2 -15 0 -11 -4 8 -9 -9 -35 -22 -35 -10 0 -8 20 3 38 5 7 4 12
-2 12 -6 0 -10 3 -9 7 2 5 -1 9 -7 10 -5 1 -9 -6 -9 -16 1 -12 -4 -17 -11 -14
-17 6 -13 27 8 51 19 20 23 37 7 27 -9 -5 -12 3 -12 25 0 3 -9 14 -19 24 -14
14 -19 16 -18 5 1 -18 17 -57 18 -44 1 6 5 4 10 -4 7 -11 -3 -26 -36 -56 -38
-36 -43 -43 -28 -49 11 -4 25 0 35 9 14 13 18 13 23 2 10 -26 -26 -36 -61 -18
-33 17 -33 17 -13 35 11 10 18 22 15 27 -2 4 4 13 15 19 11 5 19 19 18 29 0
11 -5 17 -9 15 -4 -3 -8 60 -8 140 0 125 2 145 15 140 18 -7 19 -16 4 -31 -8
-8 -8 -17 0 -32 10 -17 14 -19 25 -9 12 11 11 14 -5 16 -24 4 -24 8 1 34 22
24 40 18 20 -7 -17 -20 -3 -19 18 2 11 11 13 18 5 20 -6 2 -9 13 -6 23 3 11 9
17 14 14 5 -3 9 0 9 7 0 8 9 5 23 -7 12 -10 16 -12 10 -4 -20 22 -15 31 12 24
19 -5 25 -2 25 11 0 13 6 16 24 11 20 -5 24 -2 23 14 -1 14 -8 20 -25 20 -13
0 -21 4 -17 10 3 5 12 7 20 4 14 -6 14 7 0 38 -4 10 -10 16 -14 14 -4 -3 -13
-1 -21 5 -12 7 -9 9 10 9 20 0 22 2 10 10 -8 5 -10 10 -5 10 27 0 51 -42 64
-112 8 -43 6 -48 -13 -54 -11 -4 -33 -7 -48 -6 -16 0 -28 -4 -28 -9 0 -5 15
-9 34 -9 19 0 38 -5 41 -10 4 -6 6 -76 6 -156 0 -128 2 -144 15 -133 8 7 11
15 7 18 -4 3 -6 66 -3 140 5 121 6 132 20 116 12 -15 12 -17 1 -10 -9 5 -12 4
-7 -3 4 -6 14 -8 23 -5 12 5 15 2 11 -9 -4 -9 -1 -21 5 -27 8 -8 5 -11 -11
-11 -21 0 -22 -4 -20 -72 1 -42 3 -57 5 -35 3 24 9 37 16 34 7 -2 11 -13 9
-23 -2 -18 -2 -18 8 -1 12 19 5 37 -14 37 -8 0 -13 11 -13 24 0 18 6 26 24 31
20 5 23 9 13 20 -6 8 -9 19 -5 25 3 5 1 10 -4 10 -6 0 -11 12 -11 27 0 19 -3
24 -11 16 -5 -5 -21 -8 -35 -5 -45 8 -8 30 54 31 41 0 66 -5 87 -19 17 -11 38
-20 48 -20 9 0 17 -7 17 -17 0 -9 3 -14 6 -10 7 7 52 -45 83 -96 19 -32 23
-53 24 -124 0 -64 3 -80 9 -62 5 13 8 48 6 77 -2 28 2 54 7 56 6 3 5 5 -1 5
-6 1 -22 28 -34 61 -15 39 -28 60 -39 60 -14 0 -14 2 -1 11 13 9 12 10 -2 5
-12 -3 -22 2 -29 17 -7 12 -21 28 -31 35 -10 7 -15 18 -12 24 4 6 0 6 -14 -1
-23 -12 -72 6 -72 28 0 10 -3 11 -14 2 -19 -16 -70 -25 -61 -11 3 5 0 10 -8
10 -17 0 -32 73 -17 78 6 2 0 13 -12 23 l-23 20 24 -7 c15 -4 21 -2 17 4 -8
14 63 3 83 -12 11 -8 13 -8 7 2 -4 6 -3 12 3 12 5 0 11 -6 14 -12 3 -10 7 -10
17 -1 10 9 7 13 -14 19 -28 7 -38 44 -11 44 8 0 15 -5 15 -12 0 -20 31 -47 48
-41 10 4 13 2 8 -5 -4 -7 -2 -12 3 -12 6 0 11 6 11 13 0 8 4 7 10 -3 7 -11 10
-5 10 23 0 20 5 37 11 37 5 0 7 -4 4 -10 -3 -5 3 -10 15 -10 18 0 19 2 8 13
-7 8 -20 16 -28 20 -8 3 0 6 18 6 22 1 31 -3 26 -10 -4 -8 1 -9 17 -4 19 5 21
4 9 -4 -11 -8 -12 -13 -4 -18 7 -5 14 -19 17 -33 2 -14 5 -3 6 25 2 61 16 89
32 63 5 -10 17 -18 25 -18 8 0 12 -5 9 -10 -4 -6 -15 -8 -26 -5 -14 5 -17 2
-13 -9 4 -11 12 -13 29 -6 16 6 27 6 31 -2 5 -7 3 -8 -6 -3 -8 5 -11 3 -8 -6
2 -7 15 -16 29 -20 23 -7 23 -7 2 -8 -13 -1 -23 -6 -23 -11 0 -9 27 -7 68 6 7
2 11 0 8 -4 -2 -4 16 -7 40 -8 26 -1 41 3 37 9 -3 6 -1 7 6 3 15 -10 71 15 71
31 0 7 5 13 11 13 6 0 9 -6 6 -12 -2 -7 3 -18 12 -25 11 -9 12 -12 3 -13 -7 0
-10 -5 -7 -10 3 -6 1 -10 -6 -10 -7 0 -9 -3 -6 -7 4 -3 16 3 27 15 12 12 27
22 35 22 17 0 39 36 30 50 -3 5 -1 12 5 15 15 9 42 -15 36 -32 -3 -7 0 -13 7
-13 7 0 18 -5 25 -12 30 -30 110 2 85 34 -6 7 -9 23 -8 35 1 14 -3 19 -12 16
-7 -3 -13 -1 -13 5 0 5 7 12 15 16 9 3 12 12 8 22 -5 13 -3 15 7 9 10 -6 12
-2 8 19 -3 14 -1 26 5 26 5 0 4 6 -2 14 -9 11 -9 15 1 18 10 4 11 8 1 20 -7 8
-9 19 -5 24 4 4 0 3 -9 -4 -13 -10 -19 -8 -34 8 -22 24 -73 37 -140 34 -75 -3
-77 -3 -70 -13 3 -5 1 -12 -3 -15 -11 -6 -62 16 -62 26 0 4 -6 5 -14 2 -11 -4
-14 7 -15 57 0 39 5 66 12 71 9 6 8 8 -3 8 -13 0 -13 1 0 10 12 8 11 10 -7 10
-21 0 -22 -4 -20 -80 2 -77 1 -80 -20 -80 -27 0 -30 15 -5 29 16 9 16 10 -2
17 -10 4 -21 2 -25 -5 -12 -18 -61 -2 -95 30 -17 15 -34 26 -38 23 -15 -10 -8
-21 27 -40 19 -10 35 -25 35 -32 0 -9 10 -12 32 -10 18 2 33 -2 35 -9 3 -9 -8
-12 -41 -10 -50 3 -54 0 -31 -17 11 -8 12 -15 4 -26 -9 -12 -10 -12 -5 3 4 12
2 17 -6 14 -7 -2 -12 -12 -12 -21 1 -9 -2 -16 -7 -16 -5 0 -9 12 -9 26 0 21
-4 24 -20 19 -13 -4 -21 -2 -22 7 0 7 -2 18 -3 23 -2 6 -3 20 -4 33 -1 14 -5
20 -12 17 -6 -4 -8 -13 -5 -21 3 -8 -1 -14 -9 -14 -8 0 -15 -4 -15 -10 0 -5
-4 -10 -10 -10 -5 0 -10 7 -10 15 0 8 7 15 15 15 8 0 15 5 15 10 0 17 -15 11
-50 -20 -20 -18 -45 -30 -61 -30 -15 0 -37 -9 -50 -20 -13 -11 -19 -19 -14
-18 11 3 15 -4 15 -27 0 -8 -4 -15 -10 -15 -5 0 -10 7 -10 15 0 8 -3 14 -7 14
-22 -4 -22 4 -2 32 23 32 35 114 19 124 -6 3 -10 11 -10 16 0 6 5 7 10 4 6 -3
10 1 10 9 0 9 0 19 0 23 0 4 -7 8 -15 9 -11 2 -15 -3 -11 -12 3 -8 1 -14 -4
-14 -11 0 -1 -32 13 -41 5 -4 6 -12 2 -19 -6 -9 -10 -9 -17 1 -7 10 -8 8 -2
-6 10 -27 8 -65 -4 -77 -7 -7 -27 -6 -63 3 -44 12 -49 15 -28 20 l24 7 -24 1
c-14 1 -32 -6 -42 -15 -10 -9 -25 -14 -34 -10 -24 9 -10 23 30 30 20 4 33 11
30 15 -2 5 2 14 10 21 8 7 12 17 8 23 -3 5 -2 7 4 4 5 -3 10 1 10 9 0 9 -11
21 -24 27 -18 8 -27 7 -41 -6 -10 -10 -22 -14 -25 -10 -13 12 -7 22 16 25 12
2 21 9 20 15 -2 7 9 10 28 8 24 -3 28 -1 21 8 -18 21 -59 19 -65 -3 -4 -15
-15 -19 -58 -22 -57 -3 -70 -16 -43 -43 17 -17 59 -17 112 0 18 6 22 4 22 -14
0 -14 -8 -22 -27 -27 -16 -3 -34 -8 -42 -10 -24 -8 -79 7 -100 27 -27 25 -27
53 -1 77 18 17 19 20 5 32 -23 19 -18 57 10 76 46 30 145 26 145 -6 0 -22 -25
-44 -42 -37 -8 3 -6 6 5 6 10 1 15 6 12 11 -10 16 -81 12 -95 -5 -17 -21 4
-45 40 -45 41 0 93 12 82 19 -5 3 2 17 15 31 15 15 22 19 18 9 -4 -10 -1 -20
6 -25 8 -4 10 -3 5 4 -4 7 -1 12 6 12 7 0 0 11 -15 25 -30 29 -35 40 -12 32 8
-4 17 -2 20 3 4 6 -5 10 -19 10 -22 0 -24 3 -18 23 4 12 6 36 4 52 -2 17 -3
40 -4 52 0 19 -3 20 -19 10 -12 -7 -15 -15 -9 -21 21 -21 11 -45 -22 -49 l-33
-4 33 -1 c25 -2 32 -6 32 -22 0 -25 -35 -27 -49 -2 -6 9 -11 11 -11 5 0 -7 -8
-13 -17 -14 -15 0 -15 -2 2 -8 19 -8 19 -8 -3 -20 -19 -10 -22 -9 -22 5 0 12
-12 4 -36 -24 -19 -23 -41 -42 -49 -42 -7 0 -20 16 -29 35 -10 20 -21 33 -27
30 -5 -4 -9 -8 -9 -11 0 -3 5 -2 10 1 5 3 10 1 10 -4 0 -16 -27 -13 -33 3 -4
10 -16 13 -34 11 -15 -2 -44 -4 -63 -4 -28 -1 -38 -7 -52 -31 -9 -17 -13 -30
-9 -30 5 0 9 -16 8 -35 -1 -25 -3 -31 -10 -20 -4 8 -5 20 -2 25 3 6 1 10 -4
10 -6 0 -11 6 -11 13 0 6 -10 23 -21 37 -11 14 -17 18 -13 10 6 -12 5 -13 -7
-4 -32 26 -89 34 -129 18 -26 -11 -37 -20 -33 -30 3 -8 1 -14 -5 -14 -6 0 -13
6 -15 13 -3 7 -6 5 -6 -5 -1 -10 -5 -18 -11 -18 -15 0 -12 16 5 34 16 15 24
81 12 93 -4 3 -7 -12 -7 -34 0 -27 -5 -43 -15 -47 -8 -3 -15 -1 -15 4 0 25
-94 -1 -105 -29 -9 -23 4 -26 20 -5 14 18 14 18 15 -3 0 -14 -6 -23 -15 -23
-15 0 -20 -25 -15 -77 2 -31 -14 -29 -28 2 -16 34 -15 55 1 55 11 0 11 9 3 43
-9 41 -12 43 -47 45 -27 2 -38 -2 -43 -15 -6 -15 -8 -15 -16 -3 -7 10 -10 11
-10 3 0 -24 2 -28 12 -25 15 4 7 -146 -8 -152 -22 -8 -33 26 -30 90 2 53 -1
62 -26 87 -23 24 -30 26 -47 15 -11 -6 -17 -16 -15 -20 3 -4 1 -8 -5 -8 -5 0
-11 5 -13 10 -2 6 -33 13 -70 17 -37 3 -65 9 -63 13 3 5 1 19 -4 32 -10 23
-10 23 -10 -4 -1 -44 -10 -55 -36 -50 -23 4 -42 33 -31 50 2 4 1 14 -5 22 -6
11 -9 2 -9 -27 0 -24 -4 -43 -10 -43 -6 0 -10 33 -10 80 0 44 -4 80 -10 80 -5
0 -9 -17 -8 -37 2 -75 -2 -113 -12 -113 -5 0 -10 14 -10 30 0 17 -4 30 -8 30
-4 0 -8 -16 -7 -37 0 -22 -5 -38 -14 -41 -8 -3 -11 0 -7 6 3 6 -2 15 -11 21
-10 6 -12 11 -5 11 6 0 12 10 11 23 l0 22 -9 -23 c-5 -12 -16 -25 -24 -28 -8
-3 -17 -13 -21 -22 -5 -14 -4 -15 6 -4 16 15 39 16 39 1 0 -5 -4 -8 -8 -5 -11
6 -29 -39 -40 -99 -8 -39 -10 -43 -11 -18 0 17 -4 39 -8 49 -4 12 -3 15 5 10
8 -5 10 -2 6 9 -4 9 -9 14 -11 11 -3 -3 -24 9 -46 25 -32 23 -51 30 -80 27
-23 -1 -41 3 -46 11 -6 9 -10 7 -14 -9 -4 -17 -11 -21 -26 -17 -20 5 -36 -16
-26 -33 3 -5 -6 -17 -20 -28 -16 -13 -23 -26 -19 -36 7 -19 -5 -20 -29 -2 -12
9 -14 16 -8 21 6 3 11 4 11 1 0 -3 9 2 20 11 11 10 20 23 20 30 0 14 -40 59
-40 46 0 -5 -5 -1 -10 7 -9 13 -11 13 -20 0 -5 -8 -10 -10 -11 -5 -4 25 -7 54
-8 103 -2 74 -19 65 -19 -10z m1843 -88 c3 -5 -3 -10 -15 -10 -12 0 -18 5 -15
10 3 6 10 10 15 10 5 0 12 -4 15 -10z m-1788 -31 c24 -8 30 -15 26 -30 -4 -14
-11 -18 -22 -13 -37 16 -77 16 -91 -1 -12 -15 -12 -19 5 -31 10 -8 27 -14 37
-14 31 0 75 -28 81 -51 7 -27 -11 -67 -34 -74 -26 -9 -92 -9 -117 0 -13 3 -22
15 -22 26 0 22 3 23 45 8 42 -16 85 -5 85 21 0 13 -9 21 -27 25 -52 11 -98 39
-101 63 -9 60 61 97 135 71z m686 0 c25 -7 37 -16 37 -28 0 -23 -10 -33 -24
-22 -6 5 -20 11 -31 15 -19 5 -20 1 -20 -92 0 -87 -2 -97 -17 -94 -10 2 -18
-2 -18 -8 0 -6 -5 -8 -12 -4 -7 4 -8 3 -4 -4 12 -20 -4 -35 -22 -20 -13 11
-15 10 -9 -4 3 -10 2 -18 -3 -18 -6 0 -10 5 -10 11 0 7 -9 9 -22 6 -19 -5 -23
-2 -24 16 -1 16 4 23 17 23 11 0 19 -4 19 -8 0 -12 35 -9 48 4 8 8 12 46 12
106 0 86 -2 93 -17 87 -39 -16 -50 -16 -56 -1 -7 19 6 28 53 37 52 10 61 10
103 -2z m115 -82 c2 -76 5 -88 24 -98 15 -8 27 -8 44 0 23 10 24 16 24 100 0
88 0 89 25 89 25 0 25 -1 25 -89 0 -84 1 -90 24 -100 17 -8 29 -8 45 0 22 12
24 19 25 121 1 58 3 65 21 65 19 0 20 -7 20 -92 0 -79 -3 -95 -20 -112 -27
-27 -74 -34 -107 -16 -24 12 -33 12 -67 -2 -34 -13 -45 -14 -72 -3 -42 18 -58
60 -58 152 0 70 2 74 22 73 21 -2 22 -7 25 -88z m504 64 c32 -28 33 -33 37
-115 3 -89 4 -87 -36 -86 -5 0 -8 12 -8 26 0 25 -3 26 -57 29 -58 2 -58 2 -58
-26 0 -23 4 -29 23 -29 16 0 18 3 9 9 -10 6 -9 10 7 14 16 4 21 0 21 -14 0
-12 7 -19 19 -19 11 0 23 -5 27 -11 8 -13 65 -4 75 13 5 8 12 6 24 -5 9 -10
22 -17 29 -17 18 0 66 24 66 33 0 5 -4 5 -10 2 -5 -3 -10 0 -10 8 0 15 29 32
37 23 3 -3 6 -16 7 -30 0 -17 6 -24 14 -21 6 2 12 0 12 -5 0 -17 68 -12 78 5
7 13 14 14 36 5 27 -10 28 -30 0 -30 -8 0 -14 -4 -14 -9 0 -4 11 -6 25 -3 20
3 25 0 25 -17 0 -13 -9 -25 -22 -30 -14 -5 -17 -10 -10 -15 7 -4 12 -12 12
-17 0 -6 -4 -8 -9 -5 -11 7 -23 -20 -26 -58 -2 -16 -9 -32 -16 -37 -12 -7 -57
-2 -68 8 -3 2 -5 34 -5 71 -1 37 -5 73 -9 80 -5 6 -6 16 -3 20 9 15 -58 0 -78
-17 -14 -12 -20 -13 -23 -3 -3 6 -13 12 -23 12 -10 0 -21 4 -25 9 -8 14 -85 6
-119 -12 -16 -9 -34 -13 -42 -10 -8 3 -24 -19 -44 -64 -90 -195 -89 -194 -112
-191 -17 2 -33 28 -75 127 -29 68 -53 125 -53 127 0 5 51 -3 54 -8 6 -9 56
-126 56 -131 0 -3 5 -18 11 -34 10 -27 12 -25 50 68 36 86 44 97 72 106 26 7
32 14 34 38 l2 30 -7 -30 c-5 -20 -10 -26 -15 -17 -5 7 -13 10 -18 7 -5 -4 -9
-2 -9 3 0 6 7 13 16 16 21 8 7 28 -18 24 -20 -3 -21 1 -19 76 3 95 12 120 48
140 43 24 79 19 115 -13z m209 20 c36 -1 68 -29 75 -68 5 -26 1 -37 -20 -58
l-27 -27 27 -35 c14 -19 24 -36 22 -38 -11 -12 -50 11 -68 39 -16 28 -24 32
-50 28 -25 -4 -30 -9 -30 -33 0 -22 -5 -29 -20 -29 -19 0 -20 7 -20 113 l0
113 43 -2 c23 -2 54 -3 68 -3z m-390 -113 c-2 -40 -6 -65 -10 -56 -8 21 -2
128 7 128 4 0 5 -33 3 -72z m-1141 46 c0 -8 -4 -12 -10 -9 -5 3 -10 10 -10 16
0 5 5 9 10 9 6 0 10 -7 10 -16z m710 -3 c0 -5 -6 -12 -12 -14 -7 -3 -5 -6 6
-6 10 -1 25 7 32 17 12 15 14 10 15 -38 2 -30 3 -63 2 -72 0 -10 5 -18 10 -18
11 0 67 -52 67 -62 0 -5 -7 -8 -16 -8 -9 0 -13 5 -9 13 4 6 0 4 -8 -6 -9 -11
-16 -14 -19 -7 -2 6 -19 -14 -37 -45 -29 -47 -36 -54 -44 -40 -5 9 -10 24 -12
33 -1 10 -8 16 -15 14 -19 -4 -40 18 -40 45 0 14 4 21 10 18 6 -3 10 -14 10
-25 0 -14 9 -19 44 -21 34 -3 43 -1 41 11 -1 8 -10 15 -21 15 -10 0 -19 7 -19
15 0 8 6 14 14 12 66 -14 71 -14 71 2 0 19 -16 21 -24 4 -5 -10 -7 -10 -12 0
-3 6 -17 12 -31 12 -18 0 -24 5 -21 18 2 10 11 16 21 14 24 -4 21 15 -3 21
-28 7 -25 24 5 31 24 6 36 36 14 36 -5 0 -7 -4 -4 -10 3 -5 1 -10 -4 -10 -6 0
-13 0 -16 0 -3 0 -5 3 -4 6 0 4 -5 10 -12 14 -6 5 -9 15 -6 24 7 17 27 22 27
7z m330 -20 c0 -6 -4 -13 -10 -16 -5 -3 -10 1 -10 9 0 9 5 16 10 16 6 0 10 -4
10 -9z m354 -36 c3 -8 1 -15 -4 -15 -6 0 -10 7 -10 15 0 8 2 15 4 15 2 0 6 -7
10 -15z m-1476 -23 c2 -7 -2 -10 -12 -6 -9 3 -16 11 -16 16 0 13 23 5 28 -10z
m1122 10 c0 -4 -9 -13 -20 -20 -23 -14 -26 -8 -7 13 13 16 27 19 27 7z m-1076
-17 c3 -9 0 -15 -9 -15 -9 0 -12 6 -9 15 4 8 7 15 9 15 2 0 5 -7 9 -15z m1655
-25 c0 -10 -3 -8 -9 5 -12 27 -12 43 0 25 5 -8 9 -22 9 -30z m-1259 21 c0 -5
-12 -19 -27 -31 -15 -12 -28 -31 -28 -43 0 -17 -5 -21 -22 -19 -14 2 -23 -4
-28 -18 -8 -26 -25 -26 -25 0 0 11 6 20 13 20 6 0 32 22 57 49 45 49 60 59 60
42z m1370 -1 c0 -5 -4 -10 -10 -10 -5 0 -10 5 -10 10 0 6 5 10 10 10 6 0 10
-4 10 -10z m125 -8 c-3 -3 -11 0 -18 7 -9 10 -8 11 6 5 10 -3 15 -9 12 -12z
m-719 -40 c-4 -3 -11 0 -16 8 -15 24 -11 33 6 15 9 -9 13 -19 10 -23z m264 23
c0 -8 -2 -15 -4 -15 -2 0 -6 7 -10 15 -3 8 -1 15 4 15 6 0 10 -7 10 -15z
m-108 -20 c0 -5 -5 -11 -11 -13 -6 -2 -11 4 -11 13 0 9 5 15 11 13 6 -2 11 -8
11 -13z m-172 -76 c0 -44 -4 -68 -10 -64 -9 6 -15 -22 -11 -53 1 -6 -3 -20 -9
-30 -9 -15 -10 -14 -5 6 4 12 0 36 -8 52 -10 19 -12 32 -5 36 5 3 8 14 5 24
-2 10 -1 24 4 31 4 7 4 20 -1 29 -9 17 16 53 31 44 5 -3 9 -37 9 -75z m50 11
c0 -5 -4 -10 -8 -10 -5 0 -14 -10 -20 -22 -9 -20 -11 -15 -11 31 l-1 55 20
-22 c11 -12 20 -26 20 -32z m-215 30 c4 -6 13 -9 20 -8 8 2 15 -1 17 -7 2 -5
-12 -11 -29 -13 -18 -2 -33 -8 -33 -14 0 -7 -5 -6 -15 2 -8 6 -19 9 -25 5 -5
-3 -10 0 -10 7 0 24 63 47 75 28z m-278 -15 c0 -8 -4 -15 -9 -15 -10 0 -11 14
-1 23 9 10 10 9 10 -8z m387 -18 c-9 -23 -41 -21 -47 2 -3 15 1 21 17 23 27 5
38 -4 30 -25z m660 5 c-22 -5 -31 7 -14 18 9 6 17 5 22 -3 4 -7 1 -13 -8 -15z
m-864 8 c0 -5 -4 -10 -10 -10 -5 0 -10 5 -10 10 0 6 5 10 10 10 6 0 10 -4 10
-10z m870 -24 c0 -3 -4 -8 -10 -11 -5 -3 -10 -1 -10 4 0 6 5 11 10 11 6 0 10
-2 10 -4z m-1093 -38 c58 -35 70 -140 20 -186 -33 -31 -71 -42 -147 -42 l-68
0 -1 124 -1 125 47 3 c70 5 114 -2 150 -24z m291 17 c2 -2 1 -13 -3 -25 -5
-15 -12 -19 -23 -14 -42 18 -80 16 -102 -6 -31 -31 -11 -50 51 -50 42 0 49 -3
49 -20 0 -17 -7 -20 -48 -20 -56 0 -86 -17 -76 -43 11 -28 78 -34 138 -11 14
5 36 -36 36 -66 0 -10 -14 -30 -31 -44 -17 -14 -26 -26 -21 -26 6 0 24 11 40
25 16 13 32 22 35 19 3 -3 2 11 -3 31 -12 53 -58 105 -72 82 -6 -9 -8 -9 -8 0
0 6 7 19 16 27 17 18 28 21 19 7 -9 -16 23 -39 48 -34 14 3 29 -2 37 -11 18
-23 9 -28 -23 -11 -15 8 -27 12 -27 9 0 -8 25 -49 35 -57 6 -6 6 -10 -3 -14
-6 -2 -9 -10 -5 -16 4 -6 8 -23 10 -37 2 -20 -2 -26 -18 -27 -16 -2 -18 1 -9
12 8 10 8 15 -2 21 -7 4 -10 4 -6 -1 4 -4 -7 -21 -25 -36 -36 -32 -57 -38 -36
-11 11 14 11 15 -1 5 -18 -16 -22 -43 -6 -37 7 3 13 -2 13 -10 0 -12 -4 -13
-21 -3 -12 6 -41 14 -66 18 l-45 6 42 2 c40 1 79 24 68 40 -2 4 9 21 25 36 34
32 42 73 13 59 -10 -5 -48 -9 -84 -9 -52 0 -72 4 -88 19 -26 24 -27 71 -2 93
17 14 17 18 5 30 -29 30 -14 79 30 99 27 12 131 11 144 -1z m603 -75 c1 -47 0
-95 -1 -107 -1 -22 2 -23 64 -23 59 0 66 -2 66 -19 0 -11 13 -28 30 -38 30
-17 39 -33 20 -33 -5 0 -10 -4 -10 -10 0 -5 7 -10 15 -10 17 0 20 35 4 46 -8
4 -7 9 2 16 11 8 10 9 -3 5 -9 -3 -22 1 -28 9 -17 19 8 19 36 0 16 -11 19 -23
16 -55 -4 -37 -6 -41 -26 -35 -18 6 -19 5 -9 -8 7 -8 10 -18 6 -21 -3 -4 14
-8 38 -8 24 -1 34 -4 21 -6 -13 -3 -21 -10 -19 -17 3 -8 -5 -11 -24 -10 -16 1
-29 -3 -29 -8 0 -6 -6 -5 -15 2 -8 7 -15 19 -15 27 0 13 3 13 25 -1 14 -9 25
-12 25 -7 0 5 -7 11 -15 15 -8 3 -12 12 -9 21 3 8 1 15 -6 15 -6 0 -9 -4 -6
-9 3 -5 -1 -12 -10 -15 -8 -3 -12 -2 -9 4 7 11 -30 51 -39 43 -3 -4 -6 1 -6
11 0 9 -4 14 -10 11 -5 -3 -10 1 -10 9 0 25 24 19 55 -14 29 -30 58 -43 35
-15 -10 12 -10 15 1 15 7 0 3 10 -11 25 -22 23 -31 25 -112 25 l-88 0 0 123
c0 68 2 126 5 128 2 3 13 5 25 5 18 0 20 -7 21 -86z m344 76 c69 -29 99 -133
54 -190 -33 -43 -75 -59 -132 -52 -53 6 -80 24 -103 68 -57 111 61 224 181
174z m305 -15 c29 -21 40 -64 27 -103 -10 -32 -80 -63 -127 -56 -30 5 -31 4
-28 -31 3 -33 0 -36 -24 -39 l-28 -3 0 124 c0 68 2 126 4 128 2 2 37 3 78 1
52 -2 80 -8 98 -21z m270 14 c5 -3 6 -14 3 -25 -4 -16 -10 -19 -27 -13 -64 21
-119 7 -114 -30 3 -19 10 -22 59 -25 50 -3 56 -5 52 -22 -4 -15 -16 -20 -56
-22 -35 -2 -53 -8 -61 -21 -24 -40 52 -58 132 -32 18 6 22 4 22 -14 0 -26 -34
-41 -96 -41 -95 0 -145 61 -94 115 18 20 19 23 5 35 -31 26 -7 83 45 103 16 7
117 0 130 -8z m250 -25 c28 -36 25 -82 -7 -114 l-26 -26 32 -40 32 -40 -30 0
c-25 0 -36 8 -55 38 -20 32 -29 38 -57 38 -33 -1 -34 -2 -31 -38 3 -35 1 -38
-22 -38 -21 0 -26 5 -27 28 0 25 0 227 1 227 0 0 38 -2 86 -5 76 -4 87 -8 104
-30z m-1630 16 c0 -7 -6 -19 -14 -25 -11 -9 -15 -8 -20 5 -10 26 -7 34 14 34
11 0 20 -6 20 -14z m1417 -38 c-3 -7 -5 -2 -5 12 0 14 2 19 5 13 2 -7 2 -19 0
-25z m-1624 -12 c17 2 42 -4 54 -12 20 -12 22 -12 17 1 -13 33 17 13 36 -24
16 -32 17 -40 6 -44 -16 -6 -26 1 -26 17 0 6 5 4 11 -4 9 -13 10 -13 6 0 -2 8
-12 14 -23 13 -10 -1 -24 7 -32 18 -8 11 -25 19 -42 19 -39 0 -61 10 -53 23 4
7 8 7 10 1 2 -6 18 -9 36 -8z m1522 4 c4 -6 11 -7 17 -4 5 3 27 -2 49 -11 34
-16 39 -22 38 -49 -1 -24 -3 -26 -6 -8 -5 28 -57 56 -91 49 -28 -5 -62 17 -39
26 19 8 25 8 32 -3z m-1040 -10 c3 -5 2 -10 -4 -10 -5 0 -13 5 -16 10 -3 6 -2
10 4 10 5 0 13 -4 16 -10z m55 6 c0 -3 -4 -8 -10 -11 -5 -3 -10 -1 -10 4 0 6
5 11 10 11 6 0 10 -2 10 -4z m-330 -16 c0 -5 -2 -10 -4 -10 -3 0 -8 5 -11 10
-3 6 -1 10 4 10 6 0 11 -4 11 -10z m147 -136 c1 -82 -1 -134 -7 -134 -6 0 -10
5 -10 11 0 5 -4 7 -10 4 -6 -4 -10 17 -10 54 0 34 4 61 9 61 10 0 8 51 -3 68
-4 7 -1 12 6 12 10 0 13 11 10 38 -3 20 -1 33 4 29 5 -4 10 -69 11 -143z m446
131 c-3 -9 -8 -14 -10 -11 -3 3 -2 9 2 15 9 16 15 13 8 -4z m-935 -13 c2 -7
-3 -12 -12 -12 -9 0 -16 7 -16 16 0 17 22 14 28 -4z m1260 0 c2 -7 -2 -10 -12
-6 -9 3 -16 11 -16 16 0 13 23 5 28 -10z m259 -24 c2 -17 0 -19 -7 -8 -5 8 -6
18 -4 22 8 12 10 10 11 -14z m-1527 -19 c-7 -11 -14 -18 -17 -15 -8 8 5 36 17
36 7 0 7 -6 0 -21z m1259 -51 c-11 -21 -31 -15 -23 7 4 8 10 12 15 9 5 -3 9 0
9 5 0 6 -4 11 -9 11 -5 0 -6 10 -3 22 5 22 6 21 13 -6 5 -17 4 -37 -2 -48z
m488 37 c0 -8 -4 -15 -9 -15 -4 0 -8 7 -8 15 0 8 4 15 8 15 5 0 9 -7 9 -15z
m-242 -33 c-3 -4 -10 0 -15 8 -6 9 -5 17 3 22 13 8 24 -19 12 -30z m-1915 8
c0 -15 -7 -20 -25 -20 -18 0 -25 5 -25 20 0 15 7 20 25 20 18 0 25 -5 25 -20z
m510 4 c0 -8 -5 -12 -10 -9 -6 4 -8 11 -5 16 9 14 15 11 15 -7z m40 1 c0 -8
-4 -15 -8 -15 -5 0 -9 7 -9 15 0 8 4 15 9 15 4 0 8 -7 8 -15z m444 -1 c3 -8 2
-12 -4 -9 -6 3 -10 10 -10 16 0 14 7 11 14 -7z m36 1 c0 -8 -4 -15 -10 -15 -5
0 -10 7 -10 15 0 8 5 15 10 15 6 0 10 -7 10 -15z m30 -7 c0 -16 -3 -19 -11
-11 -6 6 -8 16 -5 22 11 17 16 13 16 -11z m1020 1 c0 -5 -12 -9 -26 -9 -22 0
-24 2 -14 14 12 15 40 11 40 -5z m40 11 c0 -5 -7 -10 -15 -10 -8 0 -15 5 -15
10 0 6 7 10 15 10 8 0 15 -4 15 -10z m57 -22 c-3 -7 -5 -2 -5 12 0 14 2 19 5
13 2 -7 2 -19 0 -25z m-2061 -5 c-10 -10 -19 5 -10 18 6 11 8 11 12 0 2 -7 1
-15 -2 -18z m1241 20 c6 -3 14 -11 17 -19 4 -11 2 -12 -14 -4 -10 5 -43 10
-72 10 -38 0 -49 3 -38 10 14 10 82 11 107 3z m-949 -36 c15 -43 15 -47 -3
-47 -8 0 -15 7 -15 16 0 11 -6 15 -20 11 -11 -3 -20 -1 -20 5 0 5 9 12 21 15
12 3 18 11 15 19 -3 8 -2 14 2 14 5 0 13 -15 20 -33z m302 -22 c0 -8 -2 -15
-4 -15 -2 0 -6 7 -10 15 -3 8 -1 15 4 15 6 0 10 -7 10 -15z m920 -10 c0 -8 -4
-15 -10 -15 -5 0 -10 7 -10 15 0 8 5 15 10 15 6 0 10 -7 10 -15z m-1011 -12
c0 -5 -14 -19 -30 -32 -23 -18 -33 -21 -42 -12 -8 8 -8 14 2 24 11 10 13 10 7
0 -11 -20 8 -15 30 6 20 21 34 26 33 14z m91 -28 c0 -14 -4 -25 -10 -25 -8 0
-8 23 -1 48 4 12 11 -3 11 -23z m418 8 c-2 -10 -10 -17 -16 -15 -7 1 -12 -2
-12 -8 0 -5 6 -10 14 -10 9 0 13 -7 11 -18 -4 -23 2 -31 43 -60 24 -17 37 -20
50 -13 24 13 70 -15 53 -32 -7 -7 -17 -5 -31 8 -11 10 -20 14 -20 9 0 -16 44
-48 48 -36 2 7 7 10 12 7 5 -3 7 3 6 12 -3 17 10 32 26 33 10 0 48 -42 48 -53
0 -5 -15 -8 -32 -7 -18 1 -38 2 -43 1 -7 -1 -9 -49 -7 -136 2 -92 0 -135 -7
-135 -6 0 -12 8 -12 18 -1 13 -2 14 -6 2 -5 -17 -107 -100 -122 -100 -6 0 -11
-4 -11 -10 0 -5 -7 -7 -15 -4 -8 4 -15 13 -15 21 0 9 6 13 15 9 16 -6 45 2 45
13 0 4 -18 7 -41 8 -36 2 -40 0 -39 -20 4 -40 0 -55 -14 -60 -11 -5 -13 0 -6
22 4 16 4 34 0 41 -6 10 -9 8 -13 -6 -2 -10 -5 2 -6 28 0 26 4 50 9 53 6 3 10
52 10 110 0 58 -4 107 -10 110 -5 3 -10 35 -10 70 0 47 4 64 15 69 10 3 15 19
15 46 0 23 4 39 9 36 5 -3 7 -29 5 -58 -2 -34 1 -55 9 -60 19 -12 32 -9 19 4
-7 7 -12 38 -12 70 0 52 2 58 21 58 14 0 19 -5 17 -17z m-680 -10 c-9 -11 -13
-11 -19 -1 -7 10 -9 9 -9 -4 0 -11 -8 -18 -20 -18 -19 0 -27 20 -14 33 4 3 22
6 40 5 28 -1 32 -4 22 -15z m569 -5 c-3 -8 -6 -5 -6 6 -1 11 2 17 5 13 3 -3 4
-12 1 -19z m33 -6 c0 -25 -35 -70 -46 -59 -3 2 2 10 11 17 8 7 15 25 15 41 0
16 5 29 10 29 6 0 10 -12 10 -28z m160 6 c0 -12 12 -35 28 -51 22 -24 23 -28
6 -19 -12 6 -24 9 -27 5 -12 -11 -34 17 -32 40 1 12 3 28 4 35 2 21 21 13 21
-10z m38 -3 c-3 -16 1 -30 11 -37 14 -11 14 -11 3 3 -11 14 -9 17 13 17 13 0
30 -8 37 -16 11 -13 11 -14 -1 -7 -9 5 -12 4 -7 -3 4 -6 13 -9 20 -6 8 3 17 1
21 -5 3 -6 0 -11 -7 -11 -10 0 -10 -2 1 -9 7 -5 11 -13 7 -19 -3 -5 1 -12 9
-16 8 -3 15 -10 15 -16 0 -6 -13 -1 -30 11 -16 12 -27 25 -25 29 3 4 -3 14
-12 21 -12 10 -14 10 -9 2 12 -21 -5 -15 -38 15 -35 31 -47 72 -20 72 12 0 15
-6 12 -25z m29 5 c1 -11 -2 -18 -8 -15 -11 7 -12 35 -1 35 4 0 8 -9 9 -20z
m83 5 c7 -8 8 -15 2 -15 -5 0 -15 7 -22 15 -7 8 -8 15 -2 15 5 0 15 -7 22 -15z
m-1456 -20 c3 -8 13 -15 22 -15 8 0 14 -5 12 -11 -2 -6 -6 -9 -9 -7 -3 2 -13
-3 -22 -11 -10 -8 -17 -9 -17 -3 0 6 5 14 11 17 7 5 4 14 -7 26 -9 10 -12 19
-7 19 6 0 13 -7 17 -15z m843 -9 c-7 -19 37 -38 52 -23 7 7 14 8 21 1 7 -7 2
-18 -15 -34 -19 -18 -28 -21 -37 -12 -9 9 -9 12 0 12 7 0 12 5 12 11 0 5 -4 8
-9 5 -5 -4 -11 -1 -13 5 -2 7 -9 5 -17 -5 -12 -14 -12 -16 0 -11 10 4 15 -3
17 -21 2 -25 0 -26 -31 -21 -17 3 -26 3 -19 0 6 -2 10 -9 7 -14 -4 -5 2 -6 12
-2 13 4 15 3 7 -6 -13 -14 -43 -4 -40 14 1 7 8 20 15 29 7 9 10 16 6 16 -4 0
-2 6 4 14 9 11 8 15 -5 20 -13 5 -14 9 -4 21 16 19 44 20 37 1z m733 -6 c0 -5
-7 -10 -15 -10 -8 0 -15 5 -15 10 0 6 7 10 15 10 8 0 15 -4 15 -10z m-1060
-15 c0 -8 -9 -15 -20 -15 -20 0 -26 11 -13 23 12 13 33 7 33 -8z m274 -22
c-18 -19 -18 -24 3 -16 11 4 14 3 9 -6 -5 -7 -15 -10 -23 -6 -9 3 -25 -2 -35
-12 -19 -17 -20 -17 -34 2 -13 18 -13 22 4 35 10 8 34 16 54 16 32 1 35 -1 22
-13z m753 1 c-3 -3 -12 -4 -19 -1 -8 3 -5 6 6 6 11 1 17 -2 13 -5z m-1027 -25
c0 -14 -5 -19 -17 -17 -23 4 -28 25 -6 31 10 3 19 5 21 6 1 0 2 -8 2 -20z
m818 7 c6 -4 17 -4 22 -1 6 4 18 1 26 -6 22 -18 -5 -31 -29 -14 -14 10 -25 11
-39 4 -22 -12 -39 -4 -32 15 5 13 31 15 52 2z m523 -168 c20 -22 27 -94 9 -83
-5 3 -10 -1 -10 -10 0 -9 5 -13 10 -10 18 11 11 -3 -15 -31 -26 -28 -48 -27
-25 1 9 10 10 31 6 65 -4 32 -3 50 4 50 5 0 10 -8 10 -17 0 -15 2 -15 9 -4 10
15 -8 41 -28 41 -6 0 -11 5 -11 10 0 17 22 11 41 -12z m-1524 -40 c-3 -8 -6
-5 -6 6 -1 11 2 17 5 13 3 -3 4 -12 1 -19z m95 -130 c-9 -9 -12 -7 -12 12 0
19 3 21 12 12 9 -9 9 -15 0 -24z m375 10 c-3 -8 -6 -5 -6 6 -1 11 2 17 5 13 3
-3 4 -12 1 -19z m-489 -7 c3 -10 -1 -12 -17 -8 -18 4 -21 2 -16 -14 4 -10 2
-19 -3 -19 -11 0 -33 46 -25 53 10 11 57 1 61 -12z m593 -21 c19 -17 46 -41
60 -53 14 -13 31 -21 37 -19 6 2 10 -6 9 -17 -1 -21 -17 -30 -17 -11 0 6 -4
10 -10 10 -5 0 -9 -10 -8 -22 0 -13 -1 -43 -2 -68 -3 -41 -4 -40 -9 20 -3 36
-2 68 3 72 10 7 -26 43 -79 79 -34 23 -44 39 -26 39 4 0 23 -14 42 -30z m-510
-43 c-13 -13 -26 -3 -16 12 3 6 11 8 17 5 6 -4 6 -10 -1 -17z m351 -2 c6 -27
-1 -32 -19 -14 -12 12 -7 39 7 39 4 0 10 -11 12 -25z m645 9 c2 -5 -7 -15 -19
-23 -21 -13 -22 -13 -10 2 8 9 10 21 6 28 -4 7 -2 10 6 7 8 -2 15 -9 17 -14z
m-532 -44 c3 -5 -3 -14 -13 -19 -14 -8 -24 -6 -38 5 -11 9 -13 13 -6 9 6 -3
12 -1 12 4 0 6 -6 11 -12 12 -10 0 -10 2 0 6 10 4 10 8 0 21 -8 9 0 7 19 -6
18 -13 35 -27 38 -32z m-380 0 c3 -5 2 -10 -4 -10 -5 0 -13 5 -16 10 -3 6 -2
10 4 10 5 0 13 -4 16 -10z m210 -18 c-3 -3 -11 0 -18 7 -9 10 -8 11 6 5 10 -3
15 -9 12 -12z m445 -2 c0 -5 -5 -10 -11 -10 -5 0 -7 5 -4 10 3 6 8 10 11 10 2
0 4 -4 4 -10z m275 -10 c-10 -11 -23 -20 -28 -20 -6 0 -2 9 8 20 10 11 23 20
28 20 6 0 2 -9 -8 -20z m-646 -12 c-10 -7 -8 -8 7 -3 16 4 30 -3 51 -23 33
-34 39 -72 10 -72 -17 0 -19 5 -13 32 l6 32 -20 -22 c-12 -12 -25 -22 -31 -22
-6 0 -6 -7 1 -20 9 -16 8 -20 -5 -20 -14 0 -19 14 -18 47 1 7 -3 10 -8 7 -10
-6 -25 23 -17 32 3 2 16 -5 30 -16 25 -19 26 -19 42 -1 11 13 14 21 7 26 -14
8 -33 -3 -26 -16 9 -14 -11 -11 -22 4 -5 6 -8 18 -7 25 1 6 2 17 3 23 0 5 6 7
12 3 8 -4 7 -9 -2 -16z m-292 -15 c-4 -3 -2 -12 4 -20 9 -10 8 -13 -2 -13 -9
-1 -5 -8 10 -20 14 -12 18 -20 10 -20 -9 -1 -7 -6 5 -15 11 -8 15 -15 10 -15
-15 0 -96 62 -89 68 3 3 15 -4 28 -16 13 -12 27 -22 33 -22 5 0 -9 16 -31 36
-22 19 -34 33 -28 29 7 -3 21 -1 30 4 21 12 29 14 20 4z m241 -17 c-1 -13 6
-33 16 -45 11 -12 15 -21 10 -21 -6 0 -26 17 -45 38 -18 20 -27 31 -19 25 19
-17 35 -17 21 0 -11 14 -5 27 11 27 5 0 8 -11 6 -24z m811 5 c8 -5 9 -11 3
-15 -6 -3 -13 -2 -16 3 -3 5 -21 -5 -40 -22 -19 -17 -33 -33 -30 -36 2 -3 10
1 16 7 20 20 32 13 13 -8 -10 -11 -24 -20 -32 -20 -25 0 -13 33 25 66 41 37
42 37 61 25z m-1126 -30 c23 -16 51 -39 62 -52 11 -13 13 -18 5 -11 -18 15
-34 16 -24 0 4 -6 -8 -2 -28 10 -19 12 -38 19 -41 16 -3 -3 -16 1 -29 10 -12
9 -17 16 -10 16 7 0 10 5 7 10 -13 21 16 9 50 -21 20 -18 38 -30 40 -27 9 9
-71 62 -104 69 l-36 7 33 1 c22 1 48 -9 75 -28z m997 14 c0 -1 -6 -8 -14 -15
-12 -9 -15 -8 -13 8 0 12 6 18 14 15 7 -3 13 -6 13 -8z m-590 -57 c0 -18 -2
-20 -9 -8 -6 8 -7 18 -5 22 9 14 14 9 14 -14z"/>
<path d="M1417 1452 c-10 -10 -17 -33 -17 -50 l0 -32 61 0 c52 0 60 2 55 16
-3 9 -6 24 -6 34 0 45 -62 66 -93 32z m43 -26 c9 -12 8 -15 -8 -13 -12 0 -18
6 -15 14 6 16 8 16 23 -1z m30 4 c0 -5 -4 -10 -10 -10 -5 0 -10 5 -10 10 0 6
5 10 10 10 6 0 10 -4 10 -10z m0 -30 c0 -5 -4 -10 -10 -10 -5 0 -10 5 -10 10
0 6 5 10 10 10 6 0 10 -4 10 -10z"/>
<path d="M1445 1250 c-3 -6 1 -7 9 -4 18 7 21 14 7 14 -6 0 -13 -4 -16 -10z"/>
<path d="M1660 1425 c0 -45 0 -45 34 -45 52 0 66 9 66 41 0 33 -23 49 -69 49
-30 0 -31 -1 -31 -45z m65 15 c3 -5 1 -10 -4 -10 -6 0 -11 5 -11 10 0 6 2 10
4 10 3 0 8 -4 11 -10z m-1 -32 c-8 -13 -18 -9 -31 11 -11 17 -10 18 12 7 13
-6 21 -14 19 -18z"/>
<path d="M690 1075 l0 -85 50 4 c66 4 100 34 100 86 0 54 -32 80 -98 80 l-52
0 0 -85z m73 37 c-17 -5 -47 25 -31 30 6 2 19 -3 28 -11 12 -12 12 -17 3 -19z
m-23 -17 c0 -8 -4 -15 -10 -15 -5 0 -10 7 -10 15 0 8 5 15 10 15 6 0 10 -7 10
-15z m80 -11 c0 -16 -16 -19 -25 -4 -3 6 -16 10 -28 11 -20 1 -20 2 3 8 31 9
50 3 50 -15z m-30 -19 c0 -8 -4 -15 -10 -15 -5 0 -10 5 -10 12 0 6 -9 3 -20
-7 -21 -19 -24 -17 -14 9 8 21 54 21 54 1z m-74 -53 c-11 -10 -14 3 -8 33 l7
30 3 -28 c2 -16 1 -31 -2 -35z m86 16 c-7 -7 -10 -5 -7 8 5 29 6 30 12 16 3
-8 1 -18 -5 -24z m-36 -6 c-8 -9 -19 -13 -22 -9 -10 9 16 38 28 31 6 -4 4 -13
-6 -22z"/>
<path d="M1993 1163 c-29 -6 -63 -49 -63 -79 0 -61 50 -102 110 -89 74 16 80
139 7 165 -16 5 -30 9 -31 9 -1 -1 -11 -4 -23 -6z m35 -40 c-10 -2 -18 -9 -18
-14 0 -5 -7 -9 -15 -9 -8 0 -15 -4 -15 -10 0 -17 20 -11 55 16 18 14 36 21 39
15 3 -5 0 -12 -6 -15 -10 -5 -10 -7 0 -12 14 -7 16 -34 2 -34 -5 0 -10 7 -10
15 0 22 -18 18 -25 -5 -3 -11 -11 -20 -16 -20 -6 0 -7 -5 -4 -10 4 -7 11 -7
18 -2 7 5 20 9 30 9 29 -1 -2 -24 -42 -32 -29 -6 -33 -5 -28 9 4 10 1 16 -7
16 -18 0 -23 14 -18 56 4 32 6 34 41 33 20 -1 28 -3 19 -6z"/>
<path d="M2252 1116 l3 -51 45 3 c96 7 94 85 -3 95 l-48 5 3 -52z m85 10 c0
-8 -3 -15 -6 -14 -3 0 -13 0 -21 -2 -11 -1 -9 -4 5 -10 17 -7 15 -9 -12 -9
-40 -1 -42 9 -5 31 35 21 39 21 39 4z"/>
<path d="M2760 1123 c0 -24 -1 -46 -2 -50 -4 -11 85 -3 100 9 6 6 12 21 12 33
0 30 -17 42 -67 47 l-43 4 0 -43z m68 -10 c-6 -7 -19 -13 -30 -13 -16 0 -17 2
-6 14 17 19 52 17 36 -1z"/>
<path d="M1390 920 c0 -22 2 -40 4 -40 2 0 6 18 8 40 2 22 0 40 -4 40 -5 0 -8
-18 -8 -40z"/>
<path d="M1620 826 c0 -9 65 -66 75 -66 6 0 22 -13 37 -28 25 -25 27 -36 31
-117 l3 -90 2 96 2 97 -51 43 c-80 67 -99 80 -99 65z"/>
<path d="M1550 776 c0 -22 3 -27 11 -19 8 8 8 16 0 30 -9 16 -10 14 -11 -11z"/>
<path d="M1581 650 c-1 -82 -4 -156 -7 -165 -3 -8 -1 -15 5 -15 7 0 16 10 21
22 5 13 9 20 9 15 1 -4 12 0 26 9 24 16 26 22 23 83 -3 64 -4 66 -32 71 -16 3
-31 11 -34 18 -6 20 33 14 61 -11 24 -20 27 -30 27 -83 0 -53 -3 -64 -28 -87
-15 -15 -33 -27 -39 -27 -13 0 -38 -29 -31 -36 3 -3 13 2 21 11 20 19 27 19
27 -1 0 -8 5 -12 11 -8 6 3 15 1 19 -6 6 -10 18 -5 49 19 l41 33 0 103 0 104
-60 45 c-39 30 -60 41 -60 31 0 -22 -21 -18 -27 5 -14 52 -21 7 -22 -130z m49
80 c0 -6 7 -10 15 -10 8 0 15 -4 15 -8 0 -5 11 -15 25 -22 13 -7 26 -20 28
-29 4 -14 5 -14 6 1 0 9 -19 34 -44 54 -24 21 -43 40 -40 42 6 7 95 -60 95
-72 9 -188 9 -185 -22 -211 -37 -31 -59 -33 -30 -2 33 34 27 45 -7 13 -18 -17
-31 -24 -35 -17 -4 6 -2 11 4 11 7 0 20 10 31 23 14 17 18 39 19 95 l0 72 -50
36 c-49 35 -70 65 -30 44 11 -6 20 -15 20 -20z m5 -120 c1 -35 -1 -40 -21 -40
-16 0 -21 5 -19 18 1 9 8 16 14 15 6 -2 11 2 11 7 0 6 -7 10 -15 10 -20 0 -19
17 2 29 23 13 26 8 28 -39z m0 -70 c0 -8 -10 -16 -22 -18 -20 -3 -22 2 -14 36
3 11 36 -6 36 -18z"/>
<path d="M1713 595 c0 -27 2 -38 4 -22 2 15 2 37 0 50 -2 12 -4 0 -4 -28z"/>
<path d="M1711 524 c0 -11 3 -14 6 -6 3 7 2 16 -1 19 -3 4 -6 -2 -5 -13z"/>
<path d="M1815 769 c-10 -15 3 -25 16 -12 7 7 7 13 1 17 -6 3 -14 1 -17 -5z"/>
<path d="M1550 456 c0 -31 6 -34 13 -6 3 11 1 23 -4 26 -5 3 -9 -6 -9 -20z"/>
<path d="M1143 838 c-17 -28 -11 -37 13 -21 28 18 31 25 7 16 -11 -4 -14 -3
-9 5 4 7 5 12 2 12 -3 0 -8 -6 -13 -12z"/>
<path d="M765 270 c3 -5 11 -10 16 -10 6 0 7 5 4 10 -3 6 -11 10 -16 10 -6 0
-7 -4 -4 -10z"/>
<path d="M200 1637 c0 -26 4 -47 8 -47 8 0 6 79 -3 88 -3 3 -5 -16 -5 -41z"/>
<path d="M350 1673 c-5 -28 -5 -75 1 -79 11 -6 15 29 8 61 -4 17 -8 24 -9 18z"/>
<path d="M586 1671 c-3 -5 1 -11 9 -15 9 -3 15 0 15 9 0 16 -16 20 -24 6z"/>
<path d="M712 1645 c1 -40 8 -40 12 -1 2 15 0 29 -5 32 -5 2 -8 -11 -7 -31z"/>
<path d="M880 1665 c14 -17 50 -20 50 -5 0 6 8 10 18 11 9 0 12 3 5 5 -7 3
-21 0 -32 -5 -13 -7 -22 -8 -26 -1 -3 5 -11 10 -17 10 -7 0 -6 -6 2 -15z"/>
<path d="M975 1670 c3 -5 8 -10 11 -10 2 0 4 5 4 10 0 6 -5 10 -11 10 -5 0 -7
-4 -4 -10z"/>
<path d="M1950 1665 c0 -8 4 -15 8 -15 5 0 9 7 9 15 0 8 -4 15 -9 15 -4 0 -8
-7 -8 -15z"/>
<path d="M2150 1643 c0 -20 3 -34 6 -30 9 9 11 67 2 67 -4 0 -8 -16 -8 -37z"/>
<path d="M2970 1640 c0 -22 -4 -40 -10 -40 -5 0 -10 5 -10 10 0 6 -5 10 -12
10 -9 0 -9 -3 -1 -11 9 -9 8 -15 -3 -26 -8 -8 -14 -22 -14 -31 0 -12 4 -9 13
8 7 14 21 24 30 24 18 -2 26 21 24 69 -2 43 -17 32 -17 -13z"/>
<path d="M110 1649 c0 -5 5 -7 10 -4 6 3 10 8 10 11 0 2 -4 4 -10 4 -5 0 -10
-5 -10 -11z"/>
<path d="M750 1640 c-1 -14 -3 -32 -5 -41 -1 -9 1 -22 5 -29 11 -17 17 28 9
65 -6 28 -7 28 -9 5z"/>
<path d="M2520 1656 c0 -2 9 -6 20 -9 11 -3 18 -1 14 4 -5 9 -34 13 -34 5z"/>
<path d="M2935 1651 c-3 -5 -1 -12 5 -16 5 -3 10 1 10 9 0 18 -6 21 -15 7z"/>
<path d="M1445 1640 c-3 -5 -2 -10 4 -10 5 0 13 5 16 10 3 6 2 10 -4 10 -5 0
-13 -4 -16 -10z"/>
<path d="M640 1620 c0 -11 2 -20 4 -20 2 0 6 9 9 20 3 11 1 20 -4 20 -5 0 -9
-9 -9 -20z"/>
<path d="M856 1634 c7 -3 10 -13 7 -23 -5 -21 18 -42 25 -23 2 7 12 12 22 12
20 0 33 13 23 24 -3 3 -12 1 -19 -4 -8 -8 -16 -6 -27 5 -9 8 -22 15 -29 14 -8
0 -9 -2 -2 -5z"/>
<path d="M980 1632 c0 -6 -7 -18 -16 -26 -15 -15 -12 -36 6 -36 10 0 24 59 16
67 -3 4 -6 1 -6 -5z"/>
<path d="M576 1608 c7 -11 34 -10 34 1 0 6 -9 9 -19 8 -11 0 -17 -5 -15 -9z"/>
<path d="M1022 1604 c-7 -8 -8 -14 -3 -14 10 0 25 19 20 25 -2 1 -10 -3 -17
-11z"/>
<path d="M120 1600 c0 -5 5 -10 11 -10 5 0 7 5 4 10 -3 6 -8 10 -11 10 -2 0
-4 -4 -4 -10z"/>
<path d="M2530 1600 c20 -13 33 -13 25 0 -3 6 -14 10 -23 10 -15 0 -15 -2 -2
-10z"/>
<path d="M232 1580 c0 -14 2 -19 5 -12 2 6 2 18 0 25 -3 6 -5 1 -5 -13z"/>
<path d="M1896 1585 c4 -8 8 -15 10 -15 2 0 4 7 4 15 0 8 -4 15 -10 15 -5 0
-7 -7 -4 -15z"/>
<path d="M2580 1570 c0 -28 2 -29 20 -18 11 7 16 14 10 16 -5 2 -10 10 -10 18
0 8 -4 14 -10 14 -5 0 -10 -14 -10 -30z"/>
<path d="M1849 1583 c-1 -5 -3 -23 -5 -42 -1 -19 -8 -37 -15 -42 -8 -4 -10
-11 -7 -15 10 -9 38 21 38 40 0 8 8 20 18 25 15 9 15 10 -5 11 -16 0 -21 4
-17 15 4 8 3 15 0 15 -3 0 -7 -3 -7 -7z"/>
<path d="M90 1564 c0 -8 5 -12 10 -9 6 4 8 11 5 16 -9 14 -15 11 -15 -7z"/>
<path d="M521 1545 c-1 -30 -4 -36 -11 -25 -8 13 -10 13 -10 -2 0 -9 4 -19 8
-22 15 -9 28 29 21 59 -6 28 -7 28 -8 -10z"/>
<path d="M1023 1565 c-16 -18 -17 -33 -2 -18 6 6 18 9 25 6 10 -4 12 0 8 11
-7 19 -15 20 -31 1z"/>
<path d="M2510 1570 c-9 -6 -10 -10 -3 -10 6 0 15 5 18 10 8 12 4 12 -15 0z"/>
<path d="M2801 1564 c0 -11 3 -14 6 -6 3 7 2 16 -1 19 -3 4 -6 -2 -5 -13z"/>
<path d="M880 1554 c0 -10 4 -12 13 -7 6 4 20 6 30 5 9 -2 17 2 17 7 0 6 -13
11 -30 11 -21 0 -30 -5 -30 -16z"/>
<path d="M2060 1559 c0 -5 5 -7 10 -4 6 3 10 8 10 11 0 2 -4 4 -10 4 -5 0 -10
-5 -10 -11z"/>
<path d="M1501 1544 c0 -11 3 -14 6 -6 3 7 2 16 -1 19 -3 4 -6 -2 -5 -13z"/>
<path d="M2145 1539 c-4 -6 -5 -12 -2 -15 2 -3 7 2 10 11 7 17 1 20 -8 4z"/>
<path d="M2535 1540 c-3 -5 1 -10 9 -10 9 0 16 5 16 10 0 6 -4 10 -9 10 -6 0
-13 -4 -16 -10z"/>
<path d="M255 1530 c-3 -5 3 -10 15 -10 12 0 18 5 15 10 -3 6 -10 10 -15 10
-5 0 -12 -4 -15 -10z"/>
<path d="M2956 1531 c-3 -5 1 -12 10 -15 20 -8 29 -1 19 13 -8 13 -22 14 -29
2z"/>
<path d="M1566 1507 c3 -10 9 -15 12 -12 3 3 0 11 -7 18 -10 9 -11 8 -5 -6z"/>
<path d="M2204 1501 c10 -11 14 -25 9 -37 -7 -18 -6 -18 12 0 14 14 16 21 7
24 -6 2 -12 10 -12 18 0 8 -7 14 -17 14 -15 0 -15 -1 1 -19z"/>
<path d="M2790 1509 c0 -5 5 -7 10 -4 6 3 10 8 10 11 0 2 -4 4 -10 4 -5 0 -10
-5 -10 -11z"/>
<path d="M2098 1498 c-1 -7 -2 -24 -2 -38 -1 -19 -7 -26 -31 -30 -16 -3 -25
-8 -20 -12 6 -3 22 -4 38 -1 25 5 27 9 27 49 0 40 -8 61 -12 32z"/>
<path d="M2581 1457 c1 -31 6 -54 11 -51 10 7 6 90 -5 101 -4 4 -7 -19 -6 -50z"/>
<path d="M2960 1490 c-13 -8 -13 -10 2 -10 9 0 20 5 23 10 8 13 -5 13 -25 0z"/>
<path d="M2636 1475 c-3 -8 -1 -15 4 -15 13 0 22 18 11 24 -5 3 -11 -1 -15 -9z"/>
<path d="M2166 1472 c-10 -16 1 -32 22 -32 11 0 13 3 6 8 -6 4 -13 14 -16 22
-3 10 -6 11 -12 2z"/>
<path d="M355 1445 c-51 -50 -20 -129 50 -129 71 0 104 90 49 133 -35 28 -69
26 -99 -4z m55 -16 c0 -4 11 -17 24 -30 25 -24 25 -49 0 -49 -8 0 -14 -5 -14
-11 0 -8 -5 -8 -15 1 -12 10 -15 10 -15 0 0 -10 -3 -10 -15 0 -8 7 -12 16 -9
21 3 5 0 9 -6 9 -10 0 -7 40 5 59 6 11 45 11 45 0z m45 -9 c3 -5 -1 -10 -9
-10 -9 0 -16 5 -16 10 0 6 4 10 9 10 6 0 13 -4 16 -10z"/>
<path d="M386 1395 c-9 -26 -7 -32 5 -12 6 10 9 21 6 23 -2 3 -7 -2 -11 -11z"/>
<path d="M425 1370 c3 -5 8 -10 11 -10 2 0 4 5 4 10 0 6 -5 10 -11 10 -5 0 -7
-4 -4 -10z"/>
<path d="M2960 1461 c-8 -6 -17 -8 -21 -5 -4 2 -9 -2 -12 -9 -3 -8 7 -12 29
-12 22 0 33 4 30 12 -3 6 0 14 7 17 8 3 6 5 -3 5 -8 0 -22 -3 -30 -8z"/>
<path d="M2530 1431 c0 -5 6 -11 13 -14 8 -3 14 1 14 9 0 8 -6 14 -14 14 -7 0
-13 -4 -13 -9z"/>
<path d="M2820 1419 c0 -5 5 -7 10 -4 6 3 10 8 10 11 0 2 -4 4 -10 4 -5 0 -10
-5 -10 -11z"/>
<path d="M2637 1413 c-3 -5 0 -17 4 -28 9 -19 9 -19 5 2 -2 12 1 24 8 27 8 3
8 5 -1 5 -6 1 -14 -2 -16 -6z"/>
<path d="M2791 1404 c0 -11 3 -14 6 -6 3 7 2 16 -1 19 -3 4 -6 -2 -5 -13z"/>
<path d="M2976 1405 c6 -14 -6 -19 -43 -18 -13 1 -11 -52 2 -65 4 -4 4 3 1 15
-5 16 -2 23 15 28 14 5 25 2 30 -6 6 -9 9 -1 9 24 0 20 -4 37 -10 37 -5 0 -7
-7 -4 -15z"/>
<path d="M2548 1365 c2 -14 -1 -31 -7 -39 -9 -10 -8 -15 4 -20 12 -4 15 3 15
39 0 25 -4 45 -9 45 -4 0 -6 -11 -3 -25z"/>
<path d="M2090 1370 c0 -5 7 -10 16 -10 8 0 12 5 9 10 -3 6 -10 10 -16 10 -5
0 -9 -4 -9 -10z"/>
<path d="M2350 1370 c0 -5 5 -10 11 -10 5 0 7 5 4 10 -3 6 -8 10 -11 10 -2 0
-4 -4 -4 -10z"/>
<path d="M2230 1361 c0 -6 5 -13 10 -16 6 -3 10 1 10 9 0 9 -4 16 -10 16 -5 0
-10 -4 -10 -9z"/>
<path d="M2090 1325 c0 -8 5 -15 10 -15 6 0 10 7 10 15 0 8 -4 15 -10 15 -5 0
-10 -7 -10 -15z"/>
<path d="M2285 1318 c6 -24 4 -28 -14 -28 -12 0 -20 -6 -18 -12 1 -9 -10 -12
-35 -11 -28 2 -38 -2 -38 -12 0 -25 72 -20 90 6 20 28 63 49 86 43 15 -4 20 0
20 15 0 12 -4 21 -8 21 -4 0 -8 -5 -8 -11 0 -6 -9 -9 -20 -6 -11 3 -23 0 -27
-5 -4 -7 -11 -4 -20 8 -13 18 -14 17 -8 -8z"/>
<path d="M2960 1314 l-25 -14 33 2 c18 1 32 8 32 15 0 16 -8 15 -40 -3z"/>
<path d="M2718 1295 c-3 -14 -2 -27 1 -30 4 -2 8 10 9 26 3 36 -4 38 -10 4z"/>
<path d="M2063 1293 c-7 -3 -13 -12 -13 -21 0 -14 2 -14 9 -3 5 8 18 12 30 8
12 -3 21 -3 21 -1 0 8 -36 21 -47 17z"/>
<path d="M2390 1266 c0 -15 27 -29 34 -18 3 5 -4 13 -15 20 -15 10 -19 10 -19
-2z"/>
<path d="M60 1239 c0 -6 7 -8 15 -5 10 4 19 -2 25 -17 9 -22 9 -22 9 3 1 20
-4 26 -24 28 -14 1 -25 -3 -25 -9z"/>
<path d="M218 1243 c7 -3 16 -2 19 1 4 3 -2 6 -13 5 -11 0 -14 -3 -6 -6z"/>
<path d="M2100 1240 c0 -5 5 -10 11 -10 5 0 7 5 4 10 -3 6 -8 10 -11 10 -2 0
-4 -4 -4 -10z"/>
<path d="M160 1230 c0 -5 5 -10 10 -10 6 0 10 5 10 10 0 6 -4 10 -10 10 -5 0
-10 -4 -10 -10z"/>
<path d="M193 1218 c-16 -8 -23 -20 -23 -39 0 -15 -4 -31 -10 -34 -10 -6 -8
-40 3 -51 4 -4 7 -14 7 -23 0 -14 -2 -14 -11 -1 -9 13 -10 12 -5 -2 3 -10 -2
-22 -12 -27 -9 -6 -12 -10 -7 -10 13 0 45 24 45 34 0 4 8 14 18 22 16 13 16
13 -3 11 -15 -2 -20 3 -20 22 0 17 5 24 15 22 12 -3 13 -1 3 9 -15 15 -17 49
-4 49 5 0 11 -8 13 -17 3 -11 6 -5 9 15 3 17 5 32 5 31 -1 0 -11 -5 -23 -11z"/>
<path d="M128 1213 c7 -3 16 -2 19 1 4 3 -2 6 -13 5 -11 0 -14 -3 -6 -6z"/>
<path d="M88 1168 c-7 -17 7 -55 15 -42 7 11 4 40 -5 49 -3 3 -8 0 -10 -7z"/>
<path d="M2986 1133 c-6 -14 -5 -15 5 -6 7 7 10 15 7 18 -3 3 -9 -2 -12 -12z"/>
<path d="M211 1124 c0 -11 3 -14 6 -6 3 7 2 16 -1 19 -3 4 -6 -2 -5 -13z"/>
<path d="M41 1024 c0 -11 3 -14 6 -6 3 7 2 16 -1 19 -3 4 -6 -2 -5 -13z"/>
<path d="M165 1029 c-9 -14 -2 -20 14 -10 8 6 9 11 3 15 -6 3 -14 1 -17 -5z"/>
<path d="M80 996 c0 -9 5 -16 10 -16 6 0 10 4 10 9 0 6 -4 13 -10 16 -5 3 -10
-1 -10 -9z"/>
<path d="M130 991 c0 -19 20 -22 36 -7 14 15 13 16 -10 16 -14 0 -26 -4 -26
-9z"/>
<path d="M2790 986 c0 -2 7 -7 16 -10 8 -3 12 -2 9 4 -6 10 -25 14 -25 6z"/>
<path d="M41 964 c0 -11 3 -14 6 -6 3 7 2 16 -1 19 -3 4 -6 -2 -5 -13z"/>
<path d="M161 954 c-6 -13 -8 -29 -6 -36 2 -7 7 -25 9 -40 4 -23 1 -28 -15
-28 -23 0 -25 -15 -4 -24 8 -3 15 -15 15 -27 0 -18 -4 -20 -27 -14 -22 5 -25
4 -15 -8 7 -8 9 -17 5 -20 -3 -4 -1 -7 5 -7 5 0 12 6 15 13 3 9 8 9 16 1 15
-14 3 -47 -15 -40 -7 3 -16 1 -19 -4 -4 -6 4 -10 16 -10 18 0 21 -5 17 -30 -2
-16 0 -32 6 -34 8 -3 8 -7 0 -13 -7 -5 -10 -49 -8 -118 1 -60 3 -132 3 -160 1
-29 5 -45 9 -37 5 7 6 34 2 61 -3 27 -3 57 1 68 3 10 5 46 4 81 -2 54 0 62 17
62 13 0 18 -8 19 -27 1 -18 3 -21 6 -10 2 9 8 15 13 12 5 -3 8 4 7 15 -1 11
-6 19 -12 18 -5 -1 -19 1 -31 5 -16 6 -20 15 -19 50 1 24 5 49 9 55 4 7 3 12
-1 12 -7 0 -9 129 -4 228 1 8 10 12 23 10 16 -2 24 -12 28 -33 5 -26 6 -27 12
-9 8 29 -2 43 -39 53 -27 8 -32 6 -42 -15z"/>
<path d="M85 945 c-4 -11 -10 -29 -14 -40 -7 -16 -4 -20 16 -21 20 -2 22 0 12
13 -9 10 -9 17 -2 21 6 4 7 16 3 27 -8 20 -8 20 -15 0z"/>
<path d="M2325 939 c-4 -6 -13 -8 -21 -5 -8 3 -14 0 -14 -7 0 -7 14 -12 33
-13 17 -1 26 1 19 3 -10 4 -10 8 -1 19 8 9 8 14 1 14 -6 0 -14 -5 -17 -11z"/>
<path d="M440 920 c0 -5 5 -10 11 -10 5 0 7 5 4 10 -3 6 -8 10 -11 10 -2 0 -4
-4 -4 -10z"/>
<path d="M2394 921 c3 -5 15 -7 26 -4 28 7 25 13 -6 13 -14 0 -23 -4 -20 -9z"/>
<path d="M1454 896 c6 -36 11 -40 30 -29 14 8 13 12 -9 33 l-26 25 5 -29z"/>
<path d="M1320 900 c8 -5 20 -10 25 -10 6 0 3 5 -5 10 -8 5 -19 10 -25 10 -5
0 -3 -5 5 -10z"/>
<path d="M2635 901 c-11 -5 -138 -7 -283 -6 -144 1 -265 -2 -268 -7 -3 -4 7
-8 23 -9 15 0 63 -1 106 -2 53 -1 76 -5 73 -12 -2 -7 0 -18 5 -26 6 -10 9 -6
9 14 0 35 28 34 46 -1 l12 -23 6 25 c7 30 32 35 39 9 4 -17 5 -17 6 0 2 28 69
24 81 -5 8 -22 9 -22 9 -2 1 18 7 21 45 21 40 1 44 -1 41 -22 -1 -13 2 -29 7
-37 6 -9 8 -1 6 22 -2 19 2 35 7 35 6 0 16 4 24 9 9 6 12 5 8 -1 -8 -12 12
-22 31 -16 6 3 12 13 12 24 0 20 -12 23 -45 10z m35 -15 c0 -3 -4 -8 -10 -11
-5 -3 -10 -1 -10 4 0 6 5 11 10 11 6 0 10 -2 10 -4z"/>
<path d="M270 890 c0 -5 7 -10 15 -10 8 0 15 5 15 10 0 6 -7 10 -15 10 -8 0
-15 -4 -15 -10z"/>
<path d="M260 860 c19 -13 30 -13 30 0 0 6 -10 10 -22 10 -19 0 -20 -2 -8 -10z"/>
<path d="M2177 843 c-3 -16 -1 -32 4 -37 5 -6 9 4 9 27 0 44 -6 48 -13 10z"/>
<path d="M2670 850 c0 -5 5 -10 11 -10 5 0 7 5 4 10 -3 6 -8 10 -11 10 -2 0
-4 -4 -4 -10z"/>
<path d="M2616 835 c4 -8 8 -15 10 -15 2 0 4 7 4 15 0 8 -4 15 -10 15 -5 0 -7
-7 -4 -15z"/>
<path d="M40 824 c0 -8 5 -12 10 -9 6 3 10 10 10 16 0 5 -4 9 -10 9 -5 0 -10
-7 -10 -16z"/>
<path d="M70 826 c0 -8 4 -17 9 -20 5 -4 7 3 4 14 -6 23 -13 26 -13 6z"/>
<path d="M201 813 c0 -16 5 -37 10 -48 6 -14 7 -8 3 23 -6 45 7 55 36 30 12
-11 12 -10 1 5 -22 28 -51 22 -50 -10z"/>
<path d="M2220 830 c-12 -8 -12 -10 -1 -10 11 0 11 -3 0 -17 -12 -17 -12 -17
5 -1 22 19 18 42 -4 28z"/>
<path d="M283 823 c-15 -5 -17 -23 -4 -23 5 0 11 7 15 15 3 8 4 15 3 14 -1 0
-8 -3 -14 -6z"/>
<path d="M600 819 c0 -5 5 -7 10 -4 6 3 10 8 10 11 0 2 -4 4 -10 4 -5 0 -10
-5 -10 -11z"/>
<path d="M1490 774 c0 -34 -5 -65 -12 -72 -14 -14 -22 -152 -11 -192 6 -25 6
-25 13 5 3 17 5 65 5 108 0 49 3 77 10 77 12 0 15 -197 3 -215 -4 -6 -8 -41
-9 -78 -2 -57 1 -71 19 -90 22 -23 31 -87 13 -87 -5 0 -8 14 -6 30 2 17 0 30
-5 30 -6 0 -9 -3 -8 -7 2 -5 -1 -9 -7 -10 -18 -3 -33 -63 -15 -63 6 0 10 9 10
20 0 11 4 20 9 20 5 0 7 -8 4 -18 -3 -15 1 -18 19 -17 13 1 22 8 20 14 -3 15
15 14 21 -1 3 -7 5 10 5 37 -1 34 -2 40 -5 17 -2 -17 -9 -32 -15 -32 -6 0 -8
12 -5 27 4 20 -1 33 -19 50 -20 18 -24 32 -24 80 0 34 6 67 14 79 19 26 20
198 2 213 -7 6 -14 36 -15 68 -3 77 -11 82 -11 7z"/>
<path d="M1321 801 c-13 -10 -20 -21 -15 -24 5 -3 19 3 32 13 29 24 14 34 -17
11z"/>
<path d="M777 796 c-4 -10 -1 -13 8 -9 8 3 12 9 9 14 -7 12 -11 11 -17 -5z"/>
<path d="M2714 795 c-3 -8 -4 -20 -2 -27 3 -7 7 -1 10 15 6 29 1 36 -8 12z"/>
<path d="M2340 782 c0 -15 4 -20 16 -15 9 3 12 9 7 12 -4 3 -11 10 -15 15 -5
5 -8 0 -8 -12z"/>
<path d="M2672 780 c0 -14 2 -19 5 -12 2 6 2 18 0 25 -3 6 -5 1 -5 -13z"/>
<path d="M85 779 c-4 -6 -5 -12 -2 -15 2 -3 7 2 10 11 7 17 1 20 -8 4z"/>
<path d="M983 783 c15 -2 37 -2 50 0 12 2 0 4 -28 4 -27 0 -38 -2 -22 -4z"/>
<path d="M510 765 c0 -9 6 -12 15 -9 8 4 15 10 15 15 0 5 -7 9 -15 9 -8 0 -15
-7 -15 -15z"/>
<path d="M2530 770 c-13 -8 -13 -10 2 -10 9 0 20 5 23 10 8 13 -5 13 -25 0z"/>
<path d="M2491 744 c0 -11 3 -14 6 -6 3 7 2 16 -1 19 -3 4 -6 -2 -5 -13z"/>
<path d="M522 738 c-19 -19 -14 -56 8 -68 14 -7 20 -7 20 0 0 5 -8 10 -17 11
-15 0 -14 3 5 16 12 8 22 20 22 25 0 6 -6 6 -14 -1 -9 -7 -17 -8 -20 -2 -3 5
0 11 6 14 7 2 10 7 7 10 -3 4 -11 1 -17 -5z"/>
<path d="M1893 738 c-2 -5 13 -9 34 -10 37 -1 37 -1 6 -5 -18 -2 -33 -9 -33
-14 0 -6 4 -8 9 -4 11 6 26 -33 16 -43 -4 -4 -12 1 -19 11 -17 22 -29 22 -18
0 4 -10 8 -41 7 -70 0 -28 3 -49 7 -47 4 3 8 25 8 50 0 42 1 44 25 40 29 -5
34 14 9 39 -9 9 -14 19 -10 22 3 4 6 3 6 -2 0 -4 9 0 20 10 10 9 26 15 35 12
8 -4 15 -2 15 2 0 11 -110 19 -117 9z"/>
<path d="M2671 734 c0 -11 3 -14 6 -6 3 7 2 16 -1 19 -3 4 -6 -2 -5 -13z"/>
<path d="M218 733 c-10 -2 -18 -8 -18 -13 0 -4 9 -6 20 -3 11 3 20 9 20 14 0
5 -1 8 -2 8 -2 -1 -11 -3 -20 -6z"/>
<path d="M2980 730 c-13 -8 -12 -10 3 -10 9 0 17 5 17 10 0 12 -1 12 -20 0z"/>
<path d="M380 705 c0 -14 5 -25 10 -25 6 0 10 11 10 25 0 14 -4 25 -10 25 -5
0 -10 -11 -10 -25z"/>
<path d="M245 710 c-4 -6 1 -7 11 -3 12 4 15 3 10 -5 -4 -7 -1 -12 9 -12 9 0
14 4 11 9 -4 5 0 12 6 14 7 3 1 6 -14 6 -15 1 -30 -3 -33 -9z"/>
<path d="M1980 712 c0 -7 -7 -12 -17 -12 -15 0 -15 -1 0 -18 25 -27 24 -159 0
-178 -17 -13 -17 -13 0 -14 9 0 17 -7 17 -15 0 -13 -4 -13 -22 -3 -13 7 -26
18 -30 23 -5 6 -8 5 -8 -2 0 -7 -9 -13 -20 -13 -11 0 -20 3 -20 8 0 13 39 32
54 26 8 -3 17 -1 21 5 3 6 -1 11 -10 11 -9 0 -13 4 -10 10 7 11 -23 2 -42 -12
-7 -6 -13 -4 -16 4 -2 7 -4 -8 -3 -34 1 -40 3 -45 18 -37 23 12 68 11 68 -1 0
-11 48 -6 59 6 3 4 -1 5 -10 1 -15 -5 -17 8 -18 121 -1 69 -4 128 -6 131 -3 2
-5 -1 -5 -7z"/>
<path d="M2535 710 c3 -5 12 -7 20 -3 21 7 19 13 -6 13 -11 0 -18 -4 -14 -10z"/>
<path d="M2708 713 c7 -3 16 -2 19 1 4 3 -2 6 -13 5 -11 0 -14 -3 -6 -6z"/>
<path d="M200 680 c0 -10 7 -23 15 -30 9 -8 15 -8 15 -2 0 6 -6 13 -12 16 -10
5 -10 7 0 12 17 8 15 21 -3 21 -8 0 -15 -8 -15 -17z"/>
<path d="M1325 689 c-11 -17 1 -21 15 -4 8 9 8 15 2 15 -6 0 -14 -5 -17 -11z"/>
<path d="M337 659 c-5 -17 -11 -20 -36 -14 -17 3 -38 2 -46 -3 -12 -6 -1 -8
34 -8 50 1 51 0 51 -27 0 -16 -4 -26 -10 -22 -5 3 -10 1 -10 -4 0 -6 5 -11 10
-11 6 0 10 -7 10 -15 0 -17 16 -20 24 -6 4 5 0 11 -6 14 -10 3 -10 7 1 20 9
11 10 17 2 17 -8 0 -9 13 -5 40 7 42 -9 58 -19 19z"/>
<path d="M2140 660 c-1 -14 -1 -58 0 -98 1 -48 -3 -79 -12 -89 -10 -13 -10
-17 0 -20 6 -3 12 -11 12 -19 0 -9 -3 -13 -8 -10 -4 2 -16 -3 -27 -11 -20 -15
-19 -15 4 -10 l23 6 -23 -25 c-17 -19 -19 -23 -6 -18 10 3 17 1 17 -6 0 -6 5
-8 12 -4 7 4 8 3 4 -4 -4 -7 -2 -12 4 -12 6 0 -2 -12 -17 -26 l-28 -26 30 17
30 18 -30 -33 -30 -33 32 22 c35 24 50 41 35 41 -5 0 -9 12 -8 28 1 20 -3 27
-17 26 -17 -2 -17 0 -3 15 9 10 17 31 19 47 2 16 7 35 11 42 4 7 3 12 -1 12
-10 0 -16 96 -7 123 4 13 12 17 25 14 14 -4 19 0 19 16 0 18 -2 19 -10 7 -8
-12 -10 -12 -10 -1 0 10 -3 11 -14 2 -12 -10 -15 -8 -19 11 -4 23 -4 23 -7 -2z"/>
<path d="M2665 670 c3 -5 8 -10 11 -10 2 0 4 5 4 10 0 6 -5 10 -11 10 -5 0 -7
-4 -4 -10z"/>
<path d="M413 658 c4 -12 0 -15 -16 -12 -12 2 -16 1 -9 -2 10 -5 10 -9 1 -20
-9 -11 -7 -14 10 -14 22 0 25 -8 15 -34 -3 -8 -12 -12 -20 -9 -8 3 -14 0 -14
-7 0 -6 4 -9 9 -6 5 3 11 -1 15 -9 3 -10 -1 -15 -12 -15 -15 0 -15 -2 -2 -10
10 -6 11 -10 3 -10 -7 0 -13 -4 -13 -10 0 -15 16 -12 34 6 12 12 13 20 6 35
-7 13 -7 19 0 19 14 0 13 97 -2 106 -7 5 -9 2 -5 -8z"/>
<path d="M1190 630 c0 -22 5 -40 10 -40 6 0 10 17 8 40 -1 22 -6 40 -10 40 -4
0 -8 -18 -8 -40z"/>
<path d="M1866 661 c-4 -7 -5 -15 -2 -18 9 -9 19 4 14 18 -4 11 -6 11 -12 0z"/>
<path d="M118 653 c-10 -2 -18 -12 -17 -21 0 -11 2 -12 6 -4 2 6 11 12 19 12
8 0 14 5 14 10 0 6 -1 9 -2 9 -2 -1 -11 -3 -20 -6z"/>
<path d="M510 610 c0 -35 3 -40 23 -39 16 1 18 2 5 6 -23 6 -25 53 -2 53 8 0
12 5 9 10 -3 6 -13 10 -21 10 -10 0 -14 -12 -14 -40z"/>
<path d="M910 640 c0 -5 5 -10 10 -10 6 0 10 5 10 10 0 6 -4 10 -10 10 -5 0
-10 -4 -10 -10z"/>
<path d="M1825 578 c7 -82 13 -84 13 -3 0 36 -5 65 -9 65 -5 0 -7 -28 -4 -62z"/>
<path d="M945 620 c3 -5 8 -10 11 -10 2 0 4 5 4 10 0 6 -5 10 -11 10 -5 0 -7
-4 -4 -10z"/>
<path d="M480 610 c0 -5 5 -10 11 -10 5 0 7 5 4 10 -3 6 -8 10 -11 10 -2 0 -4
-4 -4 -10z"/>
<path d="M1246 611 c-4 -7 -5 -15 -2 -18 9 -9 19 4 14 18 -4 11 -6 11 -12 0z"/>
<path d="M1855 610 c-3 -5 1 -10 9 -10 9 0 16 5 16 10 0 6 -4 10 -9 10 -6 0
-13 -4 -16 -10z"/>
<path d="M1930 603 c0 -13 5 -23 10 -23 13 0 13 11 0 30 -8 12 -10 11 -10 -7z"/>
<path d="M587 590 c-17 -11 -24 -20 -18 -24 6 -4 11 -2 11 3 0 6 4 11 9 11 5
0 8 -43 7 -95 0 -52 2 -95 7 -95 4 0 7 -7 7 -16 0 -9 10 -30 22 -47 13 -18 21
-34 19 -37 -1 -3 -7 -13 -13 -23 -8 -16 -7 -17 9 -9 10 5 24 11 32 14 11 3 11
7 -2 19 -8 9 -26 40 -38 70 -28 64 -34 204 -10 233 19 22 -4 21 -42 -4z"/>
<path d="M815 601 c3 -5 1 -12 -5 -16 -5 -3 -10 -13 -10 -21 0 -14 2 -14 15 0
17 17 20 46 4 46 -5 0 -8 -4 -4 -9z"/>
<path d="M2175 596 c-13 -9 -15 -15 -6 -20 6 -4 9 -12 5 -17 -3 -6 -2 -18 2
-27 5 -12 9 -4 14 28 4 25 7 46 5 47 -1 2 -10 -3 -20 -11z"/>
<path d="M690 584 c0 -8 5 -12 10 -9 6 3 10 -1 10 -9 0 -9 5 -16 10 -16 15 0
12 16 -6 34 -19 20 -24 20 -24 0z"/>
<path d="M947 587 c-11 -29 -9 -43 4 -30 6 6 9 19 7 29 -3 18 -4 18 -11 1z"/>
<path d="M971 554 c0 -11 3 -14 6 -6 3 7 2 16 -1 19 -3 4 -6 -2 -5 -13z"/>
<path d="M480 550 c0 -5 5 -10 11 -10 5 0 7 5 4 10 -3 6 -8 10 -11 10 -2 0 -4
-4 -4 -10z"/>
<path d="M541 544 c0 -11 3 -14 6 -6 3 7 2 16 -1 19 -3 4 -6 -2 -5 -13z"/>
<path d="M910 554 c0 -5 9 -20 20 -32 17 -18 18 -22 5 -22 -9 0 -13 -5 -10
-10 4 -6 11 -8 16 -5 5 4 9 2 9 -4 0 -5 -5 -11 -12 -13 -7 -3 -6 -7 5 -11 14
-5 17 0 17 33 0 23 -5 40 -11 40 -7 0 -18 8 -25 18 -7 9 -14 12 -14 6z"/>
<path d="M1430 526 c0 -18 6 -38 13 -45 20 -16 14 -131 -7 -143 -12 -7 -16
-24 -16 -66 0 -51 2 -58 20 -58 11 0 20 6 20 13 0 7 -6 12 -12 10 -19 -3 -22
67 -4 82 13 11 14 8 9 -26 l-6 -38 22 24 c24 28 26 40 8 47 -9 3 -12 24 -9 74
3 47 0 75 -8 85 -7 9 -13 29 -12 45 0 17 -4 30 -9 30 -5 0 -9 -15 -9 -34z"/>
<path d="M513 528 c4 -24 22 -35 32 -19 3 6 1 11 -4 11 -6 0 -11 7 -11 15 0 8
-4 15 -10 15 -5 0 -8 -10 -7 -22z"/>
<path d="M1240 540 c0 -5 5 -10 10 -10 6 0 10 5 10 10 0 6 -4 10 -10 10 -5 0
-10 -4 -10 -10z"/>
<path d="M440 531 c0 -6 5 -13 10 -16 6 -3 10 1 10 9 0 9 -4 16 -10 16 -5 0
-10 -4 -10 -9z"/>
<path d="M790 512 c0 -17 4 -34 10 -37 6 -4 7 6 3 27 -8 44 -13 48 -13 10z"/>
<path d="M2105 510 c5 -23 3 -30 -9 -30 -9 0 -16 -4 -16 -10 0 -14 11 -12 30
5 18 16 16 65 -2 65 -5 0 -7 -13 -3 -30z"/>
<path d="M348 523 c7 -3 16 -2 19 1 4 3 -2 6 -13 5 -11 0 -14 -3 -6 -6z"/>
<path d="M230 501 c0 -7 -3 -10 -7 -8 -5 3 -14 -1 -21 -9 -12 -13 -8 -18 11
-15 4 0 7 -5 8 -11 0 -7 5 0 10 16 4 17 6 32 4 35 -3 2 -5 -1 -5 -8z"/>
<path d="M345 476 c0 -19 4 -38 8 -42 4 -4 7 4 7 19 0 14 3 32 6 41 4 10 1 16
-7 16 -9 0 -14 -12 -14 -34z"/>
<path d="M443 493 c9 -15 46 -23 53 -12 3 5 -1 9 -10 9 -8 0 -22 3 -32 7 -11
4 -15 3 -11 -4z"/>
<path d="M514 465 c-2 -20 3 -25 22 -25 13 0 24 5 24 10 0 6 -4 9 -9 8 -5 -2
-16 5 -23 15 -12 16 -13 15 -14 -8z"/>
<path d="M2320 458 c0 -4 5 -8 12 -8 9 0 9 -3 1 -11 -6 -6 -9 -17 -6 -24 2 -7
-2 -15 -10 -17 -9 -2 -12 -9 -7 -22 6 -18 9 -16 23 14 21 41 22 77 2 77 -8 0
-15 -4 -15 -9z"/>
<path d="M1251 452 c6 -16 91 -83 97 -77 3 3 -10 19 -29 35 -41 36 -73 56 -68
42z"/>
<path d="M1900 450 c-8 -5 -11 -13 -6 -17 5 -4 11 -2 13 5 3 6 9 10 14 6 5 -3
9 0 9 5 0 13 -10 14 -30 1z"/>
<path d="M250 435 c-7 -9 -8 -15 -2 -15 5 0 12 7 16 15 3 8 4 15 2 15 -2 0 -9
-7 -16 -15z"/>
<path d="M450 424 c0 -14 4 -23 9 -20 5 3 7 15 4 26 -7 28 -13 25 -13 -6z"/>
<path d="M2039 424 l-24 -27 28 18 c15 9 27 21 27 26 0 14 -5 11 -31 -17z"/>
<path d="M201 424 c0 -11 3 -14 6 -6 3 7 2 16 -1 19 -3 4 -6 -2 -5 -13z"/>
<path d="M221 424 c0 -11 3 -14 6 -6 3 7 2 16 -1 19 -3 4 -6 -2 -5 -13z"/>
<path d="M480 425 c0 -8 4 -15 10 -15 5 0 7 7 4 15 -4 8 -8 15 -10 15 -2 0 -4
-7 -4 -15z"/>
<path d="M1970 429 c0 -14 29 -17 40 -4 8 10 5 13 -15 11 -14 0 -25 -4 -25 -7z"/>
<path d="M1910 418 c0 -22 17 -41 24 -29 4 6 2 11 -4 11 -6 0 -8 5 -4 11 4 7
12 6 23 -5 14 -15 14 -18 1 -27 -11 -7 3 -9 48 -7 61 4 67 1 63 -30 -1 -7 4
-11 11 -10 7 2 12 -5 12 -14 -1 -10 4 -14 13 -11 8 3 12 12 9 19 -3 9 1 11 12
8 15 -5 15 -4 -1 6 -9 6 -21 9 -26 6 -5 -3 -12 2 -16 11 -3 10 -2 19 3 21 6 2
8 12 5 22 -5 19 -6 19 -30 0 -31 -24 -88 -28 -79 -5 3 9 0 15 -10 15 -8 0 -12
5 -9 10 4 6 -5 10 -19 10 -14 0 -26 -6 -26 -12z"/>
<path d="M276 403 c-6 -14 -5 -15 5 -6 7 7 10 15 7 18 -3 3 -9 -2 -12 -12z"/>
<path d="M346 404 c-4 -9 -4 -19 -1 -22 2 -3 7 3 11 12 4 9 4 19 1 22 -2 3 -7
-3 -11 -12z"/>
<path d="M514 404 c3 -9 6 -25 6 -37 0 -18 2 -19 10 -7 16 24 12 60 -6 60 -11
0 -14 -5 -10 -16z"/>
<path d="M958 408 c5 -5 16 -8 23 -6 8 3 3 7 -10 11 -17 4 -21 3 -13 -5z"/>
<path d="M215 390 c-3 -5 -3 -14 0 -20 3 -5 1 -10 -4 -10 -6 0 -11 -4 -11 -10
0 -5 6 -7 14 -4 7 3 14 16 14 30 0 26 -3 29 -13 14z"/>
<path d="M2258 393 c6 -2 18 -2 25 0 6 3 1 5 -13 5 -14 0 -19 -2 -12 -5z"/>
<path d="M2352 363 c-9 -21 -20 -39 -24 -41 -5 -2 -8 -10 -8 -17 0 -18 -80
-86 -93 -78 -6 4 -1 14 12 25 13 10 20 18 15 18 -14 0 -43 -32 -38 -44 3 -7
-18 -18 -53 -29 -36 -10 -59 -13 -61 -7 -2 6 -7 8 -12 5 -4 -3 -67 -5 -139 -6
-72 0 -131 -3 -131 -5 0 -13 29 -33 35 -24 3 5 11 10 16 10 6 0 7 -5 4 -11 -4
-6 2 -5 14 3 16 10 23 10 33 0 14 -14 32 -16 23 -3 -3 5 8 9 25 9 16 -1 30 -6
30 -12 0 -7 3 -7 8 -1 4 6 32 11 64 13 l56 2 7 -77 c8 -93 13 -114 14 -55 1
34 5 44 24 52 l22 9 -22 0 c-19 1 -22 7 -21 41 1 53 25 55 31 3 4 -38 4 -38 5
6 2 38 4 43 22 38 11 -3 18 -1 14 4 -3 5 4 9 15 9 11 0 29 12 40 28 11 15 27
34 34 42 28 31 54 76 61 103 9 38 -1 34 -22 -10z"/>
<path d="M452 360 c0 -14 2 -19 5 -12 2 6 2 18 0 25 -3 6 -5 1 -5 -13z"/>
<path d="M482 355 c0 -16 2 -22 5 -12 2 9 2 23 0 30 -3 6 -5 -1 -5 -18z"/>
<path d="M2278 373 c7 -3 16 -2 19 1 4 3 -2 6 -13 5 -11 0 -14 -3 -6 -6z"/>
<path d="M1978 353 c12 -2 32 -2 45 0 12 2 2 4 -23 4 -25 0 -35 -2 -22 -4z"/>
<path d="M2205 330 c2 -8 4 -17 5 -20 1 -3 2 -8 2 -11 -1 -4 9 -5 21 -2 18 4
19 3 7 -6 -12 -9 -10 -11 12 -11 18 0 29 6 33 20 3 11 11 20 16 20 5 0 9 7 9
15 0 10 -9 15 -27 14 l-28 -1 25 -8 c21 -7 17 -8 -20 -9 -32 0 -41 2 -30 9 12
7 10 9 -6 8 -14 -1 -20 -8 -19 -18z m58 -17 c-7 -2 -21 -2 -30 0 -10 3 -4 5
12 5 17 0 24 -2 18 -5z"/>
<path d="M1975 320 c14 -15 29 -20 57 -18 54 3 47 18 -9 19 -36 0 -43 3 -28 9
17 7 16 9 -9 9 -29 1 -29 1 -11 -19z"/>
<path d="M200 317 c0 -9 4 -18 9 -21 5 -4 8 1 7 9 -3 21 -16 31 -16 12z"/>
<path d="M452 300 c3 -16 -16 -80 -23 -80 -5 0 -9 -4 -9 -10 0 -5 6 -10 13
-10 13 0 16 -44 4 -57 -4 -3 -2 -13 5 -20 9 -11 9 -17 -3 -25 -10 -7 -8 -8 11
-4 14 3 28 6 33 6 4 0 7 4 7 10 0 5 -7 7 -15 4 -11 -5 -15 1 -15 19 0 19 6 27
23 30 l22 4 -22 8 c-23 7 -27 17 -23 70 3 39 10 51 21 34 7 -11 9 -9 9 6 0 14
-7 21 -19 21 -11 0 -19 -3 -19 -6z"/>
<path d="M1965 290 c3 -5 16 -10 28 -10 18 0 19 2 7 10 -20 13 -43 13 -35 0z"/>
<path d="M162 270 c0 -14 2 -19 5 -12 2 6 2 18 0 25 -3 6 -5 1 -5 -13z"/>
<path d="M518 270 c-7 -24 -3 -38 8 -28 3 4 4 17 2 30 l-3 23 -7 -25z"/>
<path d="M1330 278 c0 -9 5 -20 10 -23 13 -8 13 5 0 25 -8 13 -10 13 -10 -2z"/>
<path d="M2028 283 c7 -3 16 -2 19 1 4 3 -2 6 -13 5 -11 0 -14 -3 -6 -6z"/>
<path d="M1760 245 c0 -8 -4 -15 -10 -15 -5 0 -10 -4 -10 -10 0 -5 7 -10 15
-10 9 0 15 9 15 25 0 14 -2 25 -5 25 -3 0 -5 -7 -5 -15z"/>
<path d="M674 237 c-17 -10 -19 -17 -12 -43 5 -21 14 -31 25 -30 13 1 18 -7
19 -29 1 -16 5 -38 9 -48 4 -10 5 -32 1 -49 -6 -29 -5 -30 7 -14 10 14 11 32
3 79 -9 57 -8 61 15 80 21 17 24 17 27 4 3 -13 9 -14 28 -7 17 7 23 6 21 -3
-1 -7 8 -12 20 -12 12 0 25 -4 29 -8 4 -4 14 -7 23 -7 13 0 13 2 2 9 -8 5 -10
14 -6 22 6 8 4 11 -6 7 -8 -3 -25 -1 -39 5 -14 5 -35 11 -48 13 -12 1 -34 12
-48 23 -30 24 -41 25 -70 8z m50 -20 c18 -18 8 -37 -20 -37 -19 0 -24 5 -24
25 0 27 23 34 44 12z"/>
<path d="M540 223 c0 -10 4 -14 8 -8 4 6 11 13 16 18 5 4 2 7 -7 7 -10 0 -17
-8 -17 -17z"/>
<path d="M160 198 c0 -21 2 -38 4 -38 9 0 12 50 5 62 -6 8 -9 -1 -9 -24z"/>
<path d="M518 214 c-5 -4 -8 -16 -8 -28 0 -14 3 -17 11 -9 6 6 9 19 7 28 -1 9
-6 13 -10 9z"/>
<path d="M339 203 c0 -5 -2 -20 -4 -35 -2 -16 1 -28 6 -28 5 0 9 3 10 8 0 4 2
19 4 35 2 15 -1 27 -6 27 -5 0 -9 -3 -10 -7z"/>
<path d="M210 185 c0 -8 -6 -15 -12 -15 -10 0 -10 -2 -1 -8 6 -4 13 -23 16
-42 3 -24 4 -18 5 23 1 31 0 57 -3 57 -3 0 -5 -7 -5 -15z"/>
<path d="M1166 192 c-2 -1 -38 -3 -80 -4 -42 -1 -79 -5 -82 -10 -3 -4 5 -8 18
-8 13 0 30 -5 38 -10 12 -8 12 -10 1 -10 -8 0 -11 -3 -8 -7 4 -3 17 2 29 13
12 10 18 13 14 7 -4 -7 -2 -13 3 -13 6 0 11 7 11 15 0 8 5 15 10 15 6 0 9 -3
9 -7 -4 -26 2 -175 7 -170 3 3 6 42 6 87 1 75 9 94 21 45 4 -15 5 -13 6 8 1
33 14 35 34 3 11 -16 13 -26 5 -34 -6 -6 -7 -15 -4 -21 11 -17 26 -13 20 4 -4
9 0 15 10 15 9 0 16 5 16 10 0 6 -7 10 -15 10 -8 0 -15 9 -15 20 0 15 7 20 25
20 22 0 25 -3 19 -26 -5 -19 -4 -25 5 -20 6 4 11 13 11 21 0 20 28 26 38 8 8
-14 10 -14 15 1 4 9 15 16 26 16 15 0 19 -5 16 -22 -4 -23 -4 -23 11 -3 11 16
27 20 72 20 32 1 64 5 71 10 9 5 12 4 8 -2 -4 -6 0 -13 8 -17 10 -4 15 1 15
14 0 18 -8 19 -102 19 -58 -1 -109 -6 -116 -12 -10 -8 -15 -8 -20 0 -6 10
-148 24 -156 15z"/>
<path d="M1624 188 c-3 -4 -12 -4 -20 -1 -17 6 -36 -15 -27 -31 3 -5 6 -40 7
-78 0 -41 5 -67 11 -64 5 2 9 17 7 35 -2 24 2 31 16 31 10 0 23 -5 29 -11 8
-8 13 -7 18 2 5 7 4 10 -3 5 -6 -3 -13 -2 -17 4 -3 5 -15 10 -26 10 -12 0 -19
7 -19 20 0 13 7 20 20 20 12 0 20 -7 20 -16 0 -11 5 -14 16 -10 9 3 18 6 20 6
2 0 4 8 3 18 0 10 -3 12 -6 5 -8 -21 -23 -15 -23 8 0 15 5 19 15 15 9 -3 15 0
15 9 0 8 5 15 10 15 6 0 10 -8 10 -17 0 -12 3 -14 8 -7 13 21 63 14 72 -10 8
-20 8 -20 19 8 6 16 9 31 6 34 -8 8 -176 8 -181 0z m16 -33 c0 -8 -9 -15 -19
-15 -10 0 -21 7 -25 15 -4 11 1 15 19 15 16 0 25 -6 25 -15z"/>
<path d="M910 178 c0 -5 8 -17 17 -26 16 -16 16 -16 10 1 -5 12 -1 17 13 17
16 0 18 -5 13 -34 -3 -19 -1 -36 5 -40 7 -4 9 1 7 14 -2 11 2 26 9 32 24 23 7
45 -35 45 -21 0 -39 -4 -39 -9z"/>
<path d="M405 150 c-3 -5 -1 -10 4 -10 6 0 11 5 11 10 0 6 -2 10 -4 10 -3 0
-8 -4 -11 -10z"/>
<path d="M517 141 c-3 -14 0 -21 9 -21 16 0 18 9 5 28 -6 10 -10 9 -14 -7z"/>
<path d="M1015 131 c0 -16 3 -33 8 -37 4 -4 7 9 7 29 0 21 -3 37 -7 37 -5 0
-8 -13 -8 -29z"/>
<path d="M1083 132 c-16 -10 -13 -129 4 -129 16 0 17 9 1 25 -9 9 -9 12 0 12
7 0 12 9 12 20 0 11 -6 20 -12 20 -10 0 -9 3 1 9 7 5 11 13 7 19 -3 6 -1 12 6
14 7 3 8 7 2 11 -5 3 -15 3 -21 -1z"/>
<path d="M400 121 c0 -6 4 -13 10 -16 6 -3 7 1 4 9 -7 18 -14 21 -14 7z"/>
<path d="M160 100 c0 -19 3 -21 12 -12 9 9 9 15 0 24 -9 9 -12 7 -12 -12z"/>
<path d="M1820 111 c0 -6 5 -13 10 -16 6 -3 10 1 10 9 0 9 -4 16 -10 16 -5 0
-10 -4 -10 -9z"/>
<path d="M1260 100 c0 -5 5 -10 11 -10 5 0 7 5 4 10 -3 6 -8 10 -11 10 -2 0
-4 -4 -4 -10z"/>
<path d="M330 93 c0 -5 5 -15 10 -23 8 -12 10 -11 10 8 0 12 -4 22 -10 22 -5
0 -10 -3 -10 -7z"/>
<path d="M658 93 c7 -3 16 -2 19 1 4 3 -2 6 -13 5 -11 0 -14 -3 -6 -6z"/>
<path d="M1960 86 c0 -2 7 -7 16 -10 8 -3 12 -2 9 4 -6 10 -25 14 -25 6z"/>
<path d="M208 57 c-3 -19 -2 -25 4 -19 6 6 8 18 6 28 -3 14 -5 12 -10 -9z"/>
<path d="M666 66 c4 -10 1 -16 -7 -16 -7 0 -10 -2 -7 -5 3 -3 18 1 34 10 16 8
24 15 17 15 -6 0 -19 3 -27 6 -12 5 -15 2 -10 -10z"/>
<path d="M1206 61 c9 -9 73 -8 68 1 -3 5 -21 7 -39 6 -19 -1 -32 -4 -29 -7z"/>
<path d="M1540 63 c0 -6 -3 -18 -6 -27 -3 -9 -2 -16 4 -16 15 0 24 32 12 44
-7 7 -10 7 -10 -1z"/>
<path d="M526 35 c15 -23 15 -25 -2 -25 -9 0 -15 -3 -11 -6 3 -4 13 -4 20 -1
19 7 10 57 -9 57 -12 0 -11 -5 2 -25z"/>
<path d="M444 36 c1 -8 5 -18 8 -22 4 -3 5 1 4 10 -1 8 -5 18 -8 22 -4 3 -5
-1 -4 -10z"/>
<path d="M480 39 c0 -5 5 -7 10 -4 6 3 10 8 10 11 0 2 -4 4 -10 4 -5 0 -10 -5
-10 -11z"/>
<path d="M561 34 c0 -11 3 -14 6 -6 3 7 2 16 -1 19 -3 4 -6 -2 -5 -13z"/>
<path d="M1021 34 c0 -11 3 -14 6 -6 3 7 2 16 -1 19 -3 4 -6 -2 -5 -13z"/>
<path d="M2181 34 c0 -11 3 -14 6 -6 3 7 2 16 -1 19 -3 4 -6 -2 -5 -13z"/>
<path d="M336 23 c-6 -14 -5 -15 5 -6 7 7 10 15 7 18 -3 3 -9 -2 -12 -12z"/>
<path d="M1340 30 c0 -5 5 -10 10 -10 6 0 10 5 10 10 0 6 -4 10 -10 10 -5 0
-10 -4 -10 -10z"/>
</g>
</svg>
