<?xml version="1.0" standalone="no"?>
<!DOCTYPE svg PUBLIC "-//W3C//DTD SVG 20010904//EN"
 "http://www.w3.org/TR/2001/REC-SVG-20010904/DTD/svg10.dtd">
<svg version="1.0" xmlns="http://www.w3.org/2000/svg"
 width="300.000000pt" height="76.000000pt" viewBox="0 0 300.000000 76.000000"
 preserveAspectRatio="xMidYMid meet">
<metadata>
Created by potrace 1.10, written by Peter Selinger 2001-2011
</metadata>
<g transform="translate(0.000000,76.000000) scale(0.100000,-0.100000)"
fill="#000000" stroke="none">
<path d="M70 470 l0 -120 24 0 c13 0 32 -3 42 -7 12 -4 15 -3 10 5 -4 7 -18
12 -31 12 -28 0 -38 12 -29 34 4 11 10 13 18 7 7 -6 30 -13 52 -17 30 -4 43
-2 53 10 18 22 1 42 -43 50 -43 8 -86 42 -86 67 0 34 44 69 87 69 57 0 83 -10
83 -31 0 -22 -1 -22 -51 -7 -34 10 -42 9 -60 -8 l-21 -19 22 -17 c12 -10 31
-18 42 -18 22 0 60 -18 70 -34 12 -17 9 -61 -4 -74 -7 -7 -25 -12 -40 -12 -15
0 -28 -4 -28 -9 0 -5 8 -8 18 -6 9 2 60 4 112 6 61 1 83 4 60 8 -39 7 -80 57
-80 98 0 42 27 91 61 108 40 21 121 16 149 -10 64 -58 39 -183 -40 -198 -14
-2 9 -5 51 -6 l75 -1 0 29 c-1 29 -16 58 -16 30 0 -14 -38 -44 -46 -37 -5 5
45 58 54 58 4 0 8 23 10 52 2 67 23 89 89 95 55 4 79 -7 69 -32 -4 -12 -12
-15 -24 -9 -46 20 -92 -2 -92 -44 0 -24 2 -24 50 -18 48 6 50 6 50 -16 0 -22
-4 -23 -49 -22 l-49 2 -4 -44 c-2 -30 1 -44 9 -44 10 0 13 -41 13 -175 l0
-175 103 0 c67 0 107 4 115 12 9 9 15 9 24 0 16 -16 28 -15 28 2 0 8 -10 17
-22 19 l-23 4 23 8 c13 4 22 15 22 27 0 10 5 16 10 13 6 -4 10 -12 9 -18 -1
-7 1 -24 5 -39 l8 -27 109 1 c88 1 109 4 109 15 0 11 -7 13 -32 6 -60 -15
-125 -9 -155 13 -37 28 -43 76 -12 97 20 15 20 17 5 32 -58 59 39 134 137 107
20 -6 38 -7 41 -4 9 8 7 -21 -2 -36 -7 -10 -15 -10 -35 -3 -31 12 -84 8 -99
-7 -5 -5 -8 -18 -6 -28 3 -16 14 -20 61 -22 48 -2 58 -6 53 -18 -3 -9 -6 -19
-6 -22 0 -4 -19 -6 -42 -6 -24 1 -51 -3 -60 -8 -23 -11 -23 -45 0 -56 20 -10
87 -5 112 8 26 14 25 14 40 -30 7 -22 17 -40 22 -40 15 0 8 34 -12 60 -26 34
-25 37 12 38 32 1 58 -12 58 -29 0 -13 -34 -11 -48 3 -9 9 -12 9 -12 0 0 -6 6
-15 14 -19 8 -4 15 -12 15 -18 0 -5 5 -11 12 -14 6 -2 9 1 5 7 -3 6 -2 13 4
17 5 3 10 -3 10 -14 0 -11 -8 -22 -17 -24 -14 -4 -12 -5 5 -6 12 0 22 4 22 9
0 7 6 7 19 0 24 -13 71 -13 71 -1 0 5 9 12 20 16 15 5 19 14 18 41 -1 19 2 37
5 41 4 3 7 -19 7 -50 0 -34 4 -57 11 -57 6 0 8 9 4 20 -5 15 -2 20 11 20 12 0
14 3 6 13 -6 7 -9 22 -6 34 3 11 1 24 -5 27 -6 4 -11 15 -10 24 0 11 3 12 6 5
9 -24 18 -13 17 19 -1 50 6 68 32 74 13 3 28 12 34 19 15 18 86 27 130 17 30
-7 35 -12 32 -34 -2 -20 3 -27 23 -32 17 -4 25 -13 25 -29 0 -16 -3 -18 -9 -9
-6 10 -10 9 -14 -7 -3 -12 1 -28 9 -35 16 -17 19 -66 4 -66 -9 0 -14 15 -11
34 1 4 -3 14 -10 22 -6 8 -9 24 -5 37 8 32 -30 76 -64 76 -14 1 -36 1 -48 1
-31 0 -42 -7 -42 -30 0 -22 19 -30 71 -30 35 0 39 -3 39 -25 0 -25 20 -37 20
-12 1 6 7 1 15 -13 16 -29 12 -38 -10 -20 -12 10 -15 10 -15 -4 0 -9 -4 -16
-9 -16 -4 0 -8 10 -7 22 1 19 -5 23 -36 26 -76 6 -108 -43 -43 -67 36 -13 90
-7 100 10 10 15 22 10 28 -11 7 -29 -16 -42 -82 -45 -49 -3 -66 0 -93 18 -42
29 -50 77 -17 100 20 15 20 17 5 32 -9 9 -16 28 -16 43 0 24 -1 25 -14 7 -9
-12 -11 -29 -6 -50 4 -18 3 -40 -2 -49 -10 -18 0 -103 13 -112 5 -3 9 1 9 8 0
9 2 10 8 2 4 -8 44 -11 110 -11 91 0 102 2 102 18 0 10 5 21 10 24 6 4 10 -5
10 -20 l0 -26 115 2 c64 1 112 5 109 10 -11 18 6 29 27 19 11 -6 17 -14 15
-19 -3 -4 37 -8 88 -10 77 -1 95 1 99 14 4 8 13 15 21 15 10 0 13 -6 10 -15
-4 -8 -1 -15 4 -15 6 0 9 9 7 20 -5 27 31 27 38 0 4 -15 14 -20 40 -20 35 0
47 12 47 48 0 12 9 18 31 18 22 1 27 -1 18 -7 -11 -7 -10 -9 4 -9 9 0 17 6 17
13 0 8 3 7 10 -3 7 -11 5 -17 -8 -22 -16 -6 -16 -7 0 -7 9 -1 19 -9 21 -19 3
-9 5 0 6 20 1 50 10 68 32 68 12 0 19 7 19 18 0 10 6 26 13 36 12 16 13 16 14
-4 1 -11 -2 -18 -8 -15 -5 4 -9 -7 -9 -24 0 -17 -8 -36 -18 -43 -9 -7 -18 -21
-18 -30 -1 -14 2 -15 23 -5 18 8 26 7 36 -3 10 -10 9 -11 -3 -5 -12 7 -13 6
-2 -6 19 -21 243 -24 235 -3 -3 8 0 14 6 14 6 0 11 -7 11 -15 0 -23 76 -21 89
2 5 10 9 23 10 28 2 20 36 10 36 -10 1 -11 6 -19 13 -17 7 1 12 -2 12 -8 0 -5
18 -10 40 -10 40 0 40 0 40 38 0 21 -5 43 -11 49 -8 8 -8 13 0 17 7 4 11 41
11 90 l0 83 -67 6 c-38 3 -242 4 -455 2 l-388 -4 0 155 0 154 -1010 0 -1010 0
0 -120z m506 72 c-2 -15 -5 -45 -6 -67 l-2 -40 -9 35 c-4 19 -9 44 -11 55 -2
11 -10 24 -18 29 -12 8 -10 11 10 16 34 9 39 4 36 -28z m363 27 c33 -12 36
-16 22 -37 -7 -12 -14 -11 -40 2 -17 9 -31 13 -32 9 0 -5 0 -50 1 -100 1 -88
0 -93 -19 -93 -22 0 -28 -14 -11 -25 6 -3 10 -15 10 -26 0 -15 7 -19 39 -19
22 0 42 -5 44 -12 3 -7 6 -1 6 13 1 20 -4 25 -21 25 -14 -1 -23 5 -23 14 0 10
8 14 23 13 12 -2 22 2 22 7 0 6 -9 10 -19 10 -24 0 -32 12 -21 30 7 11 11 12
24 0 14 -11 16 -10 10 4 -3 9 -12 16 -19 16 -7 0 -15 7 -19 15 -3 9 0 15 8 15
19 0 50 37 37 44 -6 4 -7 14 -4 23 9 24 24 -33 17 -63 -3 -12 -1 -25 5 -29 8
-4 8 -12 1 -25 -8 -15 -7 -18 2 -15 7 3 28 -8 46 -25 18 -16 40 -26 48 -23 8
3 14 0 14 -5 0 -6 -13 -10 -30 -10 -16 1 -27 5 -24 10 3 4 0 8 -5 8 -6 0 -11
-7 -11 -15 0 -8 -4 -15 -10 -15 -5 0 -10 6 -10 13 0 6 -14 -9 -30 -35 -17 -27
-30 -52 -30 -58 0 -23 -20 -7 -28 23 -5 17 -15 31 -22 29 -19 -4 -40 18 -40
43 0 12 -3 24 -6 28 -4 3 -6 51 -5 107 2 104 -1 111 -41 89 -20 -11 -37 0 -38
23 0 24 125 36 179 17z m101 -68 c0 -63 4 -83 19 -102 19 -23 21 -23 48 -9 27
15 28 19 31 103 3 84 4 88 24 85 20 -3 21 -8 19 -80 -2 -66 1 -80 18 -97 25
-25 40 -26 67 -7 16 12 19 27 19 98 1 79 2 83 24 86 23 4 23 3 19 -91 -4 -117
-17 -137 -88 -137 -25 0 -51 5 -58 12 -9 9 -17 9 -34 1 -41 -20 -71 -22 -99
-7 -41 21 -49 43 -49 138 0 79 2 86 20 86 18 0 20 -7 20 -79z m188 63 c-2 -10
3 -19 10 -21 6 -3 12 2 12 11 0 9 5 16 10 16 15 0 12 -28 -4 -37 -14 -8 -20
-37 -16 -83 1 -14 4 -19 7 -12 2 6 9 9 14 6 13 -8 -9 -34 -28 -34 -8 0 -12 4
-9 8 3 5 -2 21 -10 36 -16 32 -19 66 -5 66 5 0 7 14 5 30 -3 18 -1 30 6 30 6
0 10 -7 8 -16z m316 6 c36 -13 48 -44 54 -137 l4 -83 -26 0 c-22 0 -26 4 -26
30 l0 30 -61 0 c-52 0 -60 -2 -55 -16 3 -9 6 -22 6 -30 0 -19 29 -18 36 1 8
21 27 7 21 -16 -3 -10 0 -22 5 -26 7 -3 8 -1 4 5 -9 15 26 16 41 1 16 -16 73
-1 73 19 0 12 4 11 23 -6 24 -22 48 -28 61 -14 4 4 25 7 47 7 21 0 39 -3 39
-7 0 -14 63 -8 80 7 18 16 60 10 60 -10 0 -7 -9 -15 -20 -18 -11 -3 -20 -11
-19 -19 0 -10 2 -10 6 0 2 6 14 12 24 12 16 0 20 -6 17 -27 -2 -22 -8 -27 -23
-25 -16 3 -18 1 -7 -9 14 -15 16 -33 2 -24 -12 7 -24 -38 -17 -65 7 -27 -14
-41 -54 -36 -28 3 -35 8 -40 32 -3 16 -4 41 -1 56 2 15 2 42 -2 61 -6 30 -10
34 -42 35 -22 1 -37 -4 -40 -13 -7 -16 -34 -21 -34 -6 0 10 -56 25 -82 22 -10
-1 -25 2 -35 7 -13 8 -21 5 -33 -8 -30 -35 -70 -29 -70 9 0 29 -14 41 -51 41
-17 0 -19 8 -19 75 0 79 15 125 47 144 23 13 74 14 107 1z m255 -1 c56 -20 71
-92 27 -127 l-25 -19 31 -37 c17 -20 29 -39 27 -41 -12 -11 -57 11 -74 37 -15
22 -29 31 -53 33 -30 3 -32 1 -32 -31 0 -27 -4 -34 -20 -34 -19 0 -20 7 -20
115 l0 115 54 0 c29 0 67 -5 85 -11z m260 2 c21 -13 6 -45 -17 -35 -25 12 -81
9 -95 -5 -8 -8 -9 -16 0 -29 8 -13 23 -16 62 -15 48 2 50 1 38 -17 -9 -15 -23
-20 -53 -20 -44 0 -70 -19 -61 -45 9 -21 54 -29 95 -17 41 13 62 -2 38 -26
-19 -19 -121 -17 -152 3 -29 19 -32 65 -7 91 13 13 14 19 5 22 -6 2 -12 19
-12 38 0 26 6 37 28 48 30 17 109 21 131 7z m-1766 -33 c-29 -30 -56 -39 -31
-10 9 9 14 22 11 28 -2 7 6 11 21 10 l25 -1 -26 -27z m821 20 c4 4 6 -28 5
-71 -3 -71 -5 -77 -25 -77 -13 0 -24 8 -27 20 -3 11 -2 20 3 20 4 0 4 15 0 34
-4 19 -5 46 -3 60 4 21 9 24 23 16 9 -5 21 -6 24 -2z m261 -20 c-1 -13 -3 -50
-4 -82 0 -33 -4 -57 -7 -53 -3 3 -6 38 -5 79 0 94 0 90 10 84 4 -3 7 -16 6
-28z m250 23 c-3 -5 -1 -12 4 -15 5 -3 9 -23 9 -43 0 -28 -2 -33 -8 -18 -4 11
-5 26 -2 34 4 10 1 12 -8 6 -10 -6 -12 -4 -7 8 3 10 2 17 -4 17 -6 0 -7 5 -4
10 3 6 11 10 16 10 6 0 8 -4 4 -9z m246 -8 c13 -16 12 -17 -3 -4 -17 13 -22
21 -14 21 2 0 10 -8 17 -17z m-1701 -33 c0 -5 -4 -10 -10 -10 -5 0 -10 5 -10
10 0 6 5 10 10 10 6 0 10 -4 10 -10z m37 -16 c-9 -9 -28 6 -21 18 4 6 10 6 17
-1 6 -6 8 -13 4 -17z m541 5 c3 8 10 4 20 -10 15 -22 16 -22 23 -3 5 13 8 6 8
-24 1 -26 5 -41 11 -37 19 12 10 -11 -10 -25 -11 -8 -20 -18 -20 -22 0 -4 9
-8 20 -8 11 0 20 -7 20 -15 0 -11 -5 -12 -24 -5 -13 5 -32 7 -42 5 -11 -2 -22
-4 -26 -4 -4 -1 -4 -17 -1 -37 5 -29 3 -36 -8 -32 -8 3 -13 16 -11 32 2 15 -4
34 -15 44 -16 16 -17 16 -10 0 3 -10 2 -18 -4 -18 -8 0 -29 40 -29 55 0 8 35
-8 53 -23 22 -19 22 -5 0 20 -14 16 -15 18 0 18 9 0 23 -9 31 -21 9 -13 19
-18 27 -14 9 6 7 12 -7 23 -18 13 -17 14 9 8 19 -5 26 -3 22 4 -3 5 -13 10
-21 10 -8 0 -14 10 -14 24 0 25 -39 63 -50 48 -10 -13 -30 -12 -30 2 0 22 22
25 49 8 19 -11 26 -12 29 -3z m1302 5 c0 -2 -7 -4 -15 -4 -8 0 -15 4 -15 10 0
5 7 7 15 4 8 -4 15 -8 15 -10z m-1122 -12 c-10 -2 -18 -8 -18 -14 0 -6 -3 -8
-6 -5 -11 10 17 38 30 30 7 -5 5 -9 -6 -11z m-674 2 c9 -3 16 -12 16 -20 0
-11 -5 -11 -25 -2 -39 18 -31 37 9 22z m1016 -20 c0 -8 -4 -14 -10 -14 -5 0
-10 9 -10 21 0 11 5 17 10 14 6 -3 10 -13 10 -21z m-453 -26 c-3 -8 -6 -5 -6
6 -1 11 2 17 5 13 3 -3 4 -12 1 -19z m133 7 c0 -8 -9 -15 -20 -15 -13 0 -18 5
-14 15 4 8 12 15 20 15 8 0 14 -7 14 -15z m684 -20 c3 -8 1 -15 -4 -15 -6 0
-10 7 -10 15 0 8 2 15 4 15 2 0 6 -7 10 -15z m-1507 -22 c0 -9 -4 -10 -14 -2
-7 6 -13 12 -13 14 0 1 6 2 13 2 8 0 14 -6 14 -14z m1926 -4 c-7 -7 -19 -8
-30 -4 -16 7 -15 9 7 15 30 8 38 4 23 -11z m-1889 -4 c3 -8 1 -15 -4 -15 -6 0
-10 7 -10 15 0 8 2 15 4 15 2 0 6 -7 10 -15z m1816 -5 c0 -5 -4 -10 -10 -10
-5 0 -10 5 -10 10 0 6 5 10 10 10 6 0 10 -4 10 -10z m-340 -28 c0 -15 -2 -15
-10 -2 -13 20 -13 33 0 25 6 -3 10 -14 10 -23z m-1346 2 c3 -8 2 -12 -4 -9 -6
3 -10 10 -10 16 0 14 7 11 14 -7z m1072 -22 c-4 -3 -11 0 -16 8 -15 24 -11 33
6 15 9 -9 13 -19 10 -23z m504 28 c0 -5 -2 -10 -4 -10 -3 0 -8 5 -11 10 -3 6
-1 10 4 10 6 0 11 -4 11 -10z m-110 -9 c0 -5 3 -16 6 -25 4 -11 1 -16 -11 -16
-9 0 -13 4 -10 10 3 6 -1 7 -9 4 -10 -4 -16 -1 -16 9 0 14 13 24 33 26 4 1 7
-3 7 -8z m-230 -16 c0 -8 -4 -15 -10 -15 -5 0 -10 7 -10 15 0 8 5 15 10 15 6
0 10 -7 10 -15z m-179 -38 c2 -32 2 -32 6 -4 4 28 5 28 24 11 24 -21 24 -30 0
-60 l-20 -25 -4 23 c-3 15 -5 10 -6 -14 0 -20 -6 -38 -13 -40 -6 -2 -11 -20
-10 -39 1 -19 -3 -41 -9 -49 -8 -11 -9 -7 -5 15 4 18 0 41 -8 58 -8 15 -11 27
-6 27 5 0 8 19 8 42 0 36 -2 39 -13 25 -16 -23 -41 -22 -48 2 -3 14 2 21 20
26 13 3 29 3 36 -1 7 -4 9 -3 4 1 -9 10 22 47 34 39 5 -3 10 -20 10 -37z
m-651 16 c-1 -19 -19 -35 -30 -28 -10 6 -9 11 5 22 22 15 25 16 25 6z m80 -3
c0 -5 11 -10 24 -10 27 0 42 -15 26 -25 -6 -4 -8 -10 -5 -15 3 -4 -4 -6 -15
-3 -11 3 -22 9 -25 13 -3 5 -13 6 -23 3 -13 -3 -18 2 -20 21 -1 20 3 26 18 26
11 0 20 -4 20 -10z m428 -20 c2 5 8 8 13 4 17 -10 -2 -24 -32 -24 -16 0 -29
-5 -29 -10 0 -7 -6 -7 -17 -2 -10 5 -24 7 -31 5 -8 -3 -10 1 -6 11 3 9 10 16
16 16 5 0 16 7 24 15 13 13 18 12 37 -6 12 -11 23 -15 25 -9z m-311 -5 c0 -8
-4 -15 -9 -15 -10 0 -11 14 -1 23 9 10 10 9 10 -8z m552 -7 c-1 -20 -2 -20 -6
-4 -4 15 -7 16 -14 5 -7 -11 -9 -11 -9 4 0 9 7 17 15 17 9 0 15 -9 14 -22z
m525 11 c-5 -9 6 -10 41 -5 37 6 46 5 43 -6 -4 -9 -20 -12 -54 -9 -57 4 -72
10 -53 22 20 12 31 11 23 -2z m1 -39 c-3 -5 -11 -10 -16 -10 -6 0 -7 5 -4 10
3 6 11 10 16 10 6 0 7 -4 4 -10z m-732 -40 c10 -19 28 -59 39 -89 11 -31 24
-60 28 -64 4 -4 24 33 45 83 29 70 43 94 63 101 30 12 37 7 23 -18 -5 -10 -29
-63 -52 -118 -53 -126 -59 -134 -93 -111 -14 9 -29 29 -33 43 -3 15 -26 69
-49 120 l-43 91 27 -2 c18 -2 32 -14 45 -36z m529 -73 l-1 -107 69 0 c66 0 70
-1 70 -23 0 -22 -3 -22 -91 -22 l-92 1 1 125 c0 68 1 127 1 130 1 3 10 5 22 4
20 -1 21 -7 21 -108z m370 92 c58 -31 76 -129 35 -190 -42 -63 -145 -74 -207
-22 -17 14 -30 20 -30 13 0 -7 -5 -6 -15 3 -8 9 -33 15 -57 15 -72 0 -85 4
-38 12 29 5 56 3 75 -5 l30 -12 0 68 c0 58 3 71 24 93 14 15 39 31 55 36 33 9
100 4 128 -11z m-1288 -8 c38 -26 55 -57 56 -104 0 -49 -23 -93 -58 -111 -25
-13 -87 -19 -164 -17 l-28 1 0 125 0 125 83 0 c64 0 88 -4 111 -19z m446 4 c0
-7 -6 -18 -13 -24 -11 -8 -16 -6 -25 13 -9 21 -8 24 14 24 13 0 24 -6 24 -13z
m927 3 c14 -18 12 -48 -3 -48 -8 0 -11 6 -7 17 5 12 2 15 -9 10 -21 -8 -30 3
-17 20 14 16 24 17 36 1z m224 -17 c19 -23 26 -86 11 -107 -18 -26 -60 -44
-104 -44 l-47 0 -3 -38 c-3 -33 -6 -37 -28 -34 -14 2 -25 5 -25 5 0 1 1 58 3
126 l3 123 85 -3 c76 -4 88 -7 105 -28z m257 21 c21 -14 3 -44 -22 -36 -58 20
-119 3 -114 -30 3 -18 11 -21 61 -24 54 -3 58 -5 55 -25 -3 -19 -9 -22 -53
-22 -57 0 -75 -8 -75 -34 0 -40 97 -52 138 -18 14 11 32 -5 32 -30 0 -16 -94
-36 -134 -29 -75 14 -109 73 -66 116 19 19 19 22 5 36 -22 22 -19 51 10 79 20
21 33 25 87 25 35 0 69 -4 76 -8z m235 -3 c50 -23 62 -95 21 -136 l-25 -25 26
-40 c15 -22 25 -42 22 -44 -11 -11 -57 18 -73 45 -15 26 -25 31 -56 31 -36 0
-37 -1 -33 -32 4 -35 -7 -48 -35 -41 -17 4 -18 17 -17 129 l1 124 72 0 c40 0
84 -5 97 -11z m-437 -8 c8 7 14 7 14 1 0 -5 -7 -13 -16 -16 -23 -9 -24 -8 -23
12 0 11 2 12 6 4 4 -10 8 -10 19 -1z m248 -26 c3 -8 1 -15 -4 -15 -6 0 -10 7
-10 15 0 8 2 15 4 15 2 0 6 -7 10 -15z m-88 -18 c23 9 82 -27 89 -54 8 -32 -1
-42 -10 -13 -9 27 -67 52 -100 44 -18 -4 -25 -2 -25 8 0 20 12 30 23 19 5 -5
15 -7 23 -4z m-1576 -8 c0 -11 -21 -11 -39 0 -9 6 -5 9 13 9 14 0 26 -4 26 -9z
m65 1 c11 18 23 10 43 -31 16 -32 17 -39 5 -35 -11 5 -13 2 -9 -11 6 -15 4
-14 -14 2 -21 19 -21 19 -26 -2 -3 -12 -12 -24 -20 -27 -19 -7 -18 3 3 26 13
15 14 23 5 43 -6 14 -19 25 -27 25 -9 0 -13 5 -10 10 4 7 12 7 25 0 13 -7 21
-7 25 0z m424 1 c8 -5 9 -11 3 -15 -5 -3 -15 1 -22 9 -14 16 -3 20 19 6z m48
-13 c-3 -8 -6 -5 -6 6 -1 11 2 17 5 13 3 -3 4 -12 1 -19z m-679 -16 c2 -7 -3
-12 -12 -12 -9 0 -16 7 -16 16 0 17 22 14 28 -4z m712 -4 c0 -19 -2 -20 -10
-8 -13 19 -13 30 0 30 6 0 10 -10 10 -22z m574 7 c3 -8 1 -15 -4 -15 -6 0 -10
7 -10 15 0 8 2 15 4 15 2 0 6 -7 10 -15z m480 -30 c-4 -8 -8 -15 -10 -15 -2 0
-4 7 -4 15 0 8 4 15 10 15 5 0 7 -7 4 -15z m-481 -72 c-3 -7 -11 -13 -18 -13
-7 0 -15 -6 -18 -12 -2 -7 -7 -11 -10 -7 -4 3 4 16 16 29 15 16 22 34 20 55
-2 29 -2 29 6 -4 5 -19 7 -40 4 -48z m-1289 52 c-6 -16 -24 -21 -24 -7 0 11
11 22 21 22 5 0 6 -7 3 -15z m1786 -17 c0 -16 -3 -19 -11 -11 -6 6 -8 16 -5
22 11 17 16 13 16 -11z m-1685 -17 c-3 -6 -11 -11 -17 -11 -6 0 -6 6 2 15 14
17 26 13 15 -4z m38 4 c4 -8 2 -17 -2 -20 -5 -2 -11 4 -14 15 -6 23 8 27 16 5z
m454 -7 c-3 -8 -6 -5 -6 6 -1 11 2 17 5 13 3 -3 4 -12 1 -19z m43 -4 c0 -8 -4
-14 -10 -14 -5 0 -10 9 -10 21 0 11 5 17 10 14 6 -3 10 -13 10 -21z m30 0 c0
-8 -4 -14 -10 -14 -5 0 -10 9 -10 21 0 11 5 17 10 14 6 -3 10 -13 10 -21z
m1090 16 c0 -5 -7 -10 -16 -10 -8 0 -12 5 -9 10 3 6 10 10 16 10 5 0 9 -4 9
-10z m55 0 c3 -5 1 -10 -4 -10 -6 0 -11 5 -11 10 0 6 2 10 4 10 3 0 8 -4 11
-10z m-155 -10 c0 -5 -4 -10 -10 -10 -5 0 -10 5 -10 10 0 6 5 10 10 10 6 0 10
-4 10 -10z m50 -6 c0 -9 -7 -14 -17 -12 -25 5 -28 28 -4 28 12 0 21 -6 21 -16z
m-160 -28 c0 -3 -4 -8 -10 -11 -5 -3 -10 -1 -10 4 0 6 5 11 10 11 6 0 10 -2
10 -4z"/>
<path d="M985 350 c-3 -5 -3 -10 2 -10 4 0 1 -5 -7 -10 -13 -8 -12 -10 3 -10
10 0 17 8 17 20 0 22 -5 26 -15 10z"/>
<path d="M928 243 c7 -3 16 -2 19 1 4 3 -2 6 -13 5 -11 0 -14 -3 -6 -6z"/>
<path d="M1462 533 c-12 -11 -22 -33 -24 -53 l-3 -35 58 -3 57 -3 0 33 c0 39
-7 51 -37 67 -28 14 -27 14 -51 -6z m67 -60 c2 -2 2 -6 -2 -9 -10 -11 -65 29
-60 43 4 11 11 9 32 -9 14 -13 28 -24 30 -25z m-9 31 c0 -8 -4 -12 -10 -9 -5
3 -10 10 -10 16 0 5 5 9 10 9 6 0 10 -7 10 -16z"/>
<path d="M1700 495 l0 -45 38 0 c52 0 80 29 64 65 -10 21 -18 25 -57 25 l-45
0 0 -45z m73 19 c8 -9 -11 -44 -23 -44 -6 0 -10 11 -10 25 0 23 18 34 33 19z"/>
<path d="M1086 513 c-6 -14 -5 -15 5 -6 7 7 10 15 7 18 -3 3 -9 -2 -12 -12z"/>
<path d="M1325 250 c-3 -5 -1 -10 4 -10 6 0 11 5 11 10 0 6 -2 10 -4 10 -3 0
-8 -4 -11 -10z"/>
<path d="M800 310 c0 -5 5 -10 11 -10 5 0 7 5 4 10 -3 6 -8 10 -11 10 -2 0 -4
-4 -4 -10z"/>
<path d="M2045 233 c-64 -15 -89 -107 -42 -151 35 -33 99 -30 126 4 52 66 -5
165 -84 147z m35 -40 c-8 -3 -19 -12 -23 -20 -5 -7 -12 -11 -18 -8 -5 4 -9 2
-9 -4 0 -23 20 -19 50 9 41 39 61 28 23 -13 -15 -18 -32 -35 -37 -38 -4 -4 0
-11 10 -17 21 -12 18 -19 -11 -24 -14 -2 -19 2 -17 13 1 9 -6 19 -15 21 -14 4
-18 14 -16 44 1 21 2 40 2 42 1 1 18 2 39 1 20 0 30 -3 22 -6z m55 -42 c3 -5
1 -12 -5 -16 -6 -4 -8 -10 -6 -14 8 -12 -11 -34 -23 -27 -16 10 -14 29 2 23
10 -4 13 2 9 19 -4 23 11 33 23 15z"/>
<path d="M708 145 l-3 -85 51 0 c68 0 104 31 104 89 0 54 -34 81 -101 81 l-48
0 -3 -85z m62 55 c0 -5 7 -10 16 -10 10 0 14 -5 10 -15 -7 -19 14 -55 33 -55
11 0 11 -3 1 -15 -10 -13 -14 -12 -30 7 -15 19 -20 20 -34 9 -20 -17 -21 2 -1
23 8 8 11 17 6 20 -5 4 -11 0 -14 -6 -4 -10 -7 -10 -18 0 -12 11 -11 15 5 24
15 8 16 12 5 19 -11 7 -10 9 4 9 9 0 17 -4 17 -10z m60 -10 c0 -5 -2 -10 -4
-10 -3 0 -8 5 -11 10 -3 6 -1 10 4 10 6 0 11 -4 11 -10z m10 -40 c0 -11 -3
-20 -8 -20 -4 0 -13 9 -20 20 -11 18 -10 20 8 20 13 0 20 -7 20 -20z m-100
-45 c0 -14 -4 -25 -9 -25 -6 0 -8 36 -2 48 5 10 11 -2 11 -23z m51 -10 c0 -6
-10 -12 -23 -13 -19 -4 -20 -2 -9 12 15 17 33 18 32 1z"/>
<path d="M2307 233 c-1 -1 0 -24 1 -52 l4 -51 37 0 c98 0 103 94 5 102 -25 2
-46 2 -47 1z m75 -41 c-3 -10 -1 -13 6 -8 7 4 12 2 12 -4 0 -7 -8 -9 -20 -5
-14 4 -20 2 -20 -8 0 -13 -6 -14 -39 -8 -2 1 2 7 8 14 6 8 8 17 4 21 -4 4 0 4
10 0 9 -3 17 -2 17 3 0 5 6 10 14 10 8 0 12 -6 8 -15z"/>
<path d="M2829 235 c-1 0 -2 -24 -3 -52 l-2 -53 41 0 c46 0 75 22 75 57 0 28
-18 40 -67 45 -24 2 -44 3 -44 3z m72 -40 c5 4 6 0 3 -8 -6 -16 -54 -30 -54
-16 0 15 34 42 38 30 2 -6 8 -9 13 -6z"/>
<path d="M385 538 c-30 -16 -45 -39 -45 -69 0 -41 9 -58 42 -75 52 -27 108 9
108 70 0 38 -10 55 -41 71 -33 18 -38 18 -64 3z m35 -31 c0 -4 11 -20 24 -34
13 -14 22 -32 19 -39 -8 -20 -42 -27 -60 -12 -12 9 -15 9 -9 1 4 -7 3 -13 -3
-13 -6 0 -17 12 -25 28 -12 23 -12 31 0 54 13 25 54 37 54 15z m51 -19 c9 -17
8 -18 -9 -9 -11 6 -22 17 -25 25 -9 22 21 8 34 -16z"/>
<path d="M381 494 c0 -11 3 -14 6 -6 3 7 2 16 -1 19 -3 4 -6 -2 -5 -13z"/>
<path d="M421 464 c-1 -6 6 -17 14 -24 12 -10 15 -9 15 4 0 10 -4 15 -9 12 -5
-4 -12 0 -14 6 -4 8 -6 9 -6 2z"/>
<path d="M405 440 c10 -11 20 -20 23 -20 3 0 -3 9 -13 20 -10 11 -20 20 -23
20 -3 0 3 -9 13 -20z"/>
<path d="M415 350 c3 -5 8 -10 11 -10 2 0 4 5 4 10 0 6 -5 10 -11 10 -5 0 -7
-4 -4 -10z"/>
<path d="M2340 37 c0 -8 6 -14 14 -14 8 0 12 6 9 14 -3 7 -9 13 -14 13 -5 0
-9 -6 -9 -13z"/>
<path d="M1431 14 c0 -11 3 -14 6 -6 3 7 2 16 -1 19 -3 4 -6 -2 -5 -13z"/>
</g>
</svg>
